<?xml version="1.0" standalone="no"?>
<!DOCTYPE svg PUBLIC "-//W3C//DTD SVG 1.1//EN" "http://www.w3.org/Graphics/SVG/1.1/DTD/svg11.dtd" >
<svg xmlns="http://www.w3.org/2000/svg">
<metadata>Generated by IcoMoon</metadata>
<defs>
<font id="iconfont" horiz-adv-x="1024">
<font-face units-per-em="1024" ascent="960" descent="-64" />
<missing-glyph horiz-adv-x="1024" />
<glyph unicode="&#x20;" horiz-adv-x="512" d="" />
<glyph unicode="&#x227c;" glyph-name="left-arrow" d="M755.823-64l-512.017 512 512.017 512 24.37-24.37-487.63-487.63 487.63-487.63z" />
<glyph unicode="&#x227d;" glyph-name="left-arrow2" d="M268.177-64l512.017 512-512.017 512-24.37-24.37 487.63-487.63-487.63-487.63z" />
<glyph unicode="&#x227e;" glyph-name="arrow-down-sign-to-navigate2" d="M803.854 447.999c0-18.352-7.007-36.702-20.992-50.694l-440.301-440.297c-28.009-28.009-73.42-28.009-101.417 0-27.997 27.997-27.997 73.399 0 101.41l389.603 389.58-389.589 389.583c-27.997 28.009-27.997 73.406 0 101.401 27.997 28.022 73.408 28.022 101.417 0l440.301-440.29c13.987-13.999 20.979-32.349 20.979-50.694z" />
<glyph unicode="&#xe900;" glyph-name="telephone" d="M262.4 503.463c64.716-129.421 175.642-235.737 305.063-305.063l101.688 101.688c13.86 13.86 32.358 18.484 46.221 9.242 50.842-18.484 106.316-27.737 166.4-27.737 27.737 0 46.221-18.484 46.221-46.221v-157.158c0-27.737-18.484-46.221-46.221-46.221-434.484 0-785.779 351.284-785.779 785.779 0 27.737 18.484 46.221 46.221 46.221h161.779c27.737 0 46.221-18.484 46.221-46.221 0-55.463 9.242-110.937 27.737-166.4 4.621-13.863 0-32.358-9.242-46.221l-106.312-101.688z" />
<glyph unicode="&#xe901;" glyph-name="placeholder-for-map" horiz-adv-x="1088" d="M540.942 953.060c-205.961 6.941-375.101-157.951-375.101-362.344 0-231.963 222.606-400.307 347.376-642.407 6.335-12.292 24.030-12.308 30.386-0.018 112.873 217.841 305.787 363.916 341.538 573.781 37.017 217.169-124.027 423.565-344.201 430.988zM528.392 400.808c-104.882 0-189.907 85.028-189.907 189.907s85.028 189.907 189.907 189.907c104.882 0 189.909-85.028 189.909-189.907s-85.028-189.907-189.909-189.907z" />
<glyph unicode="&#xe902;" glyph-name="Cancellation" horiz-adv-x="1072" d="M706.61 952.576c-120.827-27.675-203.855-131.291-203.855-254.144 0-58.727 15.526-108.003 48.601-153.904 82.69-116.103 247.056-142.091 364.847-58.051 94.839 67.502 132.64 199.13 88.428 308.82-28.35 70.202-89.777 126.903-162.679 150.528-33.414 11.138-101.59 14.175-135.34 6.75zM813.263 862.798c43.876-12.826 50.963-1.013-82.69-134.666-133.316-133.653-119.478-125.216-133.316-81.339-5.062 14.85-7.088 31.050-7.425 51.301 0 48.263 15.526 85.728 51.638 121.84 46.576 46.576 106.99 61.427 171.792 42.863zM923.966 759.859c37.463-92.815-13.838-196.767-113.403-229.505-33.414-10.8-81.339-7.088-119.816 9.45l-16.538 6.75 117.791 117.791c64.464 64.464 118.803 117.116 120.827 116.44 1.687-0.675 6.75-10.126 11.138-20.926zM182.797 543.178c-7.425-12.826-46.239-80.664-86.402-150.866l-73.239-127.916v-220.055l88.090-2.025v-10.8c0.338-16.875 11.138-36.788 28.688-52.314 48.939-43.201 125.553-17.888 141.079 46.239l4.050 17.213h345.946l2.025-9.45c6.413-30.713 17.213-47.251 42.189-63.789 10.462-6.75 18.901-9.113 37.801-10.462 26.663-1.687 40.839 2.362 61.427 17.888 12.488 9.788 32.063 44.889 32.063 57.714 0 7.762 0.675 7.762 43.201 8.775l42.863 1.013 1.013 107.665 0.675 107.665-27.339 48.601c-27.675 48.601-27.675 48.939-38.139 46.914-5.738-1.013-27.675-3.038-48.263-4.050-20.926-1.35-38.139-3.038-38.139-3.713s4.725-10.126 10.126-21.263l10.126-20.25h-303.758c-167.067 0-303.758 0.675-303.758 1.687s18.901 39.826 42.189 86.064l42.189 84.377h124.878c68.851 0 124.878 0.675 124.878 1.35s-6.75 11.475-15.188 23.626c-8.438 12.488-19.238 31.726-24.301 42.863l-9.45 19.913h-244.356l-13.162-22.613zM327.251 174.282v-43.876l-108.678 0.675-109.016 1.013-1.013 38.476c-0.338 21.263 0 40.839 0.675 43.201 1.35 3.375 23.963 4.387 110.027 4.387h108.003v-43.876zM806.512 174.282v-43.876l-108.678 0.675-109.016 1.013-1.013 43.201-1.013 42.863h219.717v-43.876z" />
<glyph unicode="&#xe903;" glyph-name="commerce" d="M972.429 479.933l-453.224 453.27c-17.857 17.857-41.252 26.797-64.648 26.797s-46.814-8.94-64.648-26.797l-248.203-248.157c-35.714-35.714-35.714-94.731 0-130.445l41.137-42.264h94.892l-88.572 89.721c-6.205 6.228-7.124 14.019-7.124 17.788s0.919 11.284 7.124 17.489l32.772 31.761 155.748-156.759h149.405l-230.461 231.611 140.718 141.269c6.205 6.205 13.444 7.377 17.213 7.377s11.008-0.781 17.213-6.963l453.247-453.201c6.228-6.228 7.17-13.398 7.17-17.19 0-3.769-1.609-10.985-7.837-17.213l-25.694-25.073v-94.892l73.174 72.508c35.691 35.783 36.334 93.651 0.598 129.365zM759.778 469.844h-641.031c-50.491 0-93.674-40.678-93.674-91.169v-242.458h825.001v242.458c0 50.491-39.804 91.169-90.295 91.169zM249.1 218.768c-17.903 0-34.105 7.124-46.056 18.615-11.951-11.491-28.176-18.615-46.033-18.615-36.725 0-66.532 29.761-66.532 66.555 0 36.748 29.784 66.532 66.532 66.532 17.88 0 34.105-7.101 46.033-18.592 11.951 11.491 28.153 18.592 46.056 18.592 36.748 0 66.532-29.784 66.532-66.532 0-36.794-29.784-66.555-66.532-66.555zM25.073 27.72c0-50.491 43.16-91.697 93.674-91.697h641.031c50.491 0 90.318 41.206 90.318 91.697v5.378h-825.024v-5.378z" />
<glyph unicode="&#xe904;" glyph-name="phone" horiz-adv-x="1072" d="M609.446 950.795c-156.368 0-294.762-78.060-378.532-197.183 17.337-11.31 34.236-26.821 50.581-46.759 62.494 93.445 163.542 159.007 280.456 173.101l47.489-80.361 47.489 80.363c179.716-21.659 322.566-164.502 344.235-344.217l-80.375-47.495 80.376-47.497c-14.485-120.152-83.297-223.594-180.918-285.592 6.218-14.175 9.721-28.669 10.34-43.612 0.456-10.92-0.67-21.238-2.935-31.034 145.312 78.080 244.355 231.533 244.355 407.727 0 255.062-207.498 462.56-462.56 462.56zM727.486 189.004c-106.632 85.697-136.449 43.572-184.832-4.804-33.778-33.79-119.257 36.771-193.064 110.58-73.812 73.82-144.358 159.285-110.583 193.069 48.386 48.377 90.499 78.211 4.778 184.815-85.692 106.642-142.816 24.77-189.685-22.102-54.109-54.090-2.852-255.661 196.367-454.911 199.245-199.222 400.815-250.445 454.891-196.375 46.862 46.872 128.759 103.991 22.125 189.728zM402.73 415.846c0 94.784 110.965 111.669 110.965 148.656 0 17.947-14.367 25.482-27.655 25.482-24.42 0-38.053-27.28-38.053-27.28l-46.681 31.235c0 0 23.701 55.296 90.486 55.296 42.009 0 87.609-24.060 87.609-78.636 0-80.075-103.414-95.52-105.211-128.553h109.167v-53.856h-177.748c-1.799 10.051-2.878 19.023-2.878 27.655zM609.607 488.367l99.116 156.568h76.84v-142.561h30.517v-52.058h-30.517v-62.128h-62.128v62.128h-113.825v38.051h-0.002zM723.432 502.376v57.452c0 14.007 2.157 28.734 2.157 28.734h-0.719c0 0-5.379-15.805-12.568-26.577l-38.77-58.892v-0.719l49.901 0.003z" />
<glyph unicode="&#xe905;" glyph-name="clock" horiz-adv-x="1120" d="M560-64c282.971 0 512 229.914 512 512 0 282.971-229.914 512-512 512s-512-229.030-512-512c0-282.087 229.030-512 512-512zM560 888.374c243.179 0 440.374-197.195 440.374-440.374s-197.195-440.374-440.374-440.374-440.374 198.080-440.374 440.374c0 243.179 197.195 440.374 440.374 440.374zM536.124 387.87h170.667c20.338 0 36.256 15.917 36.256 36.256s-15.917 36.256-36.256 36.256h-134.411v210.46c0 20.338-15.917 36.256-36.256 36.256s-36.256-15.917-36.256-36.256v-246.715c0-20.338 15.917-36.256 36.256-36.256z" />
<glyph unicode="&#xe906;" glyph-name="social" horiz-adv-x="1168" d="M-0.007 1.962v571.511c0 176.744 143.821 320.565 320.565 320.565h526.806c176.783 0 320.643-143.821 320.643-320.565v-98.577c0-176.744-143.821-320.565-320.565-320.565h-519.451l-327.997-152.37zM320.558 822.572c-137.352 0-249.097-111.745-249.097-249.097v-459.497l240.78 111.862h535.2c137.352 0 249.097 111.745 249.097 249.097v98.577c0 137.352-111.783 249.097-249.174 249.097l-526.806-0.039zM344.125 578.903c37.544 0 67.963-30.419 67.963-67.963s-30.419-67.963-67.963-67.963-67.963 30.419-67.963 67.963 30.419 67.963 67.963 67.963zM823.838 578.903c37.544 0 67.963-30.419 67.963-67.963s-30.419-67.963-67.963-67.963-67.963 30.419-67.963 67.963 30.419 67.963 67.963 67.963zM583.942 578.903c37.544 0 67.963-30.419 67.963-67.963s-30.419-67.963-67.963-67.963-67.963 30.419-67.963 67.963 30.419 67.963 67.963 67.963z" />
<glyph unicode="&#xe907;" glyph-name="correct-signal" d="M950.782 832.511l-622.711-622.628-254.92 254.947-73.151-73.282 328.071-328.059 695.929 695.853z" />
<glyph unicode="&#xe908;" glyph-name="facebook-logo" d="M590.924 624.472v88.231c0 13.245 0.609 23.505 1.848 30.752 1.234 7.258 4.041 14.397 8.399 21.444 4.351 7.043 11.395 11.905 21.124 14.599 9.741 2.699 22.686 4.044 38.848 4.044h88.227v176.458h-141.047c-81.613 0-140.229-19.363-175.855-58.089-35.622-38.735-53.432-95.79-53.432-171.187v-106.249h-105.644v-176.471h105.638v-511.999h211.894v511.997h141.038l18.643 176.471h-159.679z" />
<glyph unicode="&#xe909;" glyph-name="twitter-letter-logo" d="M745.493 212.041h-232.926c-32.378 0-59.915 11.328-82.537 34.088-22.731 22.783-33.961 50.314-33.961 82.842v82.905h331.902c29.937 0 55.719 10.752 77.137 32.119 21.407 21.545 32.159 47.292 32.159 77.261 0 30.070-10.752 55.788-32.223 77.261-21.493 21.418-47.356 32.159-77.419 32.159h-331.563v171.284c0 32.412-11.558 60.152-34.508 83.273-22.846 23.158-50.493 34.772-82.589 34.772-32.999 0-61.096-11.443-83.953-34.088-22.938-22.719-34.381-50.705-34.381-84.057v-472.933c0-97.273 34.381-180.379 103.178-249.354 68.849-69.113 151.846-103.569 248.892-103.569h232.886c32.326 0 60.092 11.61 83.176 34.761 23.105 23.042 34.634 50.861 34.634 83.239 0 32.39-11.529 60.145-34.634 83.291-23.099 23.099-50.89 34.75-83.262 34.75z" />
<glyph unicode="&#xe90a;" glyph-name="google-plus" horiz-adv-x="1456" d="M515.7 351.244h223.313c-39.199-110.823-145.361-190.282-269.652-189.366-150.81 1.115-275.507 121.757-281.364 272.457-6.277 161.539 123.322 294.959 283.491 294.959 73.234 0 140.065-27.904 190.452-73.628 11.935-10.832 30.1-10.901 41.838 0.147l82.020 77.195c12.826 12.074 12.874 32.465 0.085 44.579-79.904 75.701-187.090 122.884-305.292 125.191-252.11 4.921-464.614-201.781-466.373-453.936-1.771-254.047 203.634-460.542 457.269-460.542 243.916 0 443.175 190.984 456.521 431.564 0.357 3.017 0.589 104.955 0.589 104.955h-412.901c-16.924 0-30.643-13.718-30.643-30.643v-112.287c0-16.924 13.72-30.643 30.643-30.643zM1306.99 514.619v109.711c0 14.832-12.021 26.853-26.853 26.853h-92.34c-14.832 0-26.853-12.021-26.853-26.853v-109.711h-109.711c-14.832 0-26.853-12.021-26.853-26.853v-92.34c0-14.832 12.021-26.853 26.853-26.853h109.711v-109.711c0-14.832 12.021-26.853 26.853-26.853h92.34c14.832 0 26.853 12.021 26.853 26.853v109.711h109.711c14.832 0 26.853 12.021 26.853 26.853v92.34c0 14.832-12.021 26.853-26.853 26.853h-109.711z" />
<glyph unicode="&#xe90b;" glyph-name="linkedin-logo" d="M1024 337.332v-378.579h-219.476v353.224c0 88.733-31.745 149.29-111.188 149.29-60.645 0-96.735-40.811-112.612-80.288-5.79-14.113-7.28-33.757-7.28-53.512v-368.714h-219.55c0 0 2.957 598.246 0 660.229h219.529v-93.585c-0.445-0.7-1.024-1.455-1.443-2.133h1.443v2.133c29.167 44.922 81.255 109.095 197.845 109.095 144.447 0.002 252.733-94.363 252.733-297.16zM124.235 937.245c-75.108 0-124.235-49.265-124.235-114.050 0-63.373 47.705-114.133 121.321-114.133h1.467c76.562 0 124.177 50.75 124.177 114.133-1.443 64.785-47.615 114.050-122.73 114.050zM13.039-41.247h219.467v660.229h-219.467v-660.229z" />
<glyph unicode="&#xe90c;" glyph-name="favourites-filled-star-symbol" d="M979.438 602.76l-281.99 26.665c-17.776 1.616-33.137 12.928-40.401 29.897l-101.002 244.829c-16.16 40.401-73.538 40.401-89.698 0l-100.194-244.829c-6.464-16.968-22.624-28.281-40.401-29.897l-281.998-26.665c-42.017-4.040-58.985-56.561-27.473-84.842l212.508-186.652c13.736-12.12 19.392-29.897 15.352-47.673l-63.833-261.789c-9.696-41.217 34.745-75.146 71.914-53.337l235.133 138.179c15.352 8.888 33.937 8.888 49.289 0l235.141-138.179c37.169-21.808 81.61 11.312 71.905 53.337l-63.025 261.789c-4.040 17.776 1.616 35.553 15.352 47.673l212.508 186.652c30.705 28.281 12.928 80.802-29.089 84.842z" />
<glyph unicode="&#xe90d;" glyph-name="magnifying-glass" d="M1001.239 70.148l-211.077 211.068c50.868 73.43 76.314 155.291 76.314 245.538 0 58.666-11.389 114.773-34.168 168.309-22.763 53.545-53.536 99.696-92.305 138.466s-84.914 69.542-138.448 92.308c-53.551 22.772-109.654 34.157-168.32 34.157-58.662 0-114.769-11.385-168.305-34.157-53.545-22.765-99.696-53.538-138.466-92.308-38.774-38.769-69.542-84.93-92.31-138.466-22.77-53.542-34.155-109.643-34.155-168.309 0-58.662 11.385-114.75 34.155-168.301 22.765-53.536 53.536-99.681 92.31-138.45 38.769-38.782 84.93-69.542 138.466-92.32 53.542-22.768 109.643-34.15 168.305-34.15 90.266 0 172.114 25.449 245.548 76.312l211.077-210.456c14.769-15.586 33.206-23.384 55.379-23.384 21.332 0 39.804 7.796 55.381 23.384 15.584 15.584 23.382 34.047 23.382 55.379 0.006 21.731-7.583 40.201-22.763 55.381zM628.006 332.005c-53.948-53.956-118.866-80.933-194.771-80.933-75.892 0-140.811 26.984-194.763 80.933s-80.927 118.858-80.927 194.763c0 75.892 26.981 140.821 80.927 194.763 53.941 53.954 118.871 80.927 194.763 80.927 75.896 0 140.815-26.984 194.771-80.927 53.956-53.941 80.931-118.871 80.931-194.763 0-75.905-26.984-140.815-80.931-194.763z" />
<glyph unicode="&#xe90e;" glyph-name="plus-black-symbol" d="M1003.637 567.27c-13.58 13.577-30.073 20.363-49.461 20.363h-302.548v302.556c0 19.388-6.791 35.876-20.363 49.453-13.575 13.567-30.051 20.358-49.466 20.358h-139.623c-19.39 0-35.876-6.783-49.453-20.361s-20.363-30.066-20.363-49.453v-302.556h-302.546c-19.388 0-35.876-6.786-49.453-20.363s-20.361-30.051-20.361-49.451v-139.641c0-19.405 6.781-35.881 20.358-49.446 13.577-13.582 30.066-20.363 49.453-20.363h302.546v-302.561c0-19.388 6.786-35.889 20.363-49.461 13.577-13.564 30.063-20.345 49.453-20.345h139.633c19.403 0 35.881 6.781 49.461 20.345 13.582 13.58 20.363 30.073 20.363 49.461v302.561h302.543c19.405 0 35.889 6.781 49.461 20.363 13.575 13.564 20.363 30.040 20.363 49.446v139.641c-0.005 19.4-6.778 35.884-20.361 49.453z" />
<glyph unicode="&#xe90f;" glyph-name="remove-symbol" d="M463.056 451.424l-453.248-453.248c-12.592-12.592-12.592-32.992 0-45.584 6.288-6.304 14.544-9.44 22.784-9.44 8.256 0 16.496 3.136 22.784 9.44l456.656 456.656 456.656-456.656c6.304-6.304 14.544-9.44 22.784-9.44s16.496 3.136 22.784 9.44c12.592 12.592 12.592 32.992 0 45.584l-453.232 453.248 453.536 453.568c12.592 12.592 12.592 32.992 0 45.584-12.592 12.576-32.992 12.576-45.568 0l-456.944-456.976-456.992 456.96c-12.592 12.576-32.976 12.576-45.568 0-12.592-12.592-12.592-32.992 0-45.584l453.568-453.552z" />
<glyph unicode="&#xe910;" glyph-name="three" d="M59.368 758.119h905.265c32.805 0 59.368 27.053 59.368 60.515 0 33.379-26.563 60.529-59.368 60.529h-905.265c-32.805 0-59.368-27.151-59.368-60.529 0-33.476 26.563-60.515 59.368-60.515zM964.632 508.529h-905.265c-32.805 0-59.368-27.165-59.368-60.529 0-33.49 26.563-60.529 59.368-60.529h905.265c32.805 0 59.368 27.053 59.368 60.529 0 33.365-26.563 60.529-59.368 60.529zM964.632 137.895h-905.265c-32.805 0-59.368-27.165-59.368-60.529 0-33.49 26.563-60.529 59.368-60.529h905.265c32.805 0 59.368 27.081 59.368 60.529 0 33.365-26.563 60.529-59.368 60.529z" />
<glyph unicode="&#xe911;" glyph-name="arrow-down-sign-to-navigate" d="M511.999 156.146c-18.352 0-36.702 7.007-50.694 20.992l-440.297 440.301c-28.009 28.009-28.009 73.42 0 101.417 27.997 27.997 73.399 27.997 101.41 0l389.58-389.603 389.583 389.589c28.009 27.997 73.406 27.997 101.401 0 28.022-27.997 28.022-73.408 0-101.417l-440.29-440.301c-13.999-13.987-32.349-20.979-50.694-20.979z" />
<glyph unicode="&#xe913;" glyph-name="arrows" horiz-adv-x="1152" d="M576 960c-282.321 0-512-229.679-512-512s229.679-512 512-512 512 229.679 512 512-229.679 512-512 512zM576-26.074c-261.404 0-474.074 212.67-474.074 474.074s212.67 474.074 474.074 474.074 474.074-212.67 474.074-474.074-212.67-474.074-474.074-474.074zM619.482 624.223l157.26-157.26h-466.223c-10.468 0-18.963-8.476-18.963-18.963s8.495-18.963 18.963-18.963h466.223l-157.26-157.26 26.814-26.814 203.036 203.036-203.036 203.036-26.814-26.814z" />
<glyph unicode="&#xe916;" glyph-name="cup" d="M239.78 578.44c-18.168-3.403-32.999-14.779-32.999-32.999 0-18.226 14.776-32.995 32.999-32.995 9.016 0 17.7 1.404 25.892 3.956-7.673 20.188-13.542 41.533-17.628 63.692 0 0-6.187-1.268-8.257-1.653zM618.292 283.409c-9.31 24.338-12.671 44.949-12.671 44.949-2.046 12.535-13.712 19.948-25.927 16.464 0 0-36.327-10.352-67.685-10.352-31.345 0-67.634 10.338-67.634 10.338-12.217 3.478-23.891-3.932-25.93-16.472 0 0-3.177-19.487-12.193-43.532-6.006-16.016-9.354-21.537-9.354-21.537-6.59-10.861-1.592-19.747 11.117-19.747h207.985c12.705 0 17.693 8.872 11.083 19.726-0.003 0-2.897 4.745-8.792 20.16zM706.959 928h-389.912c-16.313 0-29.548-13.245-29.548-29.586v-244.083c0-76.404 22.692-145.948 63.886-195.819 41.468-50.197 98.514-77.852 160.617-77.852 62.106 0 119.149 27.649 160.614 77.852 41.194 49.876 63.886 119.419 63.886 195.819v244.083c-0.003 16.341-13.235 29.586-29.552 29.586zM241.308 687.33h-55.974c-41.852 0-75.895 34.041-75.895 75.891s34.048 75.891 75.895 75.891c22.138 0 42.092-9.528 55.97-24.7v79.172c-17.185 7.412-36.104 11.527-55.97 11.527-78.238 0-141.889-63.654-141.889-141.885 0-78.238 63.65-141.885 141.889-141.885h57.289c-0.868 10.932-1.315 21.797-1.315 32.995v32.999zM781.381 621.336h57.289c78.235 0 141.885 63.643 141.885 141.885 0 78.231-63.647 141.885-141.885 141.885-19.866 0-38.792-4.117-55.967-11.527v-79.168c13.884 15.169 33.832 24.7 55.967 24.7 41.847 0 75.891-34.048 75.891-75.891 0-41.852-34.044-75.891-75.891-75.891h-55.967v-32.999c-0.003-11.202-0.458-22.066-1.322-32.999zM239.78 197.327c-18.223 0-32.999-14.776-32.999-32.995v-163.337c0-18.223 14.776-32.995 32.999-32.995h544.446c18.223 0 32.999 14.772 32.999 32.995v163.337c0 18.219-14.776 32.995-32.999 32.995h-544.446zM775.972 580.094c-4.086-22.166-9.955-43.508-17.628-63.692 8.192-2.552 16.874-3.956 25.892-3.956 18.223 0 32.999 14.769 32.999 32.995 0 18.219-13.683 29.381-32.999 32.999-2.272 0.424-8.257 1.653-8.257 1.653z" />
<glyph unicode="&#xe917;" glyph-name="express-delivery" horiz-adv-x="1328" d="M411.847 405.27h-367.026c-24.784 0-44.835-20.064-44.835-44.824 0-24.753 20.049-44.826 44.835-44.826h367.026c24.775 0 44.826 20.074 44.826 44.826-0.002 24.759-20.051 44.824-44.826 44.824zM456.671 584.587h-277.367c-24.784 0-44.835-20.076-44.835-44.838 0-24.751 20.051-44.824 44.835-44.824h277.369c24.775 0 44.826 20.074 44.826 44.824-0.002 24.764-20.051 44.838-44.829 44.838zM501.498 763.891h-187.712c-24.784 0-44.832-20.072-44.832-44.824 0-24.759 20.049-44.835 44.832-44.835h187.712c24.784 0 44.835 20.076 44.835 44.835 0 24.753-20.051 44.824-44.835 44.824zM1026.69 359.965c-96.308 0-174.623-78.339-174.623-174.647 0-96.289 78.315-174.628 174.623-174.628 96.267 0 174.628 78.339 174.628 174.628 0 96.308-78.362 174.647-174.628 174.647zM1026.69 100.348c-46.881 0-84.973 38.104-84.973 84.969 0 46.861 38.090 84.988 84.973 84.988 46.886 0 84.969-38.129 84.969-84.988 0.002-46.863-38.082-84.969-84.969-84.969zM1210.776 539.341l-28.102 0.24c-12.569 0.108-23.727 7.984-28.022 19.787l-110.847 306.156c-4.291 11.879-15.581 19.787-28.237 19.787h-309.102c-14.36 0-26.705-10.182-29.425-24.278l-122.835-631.079c-1.661-8.808 0.614-17.909 6.307-24.822 5.688-6.923 14.185-10.926 23.155-10.926h202.036c4.811 129.183 110.662 233.001 240.985 233.001s236.18-103.816 240.995-233.001h30.29c16.599 0 30.036 13.439 30.036 30v196.953c0 64.904-52.313 117.652-117.234 118.181zM1046.041 632.608c-3.281-4.351-8.402-6.935-13.875-6.935h-311.3c-5.121 0-9.939 2.228-13.221 6.134-3.281 3.873-4.686 9.017-3.849 14.026l25.956 155.892c1.404 8.333 8.63 14.46 17.077 14.46h239.503c7.66 0 14.442-5.050 16.589-12.432l45.883-155.89c1.53-5.231 0.518-10.88-2.763-15.253z" />
<glyph unicode="&#xe918;" glyph-name="calendar-with-a-clock-time-tools" d="M128.001 799.997v128.003c0 17.69 14.311 32 32.004 32 17.685 0 31.996-14.311 31.996-32v-128.003c0-17.685-14.311-31.996-31.996-31.996-17.694-0.002-32.004 14.311-32.004 31.996zM672.008 767.998c17.681 0 32 14.311 32 31.996v128.005c0 17.69-14.319 32-32 32-17.69 0-32.011-14.311-32.011-32v-128.003c0-17.685 14.321-31.998 32.011-31.998zM1024 192.006c0-141.39-114.621-256.008-256-256.008-141.368 0-255.998 114.619-255.998 256.008 0 141.368 114.627 255.994 255.998 255.994 141.379 0 256-114.623 256-255.994zM960.008 192.006c0 105.861-86.126 191.997-192.006 191.997-105.871 0-191.997-86.135-191.997-191.997 0-105.882 86.126-192.006 191.997-192.006 105.88 0 192.006 86.124 192.006 192.006zM256.004 575.999h-128.003v-127.999h128.003v127.999zM128.001 255.998h128.003v128.005h-128.003v-128.005zM320.001 448h128.005v127.999h-128.005v-127.999zM320.001 255.998h128.005v128.005h-128.005v-128.005zM64.005 198.369v441.632h703.997v-128.003h64.003v249.622c0 38.876-31.006 70.38-69.312 70.38h-26.69v-32.007c0-35.246-28.693-63.998-63.992-63.998-35.309 0-64.001 28.752-64.001 63.998v32.007h-384.010v-32.007c0-35.246-28.687-63.998-63.992-63.998-35.314 0-64.003 28.752-64.003 63.998v32.007h-26.659c-38.308 0-69.344-31.504-69.344-70.38v-563.254c0-38.747 31.036-70.374 69.344-70.374h378.66v64.011h-378.66c-2.9 0.002-5.341 2.997-5.341 6.365zM639.997 448v127.999h-127.993v-127.999h127.993zM864.003 192.006h-96.003v96.003c0 17.679-14.311 31.99-32 31.99s-31.992-14.311-31.992-31.99v-128.014c0-17.681 14.302-32 31.992-32h128.003c17.69 0 32 14.319 32 32 0 17.69-14.311 32.011-32 32.011z" />
<glyph unicode="&#xe919;" glyph-name="car" horiz-adv-x="1248" d="M1236.515 612.59c-2.953 8.596-13.419 15.282-22.157 15.282-37.84 0-75.673 0-113.513 0-8.735 0-19.204-6.686-22.161-15.282-2.889-8.414-5.049-15.922-6.485-22.982l-75.825 209.773c-12.507 34.59-45.627 57.831-82.406 57.831h-579.929c-36.782 0-69.897-23.241-82.41-57.838l-75.827-209.791c-1.439 7.067-3.599 14.583-6.49 23.008-2.953 8.596-13.422 15.282-22.157 15.282-37.838 0-75.673 0-113.513 0-8.735 0-19.204-6.686-22.157-15.282-11.496-33.471-11.49-52.632 0.003-86.105 2.953-8.596 13.422-15.282 22.157-15.282 37.84 0 75.676 0 113.513 0 0.107 0 0.221 0.028 0.33 0.032l-1.713-4.743c-23.146-7.69-39.857-29.48-39.857-55.209v-384.522c0-15.452 12.522-27.974 27.974-27.974h140.792c15.449 0 27.974 12.522 27.974 27.974v136.181h642.686v-136.181c0-15.452 12.525-27.974 27.974-27.974h140.792c15.452 0 27.974 12.522 27.974 27.974v384.522c0 25.724-16.705 47.51-39.841 55.206l-1.715 4.747c0.105-0.003 0.214-0.028 0.317-0.028 37.84 0 75.673 0 113.513 0 8.738 0 19.204 6.686 22.157 15.282 11.493 33.471 11.486 52.632-0.003 86.102zM344.752 754.266h558.426l88.478-244.779h-735.38l88.476 244.779zM360.327 337.047h-117.785c-25.27 0-45.753 20.483-45.753 45.753 0 25.268 20.479 45.753 45.753 45.753h117.785c25.268 0 45.753-20.483 45.753-45.753 0.003-25.27-20.485-45.753-45.753-45.753zM1005.453 337.047h-117.785c-25.268 0-45.753 20.483-45.753 45.753 0 25.268 20.485 45.753 45.753 45.753h117.785c25.27 0 45.753-20.483 45.753-45.753s-20.483-45.753-45.753-45.753z" />
<glyph unicode="&#xe91a;" glyph-name="user" d="M749.449 722.551c0-131.14-106.31-237.449-237.449-237.449s-237.449 106.31-237.449 237.449c0 131.14 106.31 237.449 237.449 237.449s237.449-106.31 237.449-237.449zM512 366.377c-237.691 0-430.377-192.686-430.377-430.377h860.754c0 237.691-192.686 430.377-430.377 430.377z" />
<glyph unicode="&#xe91c;" glyph-name="check-mark" d="M804.571-64h-585.143c-120.978 0-219.429 98.45-219.429 219.429v585.143c0 120.978 98.45 219.429 219.429 219.429h365.714c40.448 0 73.143-32.768 73.143-73.143s-32.695-73.143-73.143-73.143h-365.714c-40.375 0-73.143-32.841-73.143-73.143v-585.143c0-40.302 32.768-73.143 73.143-73.143h585.143c40.375 0 73.143 32.841 73.143 73.143v219.429c0 40.375 32.695 73.143 73.143 73.143s73.143-32.768 73.143-73.143v-219.429c0-120.978-98.45-219.429-219.429-219.429zM597.285 240.786c-25.6 0-50.395 10.167-68.827 28.599l-195.145 195.072c-38.034 38.107-38.034 99.84 0 137.874 38.107 38.107 99.84 38.107 138.021 0l103.57-103.643 254.171 398.994c26.112 47.104 85.577 64.146 132.681 37.961 47.031-26.185 64-85.577 37.888-132.608l-317.001-512c-14.848-26.77-41.399-44.983-71.68-49.225-4.681-0.731-9.070-1.024-13.678-1.024z" />
<glyph unicode="&#xe91d;" glyph-name="logo" horiz-adv-x="919" d="M427.89 956.121c20.687 0 41.374 0 62.061 0 5.689-0.905 11.507-1.681 17.196-2.586 19.006-3.103 38.271-5.172 56.889-9.697 41.244-9.956 80.291-25.6 117.139-47.063 46.545-27.152 87.143-61.285 121.147-102.917 25.083-30.513 45.64-64 61.931-100.331 21.721-48.226 34.392-98.78 37.624-151.402 1.81-30.255 2.327-60.897-3.491-91.022-4.525-23.402-9.18-46.804-15.386-69.818-8.663-32.194-23.014-62.19-39.434-91.022-15.515-27.281-33.745-52.752-55.079-75.507-14.481-15.386-30.384-29.737-46.158-43.83-22.497-19.911-47.709-35.943-74.214-50.166-27.281-14.61-55.725-26.376-85.592-34.909-1.293-0.388-2.457-1.422-3.362-2.457-9.956-11.895-19.911-23.919-29.867-35.814-11.507-13.705-23.014-27.41-34.521-41.115-12.541-14.998-25.083-29.996-37.495-45.123-5.818-6.982-11.248-14.222-16.937-21.463-0.905 0-1.681 0-2.586 0-1.552 2.198-2.974 4.655-4.784 6.723-13.705 16.291-27.41 32.582-40.986 48.873-12.283 14.739-24.307 29.608-36.59 44.218-12.024 14.481-24.048 28.832-36.202 43.055-1.034 1.164-2.327 2.586-3.749 2.974-33.616 9.697-65.552 23.531-96.065 40.727-28.444 16.032-55.079 34.78-78.739 57.147-17.455 16.549-33.616 34.78-49.39 53.010-17.584 20.299-31.418 43.184-44.089 66.844-16.032 30.125-28.574 61.673-37.366 94.642-7.499 27.927-12.412 56.372-13.834 85.204-1.164 21.851-0.388 43.83 1.293 65.681 1.422 19.394 3.879 38.917 8.016 57.923 9.18 42.149 24.178 82.23 45.123 120.113 17.584 31.806 38.659 61.026 63.354 87.402 14.222 15.515 30.384 29.479 46.416 43.184 28.703 24.436 60.897 43.701 95.289 59.216 43.313 19.523 88.436 32.453 135.758 36.719 5.56 0.517 11.119 1.681 16.679 2.586zM453.102 152.824c100.59 0.776 183.337 33.099 252.251 98.133 71.37 67.362 109.253 151.143 112.614 249.406 3.491 102.141-31.289 190.836-102.4 263.758-66.586 68.396-149.204 105.115-244.752 107.701-212.816 5.56-365.123-161.616-371.2-345.212-3.362-100.978 29.608-189.414 99.426-262.465 70.465-73.438 157.737-110.028 254.061-111.321zM497.191 549.495c-0.905-13.705-5.43-25.471-15.257-35.038-10.731-10.473-22.109-20.428-31.547-32.065-9.051-10.99-19.653-18.747-32.84-22.885-5.042-1.552-10.99-2.457-16.032-1.293-17.584 4.267-35.038 9.438-52.493 14.481-12.541 3.62-24.954 7.628-37.495 11.378-11.766 3.62-21.721 9.826-29.479 19.653-3.879 4.913-9.051 8.663-13.059 13.446-3.879 4.525-7.758 9.18-10.214 14.481-11.248 23.273-21.851 46.804-33.228 69.947-9.568 19.782-9.438 38.659 3.232 57.018 1.164 1.681 2.586 3.362 4.137 4.913 19.135 19.265 38.529 38.271 57.535 57.665 13.834 14.222 38.659 18.36 56.501 10.085 26.764-12.412 53.398-24.954 79.774-37.883 5.042-2.457 9.18-6.853 13.705-10.343 20.040-15.644 30.642-36.719 36.719-61.026 4.525-18.23 11.119-35.943 16.42-53.915 1.681-5.947 2.457-12.412 3.62-18.618zM260.843 627.588c0-11.895 5.172-20.040 14.998-24.566 10.473-4.913 20.040-2.844 28.057 4.784 14.352 13.705 28.186 27.927 42.020 42.020 8.016 8.145 10.343 17.455 5.818 28.444-6.465 15.774-25.859 19.911-37.366 12.024-8.921-6.077-16.032-14.998-23.919-22.626-5.689-5.43-10.99-11.248-16.808-16.549-7.111-6.594-13.317-13.705-12.8-23.531zM554.468 400.291c0 8.792-0.646 17.455 0.129 25.988 0.776 8.921-1.939 15.386-8.792 21.204-7.37 6.206-13.576 13.834-20.816 20.299-4.267 3.879-4.784 7.887-3.62 13.188 0.517 2.586 0.388 6.335-1.034 8.145-4.655 5.689-10.085 10.861-15.386 16.291-22.626-22.368-44.477-43.96-66.974-66.198 4.655-4.525 8.792-7.628 12.024-11.636 3.362-4.137 7.758-5.301 12.024-3.749 8.663 2.974 14.481-0.388 20.428-6.335 39.693-39.822 79.386-79.515 119.337-119.079 2.198-2.198 6.206-3.749 9.309-3.879 8.792-0.129 17.455 0.646 26.246 1.034 2.844 0.129 5.818 0 9.568 0-0.646 8.275-2.715 15.774-1.552 22.756 2.457 15.386-4.267 25.729-15.515 34.521-1.293 1.034-2.586 2.327-3.62 3.62-3.879 5.301-8.792 5.818-14.739 4.267-4.784-1.164-9.956-1.293-15.644-1.81 1.939 16.549 3.879 32.453 5.818 48.873-16.549-2.586-31.418-5.042-47.192-7.499z" />
<glyph unicode="&#xe91e;" glyph-name="111" horiz-adv-x="1406" d="M365.557 930.271c-46.979-48.814-79.277-112.677-79.277-156.72 0-16.883-1.468-19.085-33.766-56.889-18.351-21.654-34.133-38.538-34.867-38.171-0.367 0.734 6.239 17.617 15.048 37.804 22.756 51.751 28.995 74.873 27.16 102.767-1.101 18.351-3.67 26.426-12.112 38.905-6.239 8.442-12.479 15.415-14.314 15.415-1.468 0.367-6.239-7.708-10.277-17.984-4.037-9.91-15.782-36.335-26.059-58.724-18.718-39.272-19.085-41.107-19.085-73.405 0-28.261 1.468-35.968 9.91-53.953l9.91-20.92-16.516-28.628c-9.176-15.782-19.085-38.171-22.389-49.548-3.303-11.745-6.973-21.287-8.442-21.287s-0.734 11.011 1.101 24.958c1.835 13.58 2.569 37.804 1.835 54.32-1.468 25.692-3.67 34.133-17.617 63.862-11.011 22.756-20.186 37.070-28.261 43.309-6.973 4.771-12.846 8.442-13.58 7.708-5.872-6.239-13.213-46.612-13.213-72.304 0-52.852 15.782-96.528 46.612-129.56l16.516-17.617-4.771-44.043c-2.569-24.224-5.872-43.309-6.973-42.575-1.468 0.734-3.67 13.58-4.771 28.628-3.303 44.777-23.123 77.075-65.33 104.969-12.479 8.442-23.857 15.048-25.325 15.048-1.835 0-1.835-5.505 0-11.745 1.835-6.606 4.771-31.197 6.973-54.687 6.606-68.634 9.176-74.506 51.751-113.778l36.335-33.766 8.809-38.905c5.138-21.287 8.809-39.272 8.075-40.006-0.367-0.734-12.112 16.149-25.692 37.437-34.133 53.953-54.32 70.469-100.565 84.416-11.011 3.303-20.553 5.872-21.287 5.872-0.367 0 6.606-11.011 15.415-24.591 9.176-13.58 22.022-38.538 28.261-55.054 17.25-45.878 25.692-53.586 69.001-67.166 19.819-6.239 39.272-13.947 43.676-17.617 4.037-3.303 17.984-24.224 30.83-46.612 12.479-22.022 26.426-45.144 30.096-51.384l6.973-11.011-11.011 9.176c-5.872 5.138-24.224 22.022-40.373 37.437-36.703 34.867-58.357 45.878-103.868 51.384-18.351 2.202-34.5 2.936-35.968 1.468-8.075-7.708 34.867-56.155 77.809-88.086 25.325-18.351 38.538-22.756 83.682-25.692 17.617-1.101 37.070-4.404 42.942-6.973 5.872-2.202 26.426-19.819 45.878-38.905 19.452-18.718 34.133-33.399 32.298-33.032-1.468 0.734-21.287 10.644-43.676 22.022-55.788 28.628-102.033 35.234-149.746 22.389-10.277-2.936-9.91-3.303 25.692-27.527 38.171-25.325 82.581-47.713 103.501-51.751 6.973-1.101 29.729 0.367 50.649 3.67 35.601 5.505 39.272 5.505 57.256-0.367 20.186-6.606 85.15-38.171 83.315-40.373-0.734-0.734-22.756 2.202-48.447 6.606-55.421 8.809-73.772 7.341-123.687-12.479l-31.197-12.112 18.351-2.936c10.277-1.835 37.437-7.708 60.559-13.213l42.208-9.91 339.498-1.101c217.646-0.734 348.307 0.367 363.722 2.936 13.213 1.835 33.766 8.075 45.878 13.213 11.745 5.505 30.096 11.011 40.006 12.112l18.351 2.569-14.681 6.606c-47.713 20.92-97.629 26.059-148.645 15.415-15.048-3.303-28.995-5.872-31.197-5.872-1.835 0 16.149 9.543 40.373 21.287l43.676 21.287 31.564-4.771c60.926-9.176 80.011-4.404 127.358 30.096 17.617 13.213 41.841 28.995 53.953 34.867l21.287 10.644-13.947 2.569c-24.591 5.138-75.24 3.303-98.363-3.67-22.022-6.606-58.357-23.857-82.948-39.272-6.973-4.771 3.67 7.708 23.857 27.16 32.665 31.564 38.171 35.234 50.282 35.601 24.958 0 74.139 11.745 96.528 22.756 16.516 8.075 33.032 22.022 65.33 55.054 23.49 24.224 42.942 45.511 42.942 47.713 0 2.569-8.809 2.936-26.426 1.468-72.304-6.973-119.283-32.298-153.784-83.682-16.149-23.857-24.224-27.16-9.543-4.037 5.138 7.708 18.351 30.096 29.729 49.915 23.857 40.74 28.261 44.043 77.075 61.66 44.777 16.516 57.623 28.995 80.746 82.214 9.543 22.389 20.553 45.878 24.591 52.852 4.037 6.606 6.606 12.846 5.872 13.58-3.303 3.303-55.054-16.883-71.937-27.894-32.665-20.553-57.256-53.953-71.57-96.895-1.468-3.67-2.936-6.239-3.67-5.505s2.936 21.287 8.442 45.144l9.543 43.676 19.819 16.883c11.378 9.176 28.628 25.325 38.905 35.234 19.085 18.718 22.756 27.527 34.867 82.581 3.67 17.984 5.138 67.166 1.468 70.469-3.303 3.67-33.399-15.048-48.814-30.463-18.718-19.085-32.665-46.979-37.437-77.075-6.606-37.070-7.341-36.703-14.681 5.505l-6.973 40.006 19.819 18.718c33.399 31.564 33.399 31.931 33.399 125.523 0 77.809-0.367 81.48-6.606 77.809-15.782-8.075-35.234-30.096-43.309-48.080-8.075-17.617-8.809-23.49-8.809-84.416 0-38.171-1.101-61.66-2.936-56.889s-13.213 28.628-25.325 53.219c-24.591 49.548-24.591 45.878-4.771 91.022 17.25 39.639 15.415 56.155-13.213 105.336-10.277 18.351-22.022 40.74-25.692 50.282l-6.239 16.883-4.404-11.011c-2.202-5.872-7.708-24.958-11.745-42.208-6.606-27.527-6.973-34.133-3.303-54.687 2.569-13.213 10.277-36.335 17.25-51.384s12.112-27.527 11.745-27.894c-0.734-0.734-16.516 15.782-34.867 36.335l-34.133 37.070v40.74c0 54.687-5.505 65.33-60.926 118.549-23.123 22.389-43.676 40.74-45.144 40.74-4.771 0-11.378-27.16-11.378-46.245 0-28.261 13.58-51.751 52.118-91.756 41.841-43.676 30.83-39.272-19.085 7.708-42.208 39.272-54.32 45.511-120.017 58.724-77.442 16.149-129.56 19.819-129.56 9.543 0-1.468 11.745-14.681 26.059-28.995 46.245-46.612 89.554-62.394 180.209-65.697l57.99-2.202 18.351-13.213c9.91-7.341 18.351-14.314 18.351-15.415s-20.92 2.936-46.612 8.809c-62.027 13.947-81.113 12.479-125.89-8.442-17.984-8.809-33.032-17.25-33.032-18.718 0-4.404 63.128-23.857 98.73-30.463 45.144-8.809 53.953-7.708 97.262 10.277l38.538 16.149 28.628-30.096c15.782-16.883 31.564-35.601 35.234-41.841l6.606-11.378-19.452 6.606c-10.644 4.037-31.931 12.479-46.979 18.718-19.452 8.809-35.234 12.479-53.953 13.947-23.49 1.468-77.809-4.037-91.756-9.176-8.075-2.936 48.814-35.234 86.985-49.181 38.171-14.314 93.224-18.351 121.852-9.543l17.25 5.505 9.543-12.479c12.479-16.516 30.096-54.687 33.399-73.038l2.569-14.314-23.49 19.085c-59.825 48.447-84.783 59.458-142.773 62.027l-38.538 1.468 28.628-27.894c51.384-50.282 95.427-72.671 153.784-77.809l30.463-2.936 4.404-17.984c2.569-9.91 5.505-36.335 6.973-58.724l2.569-40.74-9.543 8.809c-5.505 4.771-20.553 24.224-34.133 42.942-36.703 52.118-56.155 66.432-102.767 75.974-13.947 2.936-25.692 4.771-26.426 4.404-1.835-1.468 46.612-76.341 60.926-93.958 23.857-29.729 64.596-54.687 89.921-54.687 15.782 0 17.617-4.037 13.213-27.894-4.037-22.022-20.92-84.783-24.591-91.022-1.101-1.835-6.606 13.947-12.112 35.234-16.883 64.596-35.601 93.224-78.176 120.017-18.351 11.378-26.426 14.314-22.389 7.708 1.101-1.835 7.708-27.894 14.681-58.357 6.606-30.096 16.516-62.761 21.654-72.671 10.277-20.186 31.197-41.107 49.181-48.447 6.239-2.569 11.745-6.973 11.745-9.176 0-2.569-5.505-13.213-12.479-24.224s-17.984-29.729-24.224-41.107c-5.872-11.745-12.479-21.287-13.947-21.287s-2.569 26.059-2.569 57.99c0 52.485-0.734 59.458-8.809 77.075-8.809 19.085-37.437 49.548-50.649 52.852-5.872 1.468-6.606-1.101-6.606-27.894-0.367-16.516-1.835-44.777-3.303-62.761-4.037-40.74 0.734-53.953 32.298-91.022 11.378-13.58 20.553-25.692 20.553-27.527 0-6.606-77.442-74.139-85.15-74.139-1.101 0 5.138 19.452 14.314 42.942 16.516 42.208 16.516 43.676 12.846 65.697-4.037 24.591-25.692 78.91-32.298 81.113-5.138 1.835-24.958-41.841-32.665-72.671-8.809-33.766-8.075-77.075 1.468-104.235 4.404-12.112 8.809-24.591 9.91-27.894 2.936-8.809-93.591-59.825-100.565-52.852-1.101 0.734 4.771 10.277 12.846 20.92 48.447 63.495 61.293 102.033 46.979 142.406-9.543 27.16-12.479 28.261-25.325 8.442-6.606-9.91-21.654-30.096-33.766-45.511-12.479-15.415-26.426-35.968-31.197-45.878-11.011-23.123-13.213-53.953-5.505-72.671 3.303-7.708 5.872-14.681 5.872-15.415s-90.655-1.468-201.864-1.468h-201.864v26.059c0 53.586-23.123 109.006-66.799 158.922l-12.112 13.947-9.176-15.782c-13.947-25.325-12.479-56.522 4.037-91.756 7.341-14.681 22.389-39.639 33.766-54.687 11.378-14.681 20.186-27.527 19.452-28.261-1.835-2.202-101.299 46.245-101.299 49.181 0 1.468 5.872 18.351 13.213 37.070 18.351 47.713 17.25 65.33-8.442 120.017-10.277 22.389-19.819 44.41-21.287 48.814l-2.569 8.809-8.809-8.442c-28.995-27.16-32.298-70.102-11.011-142.406 7.341-24.958 12.846-45.878 12.112-46.612-1.468-1.468-69.735 58.724-80.746 71.203-6.606 7.341-6.606 7.708 8.442 26.793 29.362 37.437 30.463 41.474 33.032 117.081 1.468 37.437 2.202 68.267 1.468 69.001-1.468 2.202-30.096-48.814-39.272-70.836-13.58-32.298-20.553-59.091-23.857-89.554l-2.569-27.16-13.213 19.819c-15.782 24.224-41.474 69.368-39.639 70.469 0.734 0.367 9.543 4.771 19.085 9.543 35.234 17.617 52.852 48.814 72.304 127.358 5.872 24.591 12.112 47.346 13.213 51.016 2.202 5.138-1.835 4.037-19.819-5.505-55.054-28.995-84.416-73.772-91.022-137.634-1.468-13.213-3.67-23.857-5.138-23.857-3.67 0-24.958 71.203-28.628 96.161l-3.303 21.287 13.213 2.202c45.878 7.708 82.948 30.83 111.943 70.836 11.011 15.048 42.575 71.203 42.575 75.607 0 4.037-22.756 1.468-45.144-5.505-47.713-14.681-85.517-48.814-107.171-96.528-10.644-22.389-16.516-28.995-16.516-17.984 0 9.543 11.011 108.639 12.112 109.006 0.367 0.367 15.782 2.202 34.133 4.404 42.942 5.138 64.963 15.782 102.033 48.447 16.149 14.314 38.905 30.83 50.649 37.070s21.287 12.846 21.287 15.048c0 4.771-50.649 4.037-74.139-0.734-28.995-6.239-53.219-19.452-91.389-49.548-18.718-14.681-34.5-26.426-35.234-26.059-0.367 0.734 4.771 15.782 11.745 34.133 12.846 31.931 28.628 60.192 34.133 60.192 1.468 0 22.389-2.569 46.612-6.239l44.41-6.239 49.181 23.123c27.16 12.479 58.724 27.527 69.735 33.399l20.186 10.277-17.984 8.442c-40.006 17.617-81.113 12.846-152.682-17.984-23.123-9.91-42.942-17.617-43.676-16.883-2.936 2.569 40.74 56.522 55.421 69.001l14.681 12.112 20.92-8.442c48.080-19.452 114.145-20.553 181.677-3.303 20.186 4.771 37.070 9.91 38.171 11.011 2.202 2.202-26.059 14.314-60.559 26.059-33.032 11.011-65.697 11.378-115.613 1.468-20.186-4.404-37.437-6.973-38.171-6.606-0.734 0.734 7.341 8.075 17.984 16.149l19.085 15.048 56.889 2.202c31.197 1.101 68.267 4.771 82.214 7.708 29.729 6.606 66.799 23.49 86.618 38.905 13.213 10.277 36.703 41.474 36.703 48.447 0 5.505-28.261 3.303-81.847-6.606-119.65-21.287-139.837-29.362-180.576-71.203-13.947-14.314-30.463-29.729-36.703-33.766-5.872-4.404 0 3.67 13.213 17.617 34.5 36.335 49.548 55.788 60.559 80.011 8.075 17.617 9.543 24.958 8.075 44.777-2.202 36.703-5.872 37.070-37.437 4.771z" />
<glyph unicode="&#xe91f;" horiz-adv-x="2129" d="M1065.224-64.824c-353.536 0-707.071 0-1060.607 0-3.133 0-3.793 0.66-3.793 3.793 0 338.86 0 677.72 0 1016.58 0 3.133 0.66 3.793 3.793 3.793 707.071 0 1414.307 0 2121.378 0 3.133 0 3.793-0.66 3.793-3.793 0-338.86 0-677.72 0-1016.58 0-3.133-0.66-3.793-3.793-3.793-353.7 0-707.236 0-1060.772 0z" />
<glyph unicode="&#xe920;" horiz-adv-x="2129" d="M1543.585 325.813c17.644 2.968 34.958 6.926 52.437 10.883 72.389 16.325 143.294 37.101 212.385 64.309 13.851 5.442 27.702 11.213 41.224 17.644 3.133 1.484 3.793 0.989 3.793-2.473-0.33-16.819-4.782-32.484-12.697-47.325-13.027-24.405-31.825-44.027-53.261-61.011-33.968-27.043-72.059-47.16-111.799-64.309-47.49-20.612-96.958-35.782-146.592-49.963-46.665-13.357-93.496-26.053-140.491-38.421-1.154-0.33-2.309-0.824-3.793-0.495 0.66 1.484 1.319 2.803 1.814 4.287 57.878 123.342 44.027 266.801-36.277 376.786-1.979 2.803-2.968 5.442-2.803 9.069 0.165 7.255 0.165 14.511-0.165 21.766-0.165 3.298 0.824 4.452 3.793 5.112 31 6.761 61.836 14.016 92.506 21.601 144.283 35.782 285.434 80.469 421.472 140.986 67.607 30.011 132.906 64.474 193.917 106.357 17.149 11.872 33.968 24.24 49.304 38.586 2.803 2.638 3.298 1.154 3.957-1.319 5.606-18.138 6.266-36.442 3.793-55.075-5.442-40.894-25.229-74.698-52.602-104.709-27.702-30.506-61.011-54.086-96.464-74.533-37.596-21.601-77.171-38.586-117.735-53.756-98.937-37.101-199.523-68.761-300.439-99.762-0.989-0.33-1.814-0.66-2.803-0.824-0.824-0.989-2.144-0.989-3.133-1.319-1.154-0.165-2.309-0.495-3.463-0.66-0.989-0.66-2.144-0.824-3.298-0.989-0.495-0.33 0.495-0.66 0.165-0.165 0.989 0.66 2.473 0.165 3.298 0.989 1.319 0.165 2.638 0.495 4.122 0.824 1.319 0.824 2.803-0.33 4.122 0.495 18.633 3.628 37.431 7.090 56.064 11.048 82.942 17.479 164.73 39.41 244.87 67.442 44.357 15.5 87.889 32.649 129.278 55.075 2.803 1.484 3.298 0.989 3.463-1.979 0.66-21.766-5.936-41.719-15.995-60.681-15.17-28.362-36.772-51.118-61.506-71.235-37.761-30.835-79.809-54.415-124.496-73.214-77.006-32.484-154.837-62.33-234.811-87.065-0.66-0.165-1.319-0.495-1.979-0.66-0.989-1.154-2.638-0.989-3.957-1.649 1.484 0.33 3.133 0.165 4.782 0.33z" />
<glyph unicode="&#xe921;" horiz-adv-x="2129" d="M583.565 326.637c-82.448 25.724-162.917 56.229-242.231 90.198-43.862 18.798-85.251 42.543-122.187 73.049-23.58 19.623-44.192 41.554-58.868 68.761-10.224 18.963-16.654 38.915-16.16 60.681 0 1.814-0.66 4.617 3.133 2.638 46.5-25.229 95.639-43.862 145.603-60.681 86.075-29.022 173.965-51.612 263.173-68.761 7.255-1.484 14.511-2.803 21.766-4.122 1.484-0.66 3.133 0.165 4.782-0.33 0.989-0.66 2.144-0.824 3.298-0.824 1.154-0.33 2.309-0.66 3.298-0.989-1.154 0.33-2.144 0.66-3.298 0.989-1.154 0-2.309 0.165-3.298 0.824-1.154 0-2.309 0.33-3.133 1.154-36.112 11.213-72.224 22.426-108.336 33.804-60.517 19.293-120.703 39.245-180.231 61.011-52.437 19.293-104.049 40.729-151.374 70.905-32.979 20.942-63.485 45.016-88.054 75.522-21.766 27.208-37.266 57.219-41.883 92.341-2.309 17.974-1.649 35.947 3.463 53.591 0.495 1.484 0.989 2.803 1.319 3.957 0.824 0.495 1.319 0.165 1.649-0.165 31.66-28.692 67.277-51.777 103.719-73.543 71.894-42.873 147.911-77.501 225.907-108.006 112.953-44.357 228.71-78.985 346.445-107.842 27.373-6.761 55.075-12.862 82.613-19.128 3.133-0.66 4.122-1.814 3.793-5.112-0.66-7.75-0.66-15.665-0.165-23.415 0.165-2.309-0.495-4.122-1.979-6.101-35.617-48.149-58.538-101.905-67.772-161.103-11.872-75.357-1.814-147.911 30.671-217.167 0.66-1.319 1.154-2.473 1.649-3.793-1.814-0.989-3.298 0.165-4.782 0.495-70.74 18.963-141.81 37.431-211.561 60.187-48.809 15.83-96.134 35.123-140.491 61.176-28.032 16.49-54.415 35.123-76.182 59.857-15.335 17.479-27.702 36.607-33.144 59.527-1.814 7.75-2.638 15.665-2.144 23.91 0.989-0.33 1.814-0.66 2.473-0.989 63.485-29.022 129.773-50.458 197.215-68.267 35.288-9.399 70.905-17.314 106.687-24.405 0.989-0.165 1.979-0.165 2.803-0.33 0.495-0.33 0.989-0.33 1.484-0.165s0.989-0.165 1.484 0c-0.33-0.165-0.66 0.165-1.154 0.66z" />
<glyph unicode="&#xe922;" horiz-adv-x="2129" d="M1390.892 318.392c0-180.725-146.922-327.812-327.977-327.812-182.044 0.165-327.317 146.757-327.977 326.163-0.66 182.869 145.932 329.791 327.812 329.956 181.22 0 328.142-146.757 328.142-328.307z" />
<glyph unicode="&#xe923;" horiz-adv-x="2129" d="M1613.501 894.866c-32.484-1.154-65.134-2.473-97.618-3.463-151.704-4.617-303.243-5.936-454.946-6.101-127.629 0-255.258 1.154-382.887 4.122-56.394 1.319-112.624 2.968-168.853 5.112-0.989 0-1.979 0.165-2.803 0.165-1.154 0.989-2.968-0.33-4.122 0.989 0 0.824 0.66 0.989 1.154 0.989 8.904-0.165 17.809 0.66 26.713 0.824 12.532 0.165 25.229 0.824 37.761 1.154 8.41 0.33 16.654-0.165 25.064 0.66 9.894 0.989 19.787 0 29.516 0.824 9.729 0.989 19.458-0.165 29.186 0.824 12.697 1.154 25.559-0.165 38.256 0.824 12.862 0.989 25.724-0.165 38.586 0.824 16.49 1.319 32.979-0.165 49.304 0.824 18.468 1.154 37.101-0.165 55.57 0.824 28.692 1.484 57.384 0.165 86.075 0.824 87.395 1.814 174.624 0.33 262.019 0.824 7.585-0.824 15.335-0.495 22.92-0.66 22.426-0.33 44.852 0.495 67.112-0.33 20.777-0.66 41.389 0.165 62.166-0.824 16.49-0.66 32.979 0 49.304-0.824 14.676-0.824 29.351-0.165 44.027-0.824 20.777-0.824 41.719-0.989 62.495-1.649 18.798-0.495 37.596-1.154 56.229-1.649 15.665-0.495 31.495-1.319 47.16-1.484 3.957 0 7.915-1.154 11.872-0.824 3.793 0 7.585 0 11.378 0 1.319-0.495 0.824-1.154 0-1.484s-1.814 0.165-2.638-0.495z" />
<glyph unicode="&#xe924;" horiz-adv-x="2129" d="M1122.772 766.578c0 15.005 0.165 30.011 0 44.852 0 3.957 0.989 5.442 5.112 5.277 8.080-0.165 16.16-0.165 24.24 0 3.298 0 4.617-1.154 4.452-4.617-0.165-10.059 0.165-20.117-0.165-30.011-0.165-4.122 1.319-5.112 5.277-5.112 7.255 0.33 14.511 0 21.766 0.165 3.463 0.165 5.112-0.989 4.947-4.617-0.165-3.463-0.165-6.926 0-10.224 0.165-3.463-1.154-4.947-4.782-4.782-7.75 0.165-15.335 0-23.085 0.165-2.968 0-4.122-0.989-4.122-3.957 0.165-11.048 0-21.931 0.165-32.979 0-3.463-1.154-4.287-4.287-4.287-8.41 0.165-16.819 0.165-25.064 0-3.298 0-4.452 0.989-4.452 4.452 0.165 15.17 0 30.341 0 45.676z" />
<glyph unicode="&#xe925;" horiz-adv-x="2129" d="M1303.333 766.413c0-15.17-0.165-30.506 0-45.676 0-3.463-1.154-4.452-4.452-4.452-8.41 0.165-16.819 0.165-25.064 0-3.133 0-4.287 0.824-4.287 4.287 0.165 30.506 0.165 61.011 0 91.352 0 3.628 1.154 4.947 4.782 4.782 8.245-0.165 16.49-0.165 24.734 0 3.463 0 4.452-1.154 4.452-4.617-0.33-15.17-0.165-30.506-0.165-45.676z" />
<glyph unicode="&#xe926;" horiz-adv-x="2129" d="M1060.772 765.753c0-15.17-0.165-30.176 0-45.346 0-3.298-1.154-4.287-4.287-4.287-8.575 0.165-16.984 0.165-25.559 0-2.803 0-4.122 0.824-4.122 3.957 0.165 30.671 0.165 61.506 0 92.176 0 2.968 1.154 4.287 4.122 4.122 8.575 0 16.984-0.165 25.559 0 3.133 0 4.287-1.154 4.287-4.452 0-15.005 0-30.671 0-46.171z" />
<glyph unicode="&#xe927;" horiz-adv-x="2129" d="M1531.713 766.248c0-15.17-0.165-30.506 0-45.676 0-3.298-1.154-4.287-4.287-4.287-8.41 0.165-16.819 0.165-25.064 0-3.298 0-4.617 0.824-4.617 4.452 0.165 30.506 0.165 61.011 0 91.352 0 3.463 1.154 4.617 4.452 4.617 8.41-0.165 16.819-0.165 25.064 0 3.133 0 4.287-1.154 4.287-4.287 0-15.335 0.165-30.835 0.165-46.171z" />
<glyph unicode="&#xe928;" horiz-adv-x="2129" d="M1187.906 716.285c-7.42 0-14.841 0-22.261 0-2.968 0-4.287 0.824-4.122 4.122 0.165 4.122 0.165 8.245 0 12.367 0 2.803 1.154 3.957 3.957 3.957 3.628-0.165 7.42 0 11.048 0 2.968-0.165 4.122 0.989 4.122 4.122 0 5.936 0.165 5.936 6.266 5.936 7.75 0 15.335-0.165 23.085 0 2.803 0 4.122-0.66 3.957-3.628-0.165-7.75-0.165-15.665 0-23.415 0-2.638-0.989-3.298-3.463-3.298-7.42-0.165-15.005-0.165-22.591-0.165z" />
<glyph unicode="&#xe929;" horiz-adv-x="2129" d="M692.89 816.706c7.255 0 14.511-0.165 21.766 0 2.638 0 4.122-0.66 3.957-3.628-0.165-7.255-0.165-14.511 0-21.766 0-2.638-0.824-3.628-3.628-3.628-7.75 0.165-15.665 0.165-23.415 0-3.133 0-4.452 0.989-4.287 4.287 0 5.606-0.165 5.606-5.936 5.606-3.463 0-6.926 0.165-10.224 0-3.793-0.33-5.112 1.319-4.782 5.112 0.33 3.298 0.165 6.596 0 9.894s1.319 4.287 4.452 4.287c7.255-0.165 14.676-0.165 22.096-0.165z" />
<glyph unicode="&#xe92a;" horiz-adv-x="2129" d="M874.77 715.295c-7.255 0-14.511 0-21.766 0-5.606 0-6.101 0.66-6.101 6.101 0 4.287 0.165 8.575 0 12.697-0.165 3.463 1.484 5.277 4.947 4.947 4.452-0.66 5.277 1.319 5.112 5.277-0.165 15.17-0.165 30.176 0 45.346 0 3.463-0.66 4.947-4.452 4.782-4.617-0.165-5.442 0.989-5.442 5.442s0.165 9.069 0 13.521c-0.165 3.133 1.649 4.617 4.452 4.617 15.995 0 32.155 0 48.149 0 2.638 0 3.463-1.484 3.463-3.628 0-5.442 0-11.048 0-16.49 0-3.463-2.473-4.122-5.112-3.793-3.957 0.495-5.112-1.154-4.947-4.947 0.165-15.335 0.165-30.835 0-46.171 0-3.298 0.824-4.287 4.122-4.122 5.771 0.165 5.936-0.165 5.936-6.101 0-4.122-0.33-8.245 0-12.367 0.33-4.287-1.649-5.442-5.442-5.442-7.75 0.33-15.335 0.33-22.92 0.33z" />
<glyph unicode="&#xe92b;" horiz-adv-x="2129" d="M1181.31 905.42c-83.602 0-167.369 0.33-250.971-0.165-29.022-0.165-57.878 0.165-86.9-0.824-19.293-0.66-38.421 0-57.713-0.824-15.5-0.66-31-0.33-46.5-0.66-26.878-0.66-53.756-1.154-80.634-1.649-19.293-0.495-38.75-0.989-58.043-1.649-17.314-0.495-34.628-0.989-51.777-1.649-15.17-0.495-30.341-1.154-45.676-1.814 0.824-0.824 2.473 0 3.133-1.319-3.298-0.33-6.596-0.165-10.059 0.33-0.824 0.33-2.309-0.66-2.309 1.154 18.303 0.824 36.772 1.814 55.075 2.309 59.033 1.814 118.065 3.628 177.098 4.617 62.825 1.154 125.815 1.979 188.64 2.473 93.496 0.824 186.991 0.66 280.652 0.165 1.814 0 3.463-0.165 5.277-0.33-6.266-0.989-12.862-0.33-19.293-0.165z" />
<glyph unicode="&#xe92c;" horiz-adv-x="2129" d="M1556.777 818.355c1.484 0 2.968 0 4.452 0 15.83 0 15.83 0 26.713-11.872 0.824-0.824 1.814-1.814 2.803-2.473 9.729-7.090 7.42-17.149 6.596-26.713-0.33-3.793-4.122-5.771-6.761-8.080-2.638-2.473-2.638-4.122 0.165-6.101 9.564-6.266 7.090-15.995 6.926-25.064 0-1.319-0.989-2.968-2.144-3.957-5.606-5.606-11.213-11.213-16.819-16.819-1.649-1.649-3.463-2.309-5.936-2.309-10.553 0.165-21.107 0-31.66 0-5.112 0-5.771 0.824-5.771 6.101 0 4.122 0.165 8.245 0 12.367-0.165 2.803 1.154 3.957 3.957 3.957 5.771 0 11.543 0.165 17.314 0 2.638 0 3.628 0.824 3.628 3.463-0.165 3.957-0.165 7.915 0 11.872 0.165 2.803-0.989 3.628-3.628 3.463-5.442-0.165-11.048 0-16.49 0-3.298 0-4.782 1.319-4.782 4.617 0.165 3.793 0.165 7.75 0 11.543 0 2.638 1.154 3.793 3.628 3.793 5.771 0 11.543 0.165 17.314 0 2.968 0 3.957 0.989 3.793 3.793-0.165 3.957-0.165 7.915 0 11.872 0 2.309-0.824 3.133-3.133 3.133-5.442-0.165-11.048 0.165-16.49-0.165-3.628-0.165-5.112 1.484-5.112 4.782 0 4.617 0 9.399 0 14.016 0 3.133 1.649 4.452 4.617 4.452 5.442 0.165 11.048 0.33 16.819 0.33z" />
<glyph unicode="&#xe92d;" horiz-adv-x="2129" d="M1420.573 776.471c0-11.708 0.165-23.415 0-34.958 0-3.298 1.154-4.452 4.287-4.122 0.824 0.165 1.649 0 2.473 0 4.947 0 5.606-0.66 5.771-5.771 0-3.957-0.165-7.915 0-11.872 0.165-3.298-1.484-4.617-4.452-4.617-7.42-0.165-14.841 0-22.261 0-1.649 0-2.803 0.824-3.793 1.979-5.442 5.442-10.883 10.883-16.325 16.325-2.144 2.144-2.473 4.782-2.473 7.585-0.165 19.623-0.165 39.245 0.165 58.868 0 4.122 0 8.080-0.165 12.202 0 5.442 1.484 6.926 6.761 6.926 7.585 0 15.17 0 22.591 0 6.101 0 7.585-1.319 7.585-7.42-0.165-11.708-0.165-23.415-0.165-35.123z" />
<glyph unicode="&#xe92e;" horiz-adv-x="2129" d="M662.22 735.907c0-5.442-0.165-11.048 0-16.49 0.165-3.133-1.319-4.287-4.122-4.287-9.234 0-18.468 0-27.538 0-2.473 0-3.957 0.824-4.122 3.793-0.33 7.915-0.33 15.83-0.165 23.745 0.165 4.782-0.33 9.564-0.33 14.346 0 10.059 0.824 19.952 0.33 30.011-0.33 8.245 0 16.49-0.33 24.569-0.33 5.936 0.66 6.596 6.596 6.596 8.41 0 16.819-0.165 25.064 0 3.463 0 4.617-1.319 4.617-4.617-0.165-10.388 0-20.942-0.165-31.33 0-3.133 0.989-3.957 3.957-3.957 7.42 0.165 14.841 0.165 22.261 0 5.606-0.165 5.936-0.495 5.936-6.101 0-3.628-0.165-7.42 0-11.048 0.33-3.957-1.484-4.947-5.112-4.947-7.585 0.165-15.17 0-22.591 0.165-3.298 0.165-4.782-0.824-4.617-4.452 0.495-5.277 0.33-10.553 0.33-15.995z" />
<glyph unicode="&#xe92f;" horiz-adv-x="2129" d="M1366.982 766.083c0-15.17 0-30.506 0-45.676 0-3.133-0.824-4.452-4.122-4.287-8.575 0.165-16.984 0.165-25.559 0-3.298 0-4.287 1.154-4.287 4.452 0.165 10.388-0.165 20.942 0.165 31.33 0.165 4.287-1.484 5.442-5.442 5.277-5.277-0.33-10.388 0-15.665-0.165-2.968 0-4.122 1.154-3.957 4.122 0.165 4.122 0.165 8.245 0 12.367-0.165 3.133 1.319 4.122 4.122 4.122 5.277-0.165 10.718 0.165 15.995-0.165 3.298-0.165 4.617 0.824 4.617 4.452-0.165 9.729 0 19.458 0 29.186 0 5.442 0.165 5.771 5.936 5.771 7.585 0 15.17 0 22.591 0 5.606 0 5.606 0 5.606-5.442 0-15.005 0-30.176 0-45.346z" />
<glyph unicode="&#xe930;" horiz-adv-x="2129" d="M833.711 766.248c0-15.335-0.165-30.835 0-46.171 0-3.628-1.154-4.947-4.782-4.947-8.575 0.165-16.984 0-25.559 0-5.112 0-5.442 0.495-5.442 5.771 0 10.059-0.165 20.117 0.165 30.011 0.165 4.287-1.319 5.442-5.442 5.277-4.782-0.33-9.564 0-14.346-0.165-3.628-0.165-5.277 0.989-5.112 4.947 0.33 4.122 0.33 8.245 0 12.367-0.33 3.957 1.814 5.112 5.112 5.112 5.112 0 10.224 0.165 15.17 0 3.133-0.165 3.957 0.989 3.957 3.957-0.165 9.729 0 19.458 0 29.186 0 5.771 0.824 6.596 6.266 6.596 8.245 0 16.49 0 24.734 0 5.112 0 5.277-0.165 5.277-5.442 0-15.5 0-31 0-46.5z" />
<glyph unicode="&#xe931;" horiz-adv-x="2129" d="M952.271 766.413c0-15.17 0-30.506 0-45.676 0-5.112-0.66-5.112-5.771-5.771-6.926-0.824-12.037 1.484-16.49 6.761-3.298 4.122-7.42 7.75-11.213 11.378-1.979 1.979-2.803 4.122-2.803 6.926 0 17.809 0 35.617 0 53.591 0 2.309 0.66 4.122 2.473 5.771 5.277 5.112 10.388 10.224 15.5 15.335 2.803 2.803 13.192 4.782 16.654 3.133 2.144-0.989 1.814-3.133 1.814-5.112-0.165-15.17-0.165-30.835-0.165-46.336z" />
<glyph unicode="&#xe932;" horiz-adv-x="2129" d="M1181.31 905.42c6.431 0.165 12.862 0.165 19.293 0.33 26.713-0.165 53.261-0.165 79.974-0.495 30.341-0.33 60.681-0.824 91.022-1.319 77.006-1.319 154.012-3.463 231.018-6.431 0.824 0 1.649-0.165 2.473-0.165 0.33-0.165 0.33-0.33 0.33-0.495s-0.165-0.33-0.165-0.33c-19.787 0.66-39.41 1.484-59.197 2.144-0.495 0-1.154 0-1.649 0-15.5 0.33-31 0.495-46.5 0.989-22.261 0.824-44.357 1.154-66.618 1.814-10.224 0.33-20.282 0.165-30.506 0.66-20.777 0.824-41.389 0.165-62.166 0.989-19.128 0.66-38.091 0-57.219 0.66-32.319 1.319-64.474 0.33-96.794 0.824-0.824 0.165-2.144 0-3.298 0.824z" />
<glyph unicode="&#xe933;" horiz-adv-x="2129" d="M1483.398 776.142c0-12.037 0-24.24 0-36.277 0-2.638-0.824-4.617-2.638-6.596-5.112-4.947-10.224-10.059-15.17-15.17-1.979-2.144-4.287-3.133-7.255-3.133-6.101 0.165-12.367 0.165-18.468 0-3.298 0-4.782 1.154-4.617 4.617 0.165 4.452 0.165 9.069 0 13.521 0 2.638 0.824 3.957 3.793 4.122 8.575 0.33 8.575 0.33 8.575 9.069 0 22.096 0 44.192 0 66.288 0 5.112 0.33 5.442 5.277 5.442 8.41 0 16.819-0.165 25.064 0 3.957 0 5.442-1.484 5.277-5.442 0-11.872 0.165-24.075 0.165-36.442z" />
<glyph unicode="&#xe934;" horiz-adv-x="2129" d="M734.444 766.743c0 15.335 0 30.671 0 46.171 0 5.112 0.33 5.442 5.277 5.442 8.575 0 17.314-0.165 25.889 0 3.463 0 4.617-1.319 4.617-4.617 0-31.495 0-62.825 0-94.32 0-2.968-1.154-4.287-4.122-4.287-9.234 0-18.468 0-27.538 0-3.133 0-4.287 1.484-4.287 4.617 0.165 15.665 0.165 31.33 0.165 46.995z" />
<glyph unicode="&#xe935;" horiz-adv-x="2129" d="M977.005 818.19c10.883 3.298 19.458-3.298 28.032-12.367 5.771-5.936 8.41-11.543 7.915-19.787-0.66-12.697 0.989-10.553-10.883-10.718-6.431-0.165-12.862 0-19.293 0-3.793 0-5.606 1.649-5.442 5.442 0 3.793 0 7.75 0 11.543 0 2.473-0.989 3.463-3.463 3.463-4.452-0.165-9.069 0.165-13.521 0-3.628-0.165-5.112 1.484-5.277 4.782-0.165 4.287-0.165 8.575 0 12.697 0.165 3.298 1.814 4.947 5.277 4.947 4.617-0.165 9.399 0 16.654 0z" />
<glyph unicode="&#xe936;" horiz-adv-x="2129" d="M572.352 747.45c2.309-2.968 1.649-7.090 3.957-10.059 2.803-4.782 4.287-10.059 4.947-15.665 2.144-6.101 1.814-6.596-4.947-6.596-7.915 0-15.995 0-23.91 0-3.133 0-4.947 0.824-6.266 4.452-4.947 14.346-10.553 28.692-15.665 43.038-4.452 12.367-8.575 24.899-12.862 37.266-1.484 4.287-3.133 8.41-4.947 12.532s-0.33 6.761 4.122 6.761c8.575 0 17.314-0.165 25.889 0 3.793 0 6.101-1.979 6.926-5.112 2.638-9.729 7.090-18.798 9.399-28.527-0.33-0.33-0.66-0.33-1.154-0.33-0.495 0.33-0.989 0.66-1.319 1.319-0.165 0.33-0.33 0.66-0.495 1.154-2.473 8.41-6.101 16.325-8.575 24.734-0.33 1.319-0.989 2.473-2.144 3.463-0.33 0.165-0.66 0.33-0.989 0.495-3.298 0.33-6.596 0.165-9.894 0-5.112-1.319-10.388-0.495-15.665-0.66-4.452-0.165-4.782-0.33-3.298-4.452 3.793-10.059 7.255-20.447 11.213-30.506 2.803-7.090 5.112-14.181 7.255-21.436 2.968-7.42 5.277-15.005 8.245-22.261 0.33-0.989 0.824-1.979 1.154-2.968 1.814-4.287 3.463-8.575 4.947-13.027 0.824-2.473 2.144-3.957 5.112-3.793 7.42 0 14.841 0 22.261 0 2.968 0 4.122 0.824 3.133 3.957-1.319 4.122-2.638 8.080-4.122 12.037-1.154 3.957-3.133 7.75-3.628 12.037 0.165 0.66 0.495 1.484 1.319 2.144z" />
<glyph unicode="&#xe937;" horiz-adv-x="2129" d="M1188.401 817.036c7.255 0 14.511-0.165 21.766 0 2.803 0 3.957-0.989 3.957-3.793-0.165-7.42-0.165-14.841 0-22.261 0-2.638-0.989-3.628-3.628-3.463-8.080 0.165-16.16 0.165-24.24 0-3.133 0-3.957 1.319-3.957 4.122 0 5.606-0.165 5.606-5.936 5.606-3.628 0-7.090 0.165-10.718 0-3.133-0.165-4.617 0.989-4.452 4.287 0.165 3.133 0 6.266 0 9.399 0 5.606 0.33 5.936 6.101 5.936 7.255 0.165 14.181 0.165 21.107 0.165z" />
<glyph unicode="&#xe938;" horiz-adv-x="2129" d="M692.56 716.12c-7.42 0-14.841 0.165-22.261 0-3.463 0-4.617 1.154-4.452 4.617 0.165 3.957 0.165 7.915 0 11.872-0.165 3.298 1.319 4.452 4.452 4.287 3.628-0.165 7.090 0 10.718 0 3.133-0.165 4.122 1.154 4.122 4.122 0 6.101 0.165 6.101 6.266 6.101 7.75 0 15.665-0.165 23.415 0 2.968 0 4.122-0.989 4.122-4.122-0.165-7.75-0.165-15.665 0-23.415 0-2.803-1.154-3.463-3.793-3.463-7.42 0-15.005 0-22.591 0z" />
<glyph unicode="&#xe939;" horiz-adv-x="2129" d="M1088.969 715.955c-6.431 0-12.862 0-19.293 0-2.968 0-4.617 0.824-4.452 4.287 0.165 4.287 0.165 8.575 0 12.697 0 2.803 1.154 3.957 3.957 3.957 2.968 0 6.101 0.165 9.069 0 2.638-0.165 3.628 0.824 3.628 3.628 0.33 9.069 0.33 9.069 9.399 9.069 5.936 0 11.872 0 17.644 0 3.133 0 4.287-1.154 4.287-4.452-0.165-8.080-0.165-16.16 0-24.24 0.165-3.628-0.989-4.947-4.617-4.782-6.431 0-13.027-0.165-19.623-0.165z" />
<glyph unicode="&#xe93a;" horiz-adv-x="2129" d="M974.531 715.79c-5.112 0-10.224 0-15.17 0-2.473 0-3.793 0.989-3.793 3.628 0.165 4.452 0.165 8.739 0 13.192-0.165 3.133 1.319 4.452 4.452 4.452 4.617 0 9.399 0.165 14.016 0 2.803-0.165 4.287 0.66 3.793 3.793 0 0.33 0 0.495 0 0.824 0.165 10.553-1.814 9.894 9.894 9.894 6.926 0 13.686-0.165 20.612 0 3.463 0.165 4.122-1.319 4.452-4.617 0.824-7.915-2.309-13.192-7.585-19.128-8.41-9.564-17.644-14.346-30.341-12.202-0.165 0.165-0.33 0.165-0.33 0.165z" />
<glyph unicode="&#xe93b;" horiz-adv-x="2129" d="M619.182 818.19c3.133-1.814 1.319-4.287 0.66-6.596-0.495-0.33-0.824-0.165-1.154 0.33-0.33 2.803-1.814 3.628-4.782 3.628-7.42-0.165-14.841-0.165-22.261 0-2.968 0-4.452-0.989-5.277-3.793-1.319-4.122-2.803-8.080-3.628-12.202-2.968-9.069-5.606-18.303-8.41-27.373-0.66-2.144-0.495-4.782-3.463-5.606-0.989 1.319-0.66 2.473-0.165 3.793 3.298 10.059 6.761 20.117 9.729 30.341 1.319 4.782 2.968 9.399 4.287 14.181 0.495 1.979 1.649 3.133 3.628 3.133 10.388 0.824 20.612 0.824 30.835 0.165z" />
<glyph unicode="&#xe93c;" horiz-adv-x="2129" d="M571.033 766.578c3.298 6.596 4.452 13.851 6.926 20.777 1.484 3.957 1.979 8.245 3.957 11.872 0.33 0.33 0.824 0.33 1.154 0 1.154-1.814 0.33-3.463-0.165-5.112-2.473-8.41-5.277-16.654-7.75-25.064-1.154-3.957-0.989-7.42 0.33-11.213 3.133-9.234 6.431-18.303 9.399-27.538 0.165-0.66 0.33-1.319 0.989-1.814 1.319 1.814 1.484 4.452 2.968 6.266 0.33 0.33 0.66 0.495 1.154 0.495 0.989-0.33 0.989-1.154 0.989-1.979 0-0.33-0.165-0.824-0.33-1.154-1.319-2.968-1.649-6.431-3.793-9.069-0.33-0.33-0.66-0.495-0.989-0.66-2.144 0.33-1.979 2.473-3.133 3.463-1.649 2.473-2.144 5.277-2.968 8.080-2.803 8.904-5.771 17.644-8.739 26.383-0.66 1.979-1.649 3.793 0 5.771 0.165 0.165 0.165 0.33 0 0.495z" />
<glyph unicode="&#xe93d;" horiz-adv-x="2129" d="M586.203 722.386c0.165 0.165 0.165 0.495 0.165 0.66 2.473 2.638 2.473 6.266 3.957 9.234v0c0.989 3.793 2.309 7.585 3.463 11.378 0.495 1.484 1.319 2.968 1.649 4.452 1.484 3.793 2.638 7.585 3.957 11.378 1.649 3.628 2.473 7.585 4.122 11.213 0.33 0.495 0.66 0.989 1.319 1.319 0.495 0.165 0.824 0.165 1.154-0.165-4.287-13.686-8.904-27.208-14.346-40.564-1.154-2.803-1.649-5.771-2.473-8.575-0.495-1.979-1.484-3.628-3.793-3.463-2.473 0.165-2.309 2.309-2.473 4.122 0.33 0.33 0.66 0.33 0.989 0.165 0.66-0.66 0.989-1.979 2.309-1.154z" />
<glyph unicode="&#xe93e;" horiz-adv-x="2129" d="M583.729 723.375c-0.165 0-0.495 0-0.66 0 0 0.33 0 0.495 0 0.824-3.628 4.287-3.957 9.894-5.771 14.841-2.473 7.42-4.947 15.005-7.585 22.426-0.66 1.979-1.814 3.957 1.484 4.617 0-6.266 2.968-11.543 4.782-17.314 2.473-7.75 5.277-15.335 7.915-22.92 0.33-0.824 0.495-1.649-0.165-2.473z" />
<glyph unicode="&#xe93f;" horiz-adv-x="2129" d="M605.99 772.019c-0.33 0-0.495 0-0.824 0-1.319 2.473 0.989 4.452 0.824 6.761 3.298 9.729 6.926 19.128 10.224 28.857 0.495 1.649 0.824 3.463 2.803 4.122 0.33 0 0.66 0 0.989 0-4.617-13.357-9.399-26.548-14.016-39.74z" />
<glyph unicode="&#xe940;" horiz-adv-x="2129" d="M558.171 785.211c0.33 0 0.495 0 0.824 0 3.463-8.739 6.266-17.809 9.069-26.878 1.154-3.793 2.638-7.42 4.122-11.048 0-0.989-0.165-1.814-0.165-2.803-2.473 0.824-2.638 3.298-3.298 5.277-3.298 9.399-5.936 19.128-10.224 28.197-0.165 0.33-0.33 0.824-0.495 1.154-0.165 0.824-0.33 1.649-0.33 2.473 0.165 1.319-0.495 2.638 0.495 3.628z" />
<glyph unicode="&#xe941;" horiz-adv-x="2129" d="M577.134 739.040c2.638-2.309 2.638-5.936 3.628-8.904 0.66-1.979 1.649-3.957 1.979-6.101-3.133 0.989-0.989-1.649-1.649-2.473-1.649 5.277-4.287 10.059-4.947 15.665 0.824 0.495 0.989 1.154 0.989 1.814z" />
<glyph unicode="&#xe942;" horiz-adv-x="2129" d="M619.182 818.19c-10.224 0-20.447 0-30.671 0 1.154 1.154 2.638 0.66 3.957 0.66 7.585 0 15.335 0 22.92 0 1.319 0.165 2.803 0.495 3.793-0.66z" />
<glyph unicode="&#xe943;" horiz-adv-x="2129" d="M1613.501 894.866c0.66 1.319 2.309 0.33 3.133 1.484 1.154 0.989 2.473 0.66 3.628 0.33 1.484 0 3.133-0.165 4.617-0.165 0.165-0.165 0.33-0.33 0.165-0.66 0-0.165-0.165-0.33-0.165-0.33-0.824-0.495-1.814 0-2.638-0.66-2.638 0-5.771 0-8.739 0z" />
<glyph unicode="&#xe944;" horiz-adv-x="2129" d="M1622.57 894.866c0.66 0.989 1.649 0.66 2.473 0.824 1.319 0.824 2.803-0.165 4.122 0.66 1.979 0 3.793 0 6.761 0-5.112-1.814-9.234-1.484-13.357-1.484z" />
<glyph unicode="&#xe945;" horiz-adv-x="2129" d="M1620.426 896.68c-1.154-0.165-2.473-0.165-3.628-0.33-3.793 0.165-7.585 0.165-11.378 0.33 0 0.165 0 0.495 0 0.66 4.947 0 9.894 0.33 15.005-0.66z" />
<glyph unicode="&#xe946;" horiz-adv-x="2129" d="M493.862 896.35c0.824-0.33 1.649-0.824 2.309-1.154-2.803-0.495-5.442 0.165-8.575 0.824 2.473 0.66 4.452 0.495 6.266 0.33z" />
<glyph unicode="&#xe947;" horiz-adv-x="2129" d="M1543.585 325.813c-1.979-1.154-4.287-1.154-7.090-1.319 2.144 1.814 4.122 1.979 6.101 2.144 0.33-0.165 0.66-0.495 0.989-0.824z" />
<glyph unicode="&#xe948;" horiz-adv-x="2129" d="M583.565 326.637c1.484-0.165 2.803-0.33 3.957-1.649-1.979 0-3.957-0.165-5.771 0.989 0.824 0.165 1.319 0.33 1.814 0.66z" />
<glyph unicode="&#xe949;" horiz-adv-x="2129" d="M1547.543 488.399c-1.154-0.989-2.638-0.824-3.957-0.824-0.989-0.33-1.154 0.165-0.989 0.824 1.154 0.33 2.144 0.495 3.298 0.824 0.66-0.33 1.154-0.66 1.649-0.824z" />
<glyph unicode="&#xe94a;" horiz-adv-x="2129" d="M582.905 487.41c-1.649 0.165-3.463 0-4.947 0.989 0.495 0.33 1.154 0.495 1.649 0.824 1.154-0.33 2.144-0.495 3.298-0.824 0.165-0.165 0.33-0.495 0.165-0.66 0-0.33-0.165-0.33-0.165-0.33z" />
<glyph unicode="&#xe94b;" horiz-adv-x="2129" d="M1629.001 896.35c-1.154-1.154-2.638-0.495-4.122-0.66 0 0.165 0 0.495 0 0.66 1.484 0 2.803 0 4.122 0z" />
<glyph unicode="&#xe94c;" horiz-adv-x="2129" d="M1542.596 488.399c0.33-0.33 0.66-0.66 0.989-0.824-1.319-0.824-2.803-0.824-4.287-0.824-0.165 0.165-0.33 0.495-0.165 0.66s0.165 0.33 0.33 0.33c0.989 0 1.979 0.33 3.133 0.66z" />
<glyph unicode="&#xe94d;" horiz-adv-x="2129" d="M1531.878 323.504c-1.154-1.319-2.638-0.824-4.122-0.824-0.165 0.165-0.33 0.33-0.165 0.495s0.165 0.33 0.33 0.33c1.319 0.33 2.803 0.495 4.122 0.824 0.33-0.165 0.33-0.33 0.33-0.495-0.33-0.33-0.33-0.33-0.495-0.33z" />
<glyph unicode="&#xe94e;" horiz-adv-x="2129" d="M1527.755 323.504c0-0.33 0-0.495 0-0.824-0.989-1.154-2.144-0.824-3.793-0.495 1.649 0.495 2.638 0.824 3.793 1.319z" />
<glyph unicode="&#xe94f;" horiz-adv-x="2129" d="M1539.298 487.575c0-0.33 0-0.66 0-0.824-0.989-0.989-2.144-0.824-3.628-0.33 1.484 0.33 2.473 0.66 3.628 1.154z" />
<glyph unicode="&#xe950;" horiz-adv-x="2129" d="M1531.878 323.504c0 0.33 0 0.495 0 0.824 0.989 0.165 1.979 0.33 3.133 0.495-0.66-1.979-2.144-1.154-3.133-1.319z" />
<glyph unicode="&#xe951;" horiz-adv-x="2129" d="M593.623 324.329c1.319-0.33 2.803-0.495 4.122-0.824 0.33-0.165 0.33-0.33 0.33-0.495s-0.165-0.33-0.165-0.33c-1.484 0-2.968-0.495-4.122 0.824-0.33 0.165-0.33 0.33-0.33 0.495s0 0.33 0.165 0.33z" />
<glyph unicode="&#xe952;" horiz-adv-x="2129" d="M586.203 487.575c1.154-0.33 2.309-0.66 4.122-1.154-1.979-0.66-3.133-0.824-4.122 0.33-0.33 0.165-0.33 0.33-0.33 0.495 0.165 0.165 0.165 0.33 0.33 0.33z" />
<glyph unicode="&#xe953;" horiz-adv-x="2129" d="M597.746 322.68c0 0.33 0 0.495 0 0.824 1.154-0.33 2.144-0.66 3.793-1.319-1.649-0.33-2.803-0.66-3.793 0.495z" />
<glyph unicode="&#xe954;" horiz-adv-x="2129" d="M593.623 324.329c0-0.33 0-0.495 0-0.824-0.989 0-2.144-0.33-3.133 0.66 0.989 1.154 2.144-0.165 3.133 0.165z" />
<glyph unicode="&#xe955;" horiz-adv-x="2129" d="M586.203 487.575c0.165-0.33 0.165-0.495 0-0.824-1.154 0-2.309-0.165-3.298 0.66 0 0.33 0 0.66 0 0.989 1.154-0.33 2.144-0.66 3.298-0.824z" />
<glyph unicode="&#xe956;" horiz-adv-x="2129" d="M1318.008 318.392c0-140.821-114.602-254.928-255.258-254.928-141.975 0-255.588 116.086-254.928 256.247 0.495 139.831 114.932 254.104 255.093 253.939 140.986 0 255.093-114.272 255.093-255.258z" />
<glyph unicode="&#xe957;" horiz-adv-x="2129" d="M875.264 716.614c-7.42 0-14.841 0.165-22.261 0-2.968 0-4.287 0.66-4.122 3.957 0.165 4.287 0.165 8.575 0 12.697-0.165 2.803 0.824 3.957 3.793 3.957 6.101 0 6.266 0.33 6.266 6.266 0 15.665 0 31.33 0 46.995 0 4.947-0.495 5.771-5.442 5.442-4.122-0.33-4.947 1.319-4.782 4.947 0.33 3.793 0.165 7.75 0 11.543-0.165 2.803 0.824 3.957 3.793 3.957 15.005-0.165 30.011-0.165 44.852 0 2.968 0 4.287-0.989 4.122-4.122-0.165-4.122-0.165-8.245 0-12.367 0.165-3.133-1.154-3.957-4.122-3.957-6.101 0-6.266 0-6.266-6.266 0-15.665 0.165-31.33 0-46.995 0-3.957 0.989-6.101 5.277-5.442 3.628 0.495 5.277-0.824 4.947-4.782-0.33-4.122-0.165-8.245 0-12.367 0.165-2.473-0.824-3.463-3.298-3.298-7.42 0-15.17-0.165-22.756-0.165z" />
<glyph unicode="&#xe958;" horiz-adv-x="2129" d="M1585.633 766.908c0-0.495 0-0.824 0-1.319 7.75-5.606 10.553-13.027 9.564-22.591-0.495-4.452-1.319-8.080-4.782-11.048-4.287-3.793-8.080-8.080-12.202-12.037-0.824-0.824-1.649-1.649-2.473-2.309-0.989-0.33-1.979-0.66-3.133-0.66-11.048 0-22.096-0.165-32.979 0.165-0.495 0.165-0.989 0.495-1.319 0.824-0.989 5.277-0.33 10.553-0.33 15.83 0.165 0.495 0.33 0.989 0.66 1.319 1.484 1.319 3.298 0.824 5.112 0.989 5.606 0.33 11.048-0.495 16.654 0.495 1.979 0.495 2.309 2.144 2.309 3.793 0 4.452 0 9.069 0 13.521 0 3.793-1.319 5.112-5.277 5.277-5.112 0.165-10.224 0.165-15.17 0-3.298-0.165-4.452 1.319-4.287 4.452 0.165 2.803 0 5.771 0 8.575 0 2.309 0.989 3.133 3.298 3.133 5.606-0.165 11.213 0.165 16.819-0.165 3.298-0.165 4.782 1.154 4.617 4.452-0.165 4.452-0.165 9.069 0 13.521 0 3.298-1.484 4.782-4.782 4.617-5.277 0-10.718 0-15.995 0-2.803 0-4.122 0.989-3.957 3.793 0.165 3.628 0.165 7.090 0 10.718 0 3.133 1.319 4.122 4.287 3.957 10.388-0.165 20.777 0 31.33 0 1.319 0.165 2.473-0.33 3.298-1.154 6.101-6.266 12.862-12.037 18.303-18.963 0-5.112-0.165-10.059 0-15.17 0.165-3.298-0.824-5.771-3.298-7.915-2.309-1.979-4.287-4.122-6.266-6.101z" />
<glyph unicode="&#xe959;" horiz-adv-x="2129" d="M1574.586 815.552c-10.553 0-21.107-0.165-31.66 0-3.463 0-4.782-0.989-4.452-4.452 0.165-3.133 0.165-6.266 0-9.399-0.165-2.473 0.66-3.463 3.298-3.298 5.442 0.165 11.048-0.165 16.49 0.165 3.628 0.165 4.947-1.649 4.947-4.947 0-4.782-0.165-9.564 0-14.346 0.165-3.463-1.319-4.782-4.617-4.617-5.606 0-11.213 0-16.819 0-2.473 0-3.298-0.66-3.463-3.298-0.33-11.708-0.495-11.708 11.048-11.708 2.803 0 5.771 0 8.575 0 3.298 0 5.112-1.484 5.112-4.947 0-5.277 0-10.388 0-15.665 0-2.144-0.824-3.463-3.133-3.298-5.771-0.66-11.708-0.165-17.644-0.33-1.484 0-3.133 0.495-3.957-1.319v0c-0.66-5.442-0.824-11.048 0-16.49v0c0.33-0.33 0.33-0.66 0-0.989-1.814 0.165-1.814 1.484-1.814 2.638 0 4.452 0 9.069 0 13.521 0 2.638 1.319 3.628 3.793 3.628 5.771 0 11.543 0 17.314 0 2.803 0 3.957 0.989 3.957 3.793-0.165 4.452-0.165 8.739 0 13.192 0.165 3.133-1.484 4.287-4.122 4.287-5.277 0-10.718 0.165-15.995 0-3.628-0.165-4.947 1.319-4.782 4.782 0.165 2.803 0.165 5.442 0 8.245-0.33 3.793 1.319 4.782 4.782 4.617 5.277-0.165 10.718 0 15.995-0.165 2.968 0 4.287 0.824 4.122 3.957-0.165 4.452-0.165 8.739 0 13.192 0.165 2.968-1.319 4.287-4.122 4.287-5.277 0-10.718 0.165-15.995 0-3.463-0.165-4.947 1.319-4.782 4.782 0.165 3.793 0.165 7.75 0 11.543 0 2.144 0.66 3.628 2.968 3.628 11.872 0 23.58 0 35.452-0.165 0.495 0 0.824-0.495 1.319-0.824-0.66-0.33-1.154-0.165-1.814 0z" />
<glyph unicode="&#xe95a;" horiz-adv-x="2129" d="M1578.213 719.912c3.298 5.112 8.080 8.904 12.367 13.027 2.803 2.803 4.452 5.771 3.957 9.894 0 0.165 0 0.33 0 0.33 0.989 8.245-0.33 15.5-7.915 20.282-0.495 0.33-0.66 1.484-0.989 2.144 5.606-4.287 10.224-8.245 10.388-16.654 0.165-9.234-1.979-16.49-9.399-21.931-3.133-2.144-4.782-5.771-8.41-7.090z" />
<glyph unicode="&#xe95b;" horiz-adv-x="2129" d="M1585.633 766.908c0.824 3.133 3.463 4.617 5.606 6.596 2.144 2.144 3.463 4.287 3.298 7.42-0.165 5.112 0 10.388-0.165 15.5-0.165 0.33-0.165 0.66 0.165 0.989 1.814-1.979 0.824-4.452 0.989-6.596 0.165-2.309-0.33-4.782 0.165-6.926 1.319-8.575-4.452-12.697-10.059-16.984z" />
<glyph unicode="&#xe95c;" horiz-adv-x="2129" d="M1594.538 797.578c0-0.33-0.165-0.66-0.165-0.989-6.596 6.431-13.192 12.697-19.787 19.128 0.66 0 1.154 0 1.814 0.165 6.266-5.936 12.367-11.872 18.138-18.303z" />
<glyph unicode="&#xe95d;" horiz-adv-x="2129" d="M1538.473 716.779c0 0.33 0 0.66 0 0.989 12.367 0 24.734-0.165 37.266-0.165-0.165-0.33-0.495-0.495-0.66-0.824-12.202-0.495-24.405-0.66-36.607 0v0z" />
<glyph unicode="&#xe95e;" horiz-adv-x="2129" d="M1538.473 716.779c12.202 0 24.405 0 36.607 0-9.729-0.989-19.623-0.165-29.351-0.495-2.473 0-4.947-0.66-7.255 0.495z" />
<glyph unicode="&#xe95f;" horiz-adv-x="2129" d="M1385.286 776.142c0 12.037 0 24.24 0 36.277 0 2.968 0.66 4.122 3.957 4.122 8.080-0.165 16.16-0.33 24.24 0 4.122 0.165 4.782-1.484 4.782-5.112-0.165-23.25 0-46.336 0-69.586 0-5.442 0.165-5.442 5.606-5.606 1.154 0 2.144 0 3.298 0 2.473 0.165 3.628-0.824 3.463-3.298 0-4.452 0-9.069 0-13.521 0-2.144-0.989-2.968-2.968-2.968-6.761 0-13.521 0-20.117 0-1.649 0-2.803 0.824-3.957 1.979-5.442 5.442-10.883 10.883-16.325 16.16-1.814 1.649-1.814 3.628-1.814 5.606-0.165 12.037-0.165 24.075-0.165 35.947z" />
<glyph unicode="&#xe960;" horiz-adv-x="2129" d="M627.921 766.248c0 15.17 0.165 30.176 0 45.346 0 3.957 1.319 4.947 4.947 4.947 7.75-0.165 15.335-0.165 23.085 0 3.628 0.165 5.112-0.989 4.947-4.947-0.33-10.224 0-20.282-0.165-30.506 0-3.298 1.154-4.452 4.287-4.287 7.75 0.165 15.665 0 23.415 0.165 2.803 0 3.957-1.154 3.957-3.793 0-3.793 0-7.75 0-11.543 0-2.638-1.154-3.628-3.793-3.628-7.75 0.165-15.335-0.165-23.085 0.165-3.957 0.165-4.947-1.319-4.947-5.112 0.165-10.718 0-21.436 0.165-32.155 0-3.298-1.154-4.287-4.287-4.287-8.245 0.165-16.49 0.165-24.734 0-3.463 0-4.122 1.319-4.122 4.452 0.495 15.005 0.33 30.011 0.33 45.181z" />
<glyph unicode="&#xe961;" horiz-adv-x="2129" d="M1365.333 766.248c0-14.841-0.165-29.681 0-44.522 0-3.133-0.824-4.287-4.122-4.287-7.42 0.165-14.841 0.165-22.261 0-3.133-0.165-4.287 0.824-4.287 4.122 0.165 10.388-0.165 20.942 0.165 31.33 0.165 4.452-1.319 5.442-5.442 5.112-5.277-0.33-10.388 0-15.665-0.165-2.309 0-3.133 0.824-3.133 3.133 0.165 3.957 0.165 7.915 0 11.872 0 2.473 0.989 2.968 3.298 2.968 5.442-0.165 11.048 0 16.49 0 3.133-0.165 4.452 0.989 4.287 4.287-0.165 10.224 0 20.282-0.165 30.506 0 2.968 0.495 4.287 3.793 4.122 7.75-0.165 15.335-0.165 23.085 0 2.968 0 3.793-0.989 3.628-3.793 0.33-14.676 0.33-29.681 0.33-44.687z" />
<glyph unicode="&#xe962;" horiz-adv-x="2129" d="M832.557 766.248c0-15.17 0-30.506 0-45.676 0-3.133-0.824-4.122-3.957-3.957-8.245 0.165-16.49 0.165-24.734 0-3.298-0.165-4.122 1.154-4.122 4.287 0.165 10.388 0 20.942 0 31.33 0 5.112-0.165 5.277-5.442 5.277s-10.388 0.165-15.665 0c-2.803 0-3.957 0.824-3.957 3.793 0.165 4.122 0.165 8.245 0 12.367 0 2.638 1.154 3.628 3.793 3.628 5.442-0.165 11.048 0 16.49 0 3.298 0 4.617 1.154 4.617 4.617-0.165 10.224 0 20.282-0.165 30.506 0 3.298 0.989 4.452 4.287 4.287 8.080-0.165 16.16-0.165 24.24 0 3.298 0.165 4.452-0.989 4.452-4.452 0-15.5 0.165-30.671 0.165-46.006z" />
<glyph unicode="&#xe963;" horiz-adv-x="2129" d="M950.786 766.248c0-15.17 0-30.506 0-45.676 0-2.968-0.66-3.957-3.793-4.122-6.101-0.495-11.048 0.824-15.17 5.936-3.298 4.122-7.42 7.75-11.378 11.378-1.979 1.814-2.638 3.793-2.638 6.101 0 17.809 0 35.617 0 53.591 0 2.144 0.495 3.957 2.144 5.442 5.277 5.112 10.224 10.224 15.5 15.335 1.814 1.814 12.202 3.133 14.016 1.814 1.484-0.989 0.989-2.803 0.989-4.122 0.33-15.17 0.33-30.506 0.33-45.676z" />
<glyph unicode="&#xe964;" horiz-adv-x="2129" d="M1481.585 776.142c0-11.872 0-23.58 0-35.452 0-2.968-0.824-5.277-2.968-7.255-4.782-4.617-9.564-9.399-14.346-14.181-1.814-1.814-3.628-2.638-6.101-2.473-6.101 0.165-12.037 0.165-18.138 0-2.638 0-3.793 0.66-3.628 3.463 0.165 4.122 0.165 8.245 0 12.367 0 2.473 0.824 3.628 3.463 3.793 8.904 0.33 8.904 0.495 8.904 9.399 0 21.931 0 44.027 0 65.958 0 3.628 0.989 4.947 4.617 4.782 7.915-0.165 15.995-0.165 23.91 0 3.298 0 4.287-1.154 4.287-4.287 0-12.202 0-24.24 0-36.112z" />
<glyph unicode="&#xe965;" horiz-adv-x="2129" d="M768.907 766.248c0-15.17-0.165-30.176 0-45.346 0-3.298-0.989-4.287-4.287-4.287-8.245 0.165-16.49 0.165-24.734 0-2.968 0-4.122 0.66-4.122 3.957 0.165 30.671 0.165 61.341 0 91.847 0 3.133 1.319 4.122 4.122 3.957 7.915-0.165 15.995-0.165 23.91 0 3.628 0.165 5.112-0.989 4.947-4.947 0-15.005 0.165-30.176 0.165-45.181z" />
<glyph unicode="&#xe966;" horiz-adv-x="2129" d="M995.803 777.296c-4.287 0-8.575 0-12.697 0-2.638 0-3.793 0.989-3.628 3.628 0.165 4.122 0 8.245 0 12.367 0 2.968-1.319 4.287-4.287 4.287-4.782 0-9.564 0.165-14.346 0-2.638 0-3.793 0.989-3.628 3.628 0.165 3.957 0.165 7.915 0 11.872 0 2.144 0.824 2.968 2.968 2.968 9.894 0 19.787 0 29.681 0 1.979 0 3.298-0.989 4.617-2.309 4.947-5.112 10.059-10.059 15.17-15.17 1.319-1.319 2.309-2.638 2.144-4.617-0.165-4.452-0.165-9.069 0-13.521 0-2.309-0.824-3.298-3.133-3.133-4.452 0-8.575 0-12.862 0z" />
<glyph unicode="&#xe967;" horiz-adv-x="2129" d="M533.271 758.663c-6.431 18.138-12.697 36.277-19.293 54.251-1.154 3.298 0 3.793 2.803 3.793 5.936 0 11.708 0 17.644 0 3.793 0.165 7.585 0.495 11.378-0.165v0c0.33-0.495 0.165-0.824-0.165-1.154-2.473-1.319-5.112-0.824-7.585-0.824-5.936-0.165-11.708 0-17.644 0-3.463 0-4.122-0.824-2.803-3.957 3.628-9.399 6.761-18.798 10.224-28.197 2.473-6.596 4.782-13.357 7.255-20.117 0.495-1.319 0.989-2.638 0.495-3.957-0.989-1.154-1.649 0-2.309 0.33z" />
<glyph unicode="&#xe968;" horiz-adv-x="2129" d="M575.485 733.434c2.144-4.452 3.298-9.234 4.947-13.851 0.824-2.473 0.33-3.298-2.144-3.463-9.069 0-17.974 0-27.043 0-1.814 0-2.803 1.154-3.298 2.638-1.814 5.112-3.628 10.224-5.442 15.335 0.33 0.66 0 1.979 1.484 1.649 2.803-3.793 3.463-8.575 5.277-12.697 1.319-3.133 3.133-4.452 6.431-4.287 5.936 0.165 12.037 0 17.974 0 3.957 0 3.957 0.165 2.968 3.957-0.824 2.803-2.144 5.277-2.309 8.245 0.165 0.989 0.33 1.814 1.154 2.473z" />
<glyph unicode="&#xe969;" horiz-adv-x="2129" d="M575.485 733.434c0-0.989-0.165-1.814-0.165-2.803-2.144 0.495-2.309 2.638-2.803 4.122-4.287 13.192-9.069 26.053-13.521 39.245-0.495 1.484-1.484 3.133 0 4.617 3.133-2.473 2.968-6.596 4.287-9.894 3.133-7.915 5.277-16.325 8.739-24.24 1.319-3.463 2.473-7.255 3.463-11.048z" />
<glyph unicode="&#xe96a;" horiz-adv-x="2129" d="M545.804 815.717c0 0.33 0 0.66 0 0.989 1.319 0 1.484-0.824 1.979-1.814 3.463-9.234 6.926-18.468 9.564-28.032-0.33-0.33-0.824-0.33-1.154 0-3.298 3.463-3.463 8.080-5.112 12.202-2.144 5.442-4.452 10.718-5.277 16.654z" />
<glyph unicode="&#xe96b;" horiz-adv-x="2129" d="M533.271 758.663c0.66-0.33 1.154-0.495 1.814-0.824 1.979-1.319 2.473-3.628 2.968-5.606 1.319-4.617 3.628-8.739 4.617-13.521 0-0.989-0.165-1.814-1.154-2.309-2.638 7.42-5.442 14.841-8.245 22.261z" />
<glyph unicode="&#xe96c;" horiz-adv-x="2129" d="M545.804 816.541c-3.793 0-7.585-0.33-11.378 0.165 3.793 0.66 7.585 0.989 11.378-0.165z" />
<glyph unicode="&#xe96d;" horiz-adv-x="2129" d="M541.516 736.402c0 0.824 0.165 1.814 0.165 2.638 1.979-0.33 2.473-1.484 1.649-3.298-0.33-0.495-0.495-1.154-0.824-1.649-0.495 0.66-0.989 1.319-0.989 2.309z" />
<glyph unicode="&#xe96e;" horiz-adv-x="2129" d="M558.171 785.211c0.165-1.154 0.495-2.144 0.66-3.298-0.66-0.165-1.154 0-1.649 0.495-0.33 0.33-0.495 0.66-0.66 1.154-0.165 0.989-0.165 2.144 0.824 2.803 0.33-0.495 0.66-0.824 0.824-1.154z" />
<glyph unicode="&#xe96f;" horiz-adv-x="2129" d="M557.511 786.2c0-1.154 0-2.309 0-3.463-2.638 0.824-1.814 2.473-0.989 3.957 0.33 0 0.495 0 0.824 0 0.165 0 0.165-0.33 0.165-0.495z" />
<glyph unicode="&#xe970;" horiz-adv-x="2129" d="M1188.071 814.892c6.926 0 14.016-0.165 20.942 0 2.638 0 3.957-0.66 3.793-3.628-0.165-6.101-0.165-12.367 0-18.468 0-2.638-0.66-3.628-3.463-3.628-7.090 0.165-14.346 0.165-21.436 0-3.133 0-4.122 1.154-3.957 4.122 0 5.442-0.495 5.771-5.936 5.771-3.628 0-7.090 0.165-10.718 0-2.968-0.165-4.287 0.66-4.122 3.793 0.33 2.638 0.165 5.442 0 8.245s0.824 3.793 3.628 3.793c7.255-0.165 14.181 0 21.271 0z" />
<glyph unicode="&#xe971;" horiz-adv-x="2129" d="M685.14 735.742c1.319 1.814 1.814 3.957 1.649 6.266-0.165 2.144 0.824 2.968 2.968 2.803 8.245 0 16.49-0.165 24.734 0 2.473 0 2.968-0.989 2.968-3.298-0.165-6.926-0.165-14.016 0-20.942 0-2.638-1.154-3.133-3.463-3.133-15.17 0.165-30.176 0-45.346 0.165-0.495 5.771-0.66 11.543 0 17.314v0c3.793 0.989 7.75 0.165 11.708 0.495 1.649 0 3.298-0.495 4.782 0.33z" />
<glyph unicode="&#xe972;" horiz-adv-x="2129" d="M668.651 734.918c0-5.771 0-11.543 0-17.314-1.319 5.771-1.484 11.543 0 17.314z" />
<glyph unicode="&#xe973;" horiz-adv-x="2129" d="M685.14 735.742c-3.793-1.814-7.915-0.495-12.037-0.824-1.484-0.165-2.968 0-4.452 0 3.957 1.649 7.915 0.33 12.037 0.824 1.484 0.165 2.968 0 4.452 0z" />
<glyph unicode="&#xe974;" horiz-adv-x="2129" d="M1089.134 716.944c-5.936 0-11.872 0.165-17.644 0-2.803 0-3.957 0.824-3.957 3.793 0.165 3.628 0.165 7.42 0 11.048-0.165 2.803 1.154 3.957 3.957 3.793s5.442 0 8.245 0c3.133 0 4.287 1.484 4.452 4.617 0.165 7.915 0.33 7.915 8.41 7.915 5.112 0 10.224-0.165 15.17 0 2.638 0 3.628-0.66 3.628-3.463-0.165-7.915-0.165-15.995 0-23.91 0-2.803-0.824-3.957-3.793-3.793-6.101 0.165-12.202 0-18.468 0z" />
<glyph unicode="&#xe975;" horiz-adv-x="2129" d="M974.696 716.944c-4.617 0-9.399 0.165-14.016 0-2.473 0-3.463 0.824-3.298 3.298 0.165 4.122 0 8.245 0 12.367 0 2.309 0.989 3.133 3.298 3.133 4.617-0.165 9.399 0 14.016 0 3.463 0 5.277 0.989 5.112 4.947-0.165 9.729 0 9.729 9.564 9.729 6.101 0 12.037-0.165 18.138 0 3.463 0.165 4.452-1.154 4.122-4.287-0.165-2.144 0-4.452 0-6.596 0-1.979-0.66-3.298-2.144-4.617-5.442-5.112-10.883-10.388-16.16-15.83-1.484-1.649-2.968-2.309-4.947-2.144-4.617 0-9.234 0-13.686 0z" />
<glyph unicode="&#xe976;" horiz-adv-x="2129" d="M619.017 811.594c-3.463-9.729-7.090-19.458-10.553-29.186-0.495-1.319-0.989-2.473-1.649-3.793-0.495-0.33-0.824-0.165-1.154 0.165-1.154 3.133 0.824 5.936 1.814 8.575 2.803 7.915 5.606 15.665 8.41 23.58 0.989 2.638 0 3.463-2.473 3.463-6.926 0-14.016 0-20.942 0-2.638 0-3.793-1.319-4.617-3.628-1.484-3.957-1.814-8.245-4.782-11.708-0.33 0-0.66 0-0.824 0 0.495 5.606 3.133 10.388 4.452 15.83 0.33 1.649 2.144 1.649 3.463 1.649 8.904 0 17.809 0 26.713 0 4.452 0.165 2.144-2.803 2.144-4.947z" />
<glyph unicode="&#xe977;" horiz-adv-x="2129" d="M582.905 799.227c0.824 4.947 3.628 9.399 4.287 14.511 0.33 1.814 2.144 1.814 3.628 1.814 8.080 0 16.16 0 24.24 0 2.803 0 3.298-1.154 2.309-3.628-3.793-10.224-7.585-20.447-11.378-30.835-0.33-0.824-0.165-1.649-0.33-2.473 0-0.989 0.165-1.979-0.165-2.803-1.319-1.484-1.319-3.463-2.144-5.277-0.824-2.309-1.484-4.617-2.473-6.926-0.66-0.989-0.989-2.309-0.989-3.463-0.165-0.33-0.33-0.66-0.495-0.989-0.495-0.989-0.989-1.814-1.154-2.803-0.165-0.33-0.33-0.66-0.495-0.989-1.154-3.628-2.638-7.255-3.628-11.048-0.165-0.33-0.33-0.66-0.495-0.989-1.484-2.803-1.484-6.431-4.287-8.575-0.989-3.133-2.144-6.266-3.463-10.059-2.638 4.452-3.463 8.904-4.947 13.027-2.638 7.255-5.112 14.511-7.585 21.766-0.824 2.473-0.989 5.112-0.165 7.585 2.968 9.894 6.266 19.623 9.399 29.351 0.33 1.154 0.33 1.979 0.33 2.803z" />
<glyph unicode="&#xe978;" horiz-adv-x="2129" d="M594.613 743.822c-0.824-3.957-1.814-7.915-4.287-11.378 0 0.824 0 1.649 0 2.473 0.824 3.133 1.814 6.101 3.133 9.069v0c0.165 0.33 0.495 0.33 0.824 0.165 0.33 0 0.33-0.165 0.33-0.33z" />
<glyph unicode="&#xe979;" horiz-adv-x="2129" d="M593.623 743.987c-0.66-3.133-1.484-6.266-3.133-9.069-0.33 0-0.66 0-0.824 0 1.484 2.968 1.484 6.596 3.957 9.069z" />
<glyph unicode="&#xe97a;" horiz-adv-x="2129" d="M590.325 732.444c-0.33-3.463-0.66-6.926-3.957-9.234 1.649 2.968 1.979 6.431 3.957 9.234z" />
<glyph unicode="&#xe97b;" horiz-adv-x="2129" d="M583.729 723.375c0 0.824 0 1.649 0.165 2.473 1.154-0.989 0.824-2.803 2.473-3.463 0.165-0.66 0-1.649-0.66-1.649-1.484 0.165-1.649 1.484-1.979 2.638z" />
<glyph unicode="&#xe97c;" horiz-adv-x="2129" d="M600.219 763.775c0.824 2.473 1.649 4.947 2.638 7.42 0.33 0.33 0.824 0.495 1.154 0.495 0.33-0.165 0.495-0.33 0.495-0.66-1.319-3.793-2.803-7.75-4.122-11.543-0.495 0.165-0.66 0.495-0.66 0.824 0.165 1.154-0.165 2.309 0.495 3.463z" />
<glyph unicode="&#xe97d;" horiz-adv-x="2129" d="M600.384 759.487c-1.319-3.793-2.803-7.75-4.122-11.543-0.33 0.165-0.66 0.495-0.66 0.989-0.165 2.803 1.649 4.947 2.144 7.42v0c0.495 1.154 0.824 2.309 1.484 3.298v0c0.165 0.33 0.33 0.33 0.66 0.165 0.165 0 0.33-0.165 0.495-0.33z" />
<glyph unicode="&#xe97e;" horiz-adv-x="2129" d="M605.166 776.142c0.165 0.989-0.165 1.979 0.824 2.638 0.33 0 0.66-0.165 0.989-0.165 0.495-2.473-1.319-4.287-1.649-6.596-0.165-0.33-0.495-0.66-0.66-0.989-0.165 0.165-0.33 0.33-0.495 0.33-0.66 1.814 0 3.298 0.989 4.782z" />
<glyph unicode="&#xe97f;" horiz-adv-x="2129" d="M596.426 747.945c0-1.649-0.824-2.803-1.649-4.122-0.165 0.165-0.33 0.33-0.495 0.495-0.33 1.649 0 3.133 1.649 4.122 0.165-0.33 0.33-0.33 0.495-0.495z" />
<glyph unicode="&#xe980;" horiz-adv-x="2129" d="M556.522 786.86c0.165-1.319-0.33-2.968 0.989-3.957 0 0 0 0 0 0 0.66-0.989 1.154-2.144 1.484-3.298 0.165-0.165 0.165-0.495 0.165-0.66 0.824-5.277 3.133-10.059 4.782-15.17 2.803-8.739 6.266-17.314 9.069-26.218 0.824-2.309 1.814-4.452 2.473-6.761 1.154-3.463 2.309-6.926 3.463-10.388 0.66-1.814 0.33-2.803-1.814-2.803-8.080 0-16.16 0-24.24 0-1.484 0-2.473 0.495-3.133 1.979-1.979 5.442-4.122 10.883-6.266 16.325-0.33 1.319-0.66 2.309-1.649 3.298-2.144 6.266-4.452 12.532-6.596 18.963-2.968 10.224-7.090 19.952-10.553 30.011-2.803 8.080-5.936 15.995-8.739 24.075-0.989 2.803 0.165 3.628 2.968 3.628 9.069-0.165 18.138 0 27.208 0 3.793-7.915 5.936-16.49 9.069-24.734 0.165-1.649 0.66-2.968 1.319-4.287z" />
<glyph unicode="&#xe981;" horiz-adv-x="2129" d="M558.83 779.44c-0.824 0.989-1.484 1.979-1.484 3.298 0.495-0.33 0.989-0.66 1.484-0.824 0-0.824 0-1.649 0-2.473z" />
<glyph unicode="&#xe982;" horiz-adv-x="2129" d="M1307.125 318.722c0-135.049-109.326-244.375-244.375-244.21-135.214 0-244.045 109.49-243.88 245.364 0 133.73 109.655 242.726 244.045 242.891 134.555 0.165 244.21-109.326 244.21-244.045z" />
<glyph unicode="&#xe983;" horiz-adv-x="2129" d="M1538.473 734.093c0.33 1.979 1.814 1.649 3.133 1.649 6.101 0 12.202 0 18.468 0-5.277-1.649-10.718-0.33-15.995-0.66-1.979-0.33-3.957 0.165-5.606-0.989z" />
<glyph unicode="&#xe984;" horiz-adv-x="2129" d="M1538.473 717.604c-1.484 5.442-1.319 11.048 0 16.49 0-5.442 0-11.048 0-16.49z" />
<glyph unicode="&#xe985;" horiz-adv-x="2129" d="M595.932 748.274c-0.824-1.319-1.484-2.473-1.649-4.122-0.165-0.165-0.33-0.165-0.66-0.165 0.495 4.452 1.814 8.575 4.287 12.367 0.33-2.968-2.144-5.112-1.979-8.080z" />
<glyph unicode="&#xe986;" horiz-adv-x="2129" d="M605.166 776.142c-0.33-1.649-0.66-3.133-0.989-4.782-0.495-0.165-0.989-0.165-1.319-0.33 0.989 1.649 0 4.122 2.309 5.112z" />
<glyph unicode="&#xe987;" horiz-adv-x="2129" d="M599.395 759.652c0-1.319-0.66-2.473-1.484-3.298-0.33 1.484 0 2.638 1.484 3.298z" />
<glyph unicode="&#xe988;" horiz-adv-x="2129" d="M599.889 759.817c-0.165-0.165-0.33-0.165-0.66-0.165 0.165 1.319-0.495 2.968 0.824 4.122 0-1.319 0-2.638-0.165-3.957z" />
<glyph unicode="&#xe989;" horiz-adv-x="2129" d="M1009.819 387.978c-1.814 0.165-2.638 1.484-3.793 2.309-26.383 18.963-47.655 43.038-67.772 68.102-2.803 3.463-5.606 7.090-8.575 10.553-1.484 1.814-1.814 2.968 0.165 4.617 5.771 4.782 11.708 9.399 17.974 13.851 1.319 0.824 2.309 1.319 3.463-0.33 22.92-30.671 44.852-61.671 58.373-97.948 0.165-0.165 0-0.66 0.165-1.154z" />
<glyph unicode="&#xe98a;" horiz-adv-x="2129" d="M1009.324 249.466c-2.144-8.245-5.442-15.665-8.904-22.92-13.027-27.373-30.835-51.777-48.809-76.182-1.319-1.814-2.309-1.814-3.957-0.66-6.101 4.452-12.202 8.904-17.974 13.851-1.484 1.319-1.814 2.309-0.495 3.957 22.92 29.022 46.171 57.384 76.511 79.15 1.319 0.989 2.473 1.979 3.628 2.803z" />
<glyph unicode="&#xe98b;" horiz-adv-x="2129" d="M1115.682 250.126c2.803-2.144 4.782-3.628 6.761-5.112 26.878-19.787 48.314-45.016 68.926-70.905 2.144-2.803 6.266-5.442 5.936-8.41-0.495-3.133-4.947-5.112-7.915-7.42-3.793-2.968-7.75-5.771-11.543-8.575-1.319-0.989-2.309-0.989-3.298 0.495-22.756 30.341-44.522 61.341-58.043 97.123-0.33 0.495-0.33 0.989-0.824 2.803z" />
<glyph unicode="&#xe98c;" horiz-adv-x="2129" d="M1145.528 292.504c30.011 0 58.208-5.277 86.075-13.192 8.904-2.473 17.644-5.112 26.548-7.585 2.638-0.66 3.298-1.649 2.473-4.287-1.979-7.090-4.122-14.016-6.596-20.777-0.66-1.814-1.154-2.803-3.463-2.144-35.452 11.872-70.74 24.24-101.905 45.511-0.824 0.66-1.649 1.319-3.133 2.473z" />
<glyph unicode="&#xe98d;" horiz-adv-x="2129" d="M980.138 292.339c-7.42-5.277-14.676-9.564-22.096-13.851-26.218-14.841-54.58-24.405-82.942-33.968-1.814-0.66-2.638-0.165-3.298 1.649-2.638 7.255-4.947 14.511-6.926 21.931-0.495 1.649-0.33 2.803 1.814 3.298 36.772 11.048 73.708 20.942 112.459 21.107 0 0.165 0.165 0.165 0.989-0.165z" />
<glyph unicode="&#xe98e;" horiz-adv-x="2129" d="M1061.926 408.425c-5.606 17.809-8.904 36.277-10.553 54.745-1.649 18.303-1.979 36.772-2.638 55.075-0.165 3.298 0.989 4.287 4.122 4.287 6.926 0.33 14.016 0.33 20.942-0.165 2.144-0.165 3.298-0.66 3.133-3.133-0.495-37.101-1.814-74.038-12.697-109.985-0.165-0.66-0.495-1.319-0.66-1.814-0.989-0.33-1.154 0.495-1.649 0.989z" />
<glyph unicode="&#xe98f;" horiz-adv-x="2129" d="M1145.693 344.94c18.633 12.862 37.926 22.92 58.043 30.835 15.005 5.936 30.341 11.213 45.676 16.325 2.638 0.824 3.793 0.495 4.782-2.309 2.309-6.926 4.617-13.851 6.431-20.777 0.495-1.649 0.495-2.803-1.484-3.463-36.277-10.883-72.719-20.942-111.139-21.107-0.33 0.165-0.824 0.33-2.309 0.495z" />
<glyph unicode="&#xe990;" horiz-adv-x="2129" d="M1063.575 229.514c3.463-10.388 5.771-21.107 7.75-31.825 4.782-26.548 5.112-53.591 5.771-80.469 0-2.144-0.824-2.473-2.638-2.638-7.75-0.66-15.335-0.495-23.085 0-1.979 0.165-2.638 0.66-2.473 2.638 0.66 37.761 1.979 75.522 13.192 111.964 0.495 0.824 0.989 0.824 1.484 0.33z" />
<glyph unicode="&#xe991;" horiz-adv-x="2129" d="M1116.506 387.813c1.814 7.915 5.112 15.005 8.41 21.931 13.027 27.702 31 52.272 49.139 76.841 1.154 1.649 2.144 1.979 3.957 0.66 6.101-4.452 12.202-8.904 17.974-13.851 1.484-1.319 1.979-2.144 0.66-3.957-23.085-29.351-46.995-58.043-77.666-80.139-0.989-0.33-1.649-0.824-2.473-1.484z" />
<glyph unicode="&#xe992;" horiz-adv-x="2129" d="M979.313 345.435c-16.654-0.66-32.814 0.824-48.974 3.793-21.271 3.957-42.048 10.059-62.99 16.16-2.309 0.66-2.968 1.649-2.309 4.122 1.979 7.090 4.122 14.181 6.761 21.107 0.66 1.814 1.484 2.638 3.628 1.979 34.793-11.543 69.256-23.745 100.091-44.357 1.154-0.989 2.473-1.814 3.793-2.803z" />
<glyph unicode="&#xe993;" horiz-adv-x="2129" d="M1188.401 318.887c24.734 7.915 49.633 14.181 75.192 17.314 2.144 0.33 2.968-0.165 3.133-2.309 0.824-10.224 0.824-20.282 0-30.506-0.165-3.628-2.473-2.473-4.287-2.309-21.271 2.638-42.213 7.42-62.66 13.521-3.463 1.154-7.090 2.144-10.553 3.298-0.33 0.165-0.495 0.495-0.824 0.989z" />
<glyph unicode="&#xe994;" horiz-adv-x="2129" d="M938.254 318.557c-12.862-4.122-24.734-7.255-36.607-10.388-12.697-3.298-25.724-5.112-38.75-7.090-2.968-0.495-3.628 0.33-3.793 3.298-0.66 9.729-0.66 19.458 0 29.186 0.165 2.144 0.33 3.133 3.133 2.803 25.064-3.133 49.469-9.234 73.543-16.819 0.495-0.165 0.989-0.33 2.473-0.989z" />
<glyph unicode="&#xe995;" horiz-adv-x="2129" d="M1165.645 246.993c14.841-4.782 29.186-9.399 43.038-15.335 9.564-4.122 18.798-9.069 28.197-13.357 2.473-1.154 2.638-2.309 1.319-4.617-5.112-8.41-10.883-16.49-16.984-24.24-1.154-1.484-1.979-2.309-3.793-0.66-18.963 17.149-35.782 36.442-51.282 56.724-0.165 0.165-0.165 0.495-0.495 1.484z" />
<glyph unicode="&#xe996;" horiz-adv-x="2129" d="M1020.372 435.963c-0.989 0.824-1.484 1.154-1.814 1.649-15.335 19.952-29.351 40.729-40.894 63.155-1.154 2.309-0.824 3.298 1.484 4.287 9.234 4.122 18.633 7.255 28.197 10.059 2.638 0.824 2.968-0.495 3.298-2.473 4.947-21.436 7.585-43.203 8.904-65.134 0.495-3.463 0.66-7.090 0.824-11.543z" />
<glyph unicode="&#xe997;" horiz-adv-x="2129" d="M960.68 246.663c-9.564-12.367-18.963-24.075-29.186-35.123-7.255-7.75-15.005-14.841-22.591-22.261-1.814-1.814-2.803-1.814-4.452 0.165-6.101 7.75-11.872 15.83-16.984 24.24-1.154 1.979-1.484 2.968 0.989 4.287 22.426 11.872 46.171 20.942 70.41 28.527 0.33 0.33 0.66 0.165 1.814 0.165z" />
<glyph unicode="&#xe998;" horiz-adv-x="2129" d="M1020.372 200.987c-0.989-25.889-3.463-51.118-9.234-75.852-0.66-2.968-1.319-3.793-4.452-2.803-9.234 2.968-18.468 5.936-27.373 9.894-1.979 0.824-2.803 1.484-1.649 3.957 11.543 22.756 25.724 43.697 41.224 63.814 0.33 0.33 0.66 0.495 1.484 0.989z" />
<glyph unicode="&#xe999;" horiz-adv-x="2129" d="M1105.293 436.952c0.66 9.729 1.319 19.623 2.144 29.351 1.154 15.335 4.122 30.506 7.090 45.511 0.66 2.968 1.319 4.122 4.782 2.968 9.069-2.968 18.303-5.936 27.043-9.894 1.814-0.824 2.968-1.319 1.814-3.793-11.708-22.756-26.053-44.192-42.873-64.144z" />
<glyph unicode="&#xe99a;" horiz-adv-x="2129" d="M1165.15 390.452c1.979 2.638 3.793 4.782 5.442 7.090 13.686 17.479 28.362 34.298 45.016 49.139 3.793 3.298 3.628 3.463 6.926-0.66 5.771-7.255 10.883-14.841 15.83-22.591 1.319-2.144 0.989-3.133-1.319-4.287-22.426-11.872-46.006-20.777-70.081-28.527-0.495-0.165-0.824 0-1.814-0.165z" />
<glyph unicode="&#xe99b;" horiz-adv-x="2129" d="M1105.458 200.492c10.059-12.037 19.293-24.24 27.373-37.266 5.277-8.575 9.729-17.479 14.841-26.053 1.814-2.968 0.824-3.957-1.979-5.277-8.904-3.793-17.974-6.761-27.043-9.729-2.638-0.824-3.298 0-3.793 2.309-4.452 20.117-7.42 40.564-8.575 61.176-0.165 4.947-0.495 9.894-0.824 14.841z" />
<glyph unicode="&#xe99c;" horiz-adv-x="2129" d="M961.010 389.957c-15.665 5.112-30.176 9.729-44.027 15.83-9.564 4.122-18.798 8.904-28.197 13.357-1.979 0.989-2.803 1.649-1.319 3.957 5.277 8.739 11.048 16.984 17.479 24.899 0.989 1.319 1.814 2.144 3.463 0.66 19.128-17.479 36.112-37.101 52.602-58.703z" />
<glyph unicode="&#xe99d;" horiz-adv-x="2129" d="M1097.708 294.647c-6.926 0-12.697 5.606-12.697 12.532 0 6.761 5.771 12.697 12.532 12.697s12.697-5.771 12.697-12.532c0.165-6.761-5.606-12.532-12.532-12.697z" />
<glyph unicode="&#xe99e;" horiz-adv-x="2129" d="M1062.421 269.583c-7.090 0.33-12.367 6.101-12.037 13.027 0.33 6.761 6.431 12.367 13.192 11.872 6.926-0.33 12.367-6.431 12.037-13.027-0.33-6.926-6.266-12.202-13.192-11.872z" />
<glyph unicode="&#xe99f;" horiz-adv-x="2129" d="M1084.517 360.605c6.926 0 12.532-5.771 12.532-12.532s-5.936-12.367-12.697-12.367c-6.926 0-12.532 5.771-12.532 12.532 0 6.926 5.606 12.532 12.697 12.367z" />
<glyph unicode="&#xe9a0;" horiz-adv-x="2129" d="M1015.59 307.344c0 6.926 5.606 12.532 12.532 12.532s12.532-5.771 12.532-12.532c0-6.926-5.606-12.532-12.532-12.532s-12.532 5.606-12.532 12.532z" />
<glyph unicode="&#xe9a1;" horiz-adv-x="2129" d="M1041.644 360.605c6.926-0.165 12.532-5.771 12.367-12.697s-5.771-12.367-12.862-12.367c-7.090 0.165-12.532 5.771-12.367 12.697 0.165 7.090 5.771 12.532 12.862 12.367z" />
<glyph unicode="&#xe9a2;" horiz-adv-x="2129" d="M1061.926 408.425c0.495-0.33 1.154-0.495 1.649-0.824 0-0.66 0.165-1.979-0.66-1.814-0.989 0.165-1.154 1.484-0.989 2.638z" />
<glyph unicode="&#xe9a3;" horiz-adv-x="2129" d="M1063.575 229.514c-0.495 0-0.989 0-1.649 0-0.165 0.989 0.165 1.979 1.154 1.979 0.66 0 0.824-1.154 0.495-1.979z" />
<glyph unicode="&#x1f604;" glyph-name="right-quote" horiz-adv-x="1104" d="M621.001 396.249v483.005h483.005v-489.905c0-331.203-310.503-372.604-310.503-372.604l-41.4 96.601c0 0 138.001 20.7 165.602 131.101 27.6 82.801-27.6 151.802-27.6 151.802h-269.103zM-0.006 396.249v483.005h483.005v-489.905c0-331.203-310.503-372.604-310.503-372.604l-41.4 96.601c0 0 138.001 20.7 165.602 131.101 27.6 82.801-27.6 151.802-27.6 151.802h-269.103z" />
<glyph unicode="&#x1f618;" glyph-name="instagram" d="M512 867.8c136.8 0 153-0.6 206.8-3 50-2.2 77-10.6 95-17.6 23.8-9.2 41-20.4 58.8-38.2 18-18 29-35 38.4-58.8 7-18 15.4-45.2 17.6-95 2.4-54 3-70.2 3-206.8s-0.6-153-3-206.8c-2.2-50-10.6-77-17.6-95-9.2-23.8-20.4-41-38.2-58.8-18-18-35-29-58.8-38.4-18-7-45.2-15.4-95-17.6-54-2.4-70.2-3-206.8-3s-153 0.6-206.8 3c-50 2.2-77 10.6-95 17.6-23.8 9.2-41 20.4-58.8 38.2-18 18-29 35-38.4 58.8-7 18-15.4 45.2-17.6 95-2.4 54-3 70.2-3 206.8s0.6 153 3 206.8c2.2 50 10.6 77 17.6 95 9.2 23.8 20.4 41 38.2 58.8 18 18 35 29 58.8 38.4 18 7 45.2 15.4 95 17.6 53.8 2.4 70 3 206.8 3zM512 960c-139 0-156.4-0.6-211-3-54.4-2.4-91.8-11.2-124.2-23.8-33.8-13.2-62.4-30.6-90.8-59.2-28.6-28.4-46-57-59.2-90.6-12.6-32.6-21.4-69.8-23.8-124.2-2.4-54.8-3-72.2-3-211.2s0.6-156.4 3-211c2.4-54.4 11.2-91.8 23.8-124.2 13.2-33.8 30.6-62.4 59.2-90.8 28.4-28.4 57-46 90.6-59 32.6-12.6 69.8-21.4 124.2-23.8 54.6-2.4 72-3 211-3s156.4 0.6 211 3c54.4 2.4 91.8 11.2 124.2 23.8 33.6 13 62.2 30.6 90.6 59s46 57 59 90.6c12.6 32.6 21.4 69.8 23.8 124.2 2.4 54.6 3 72 3 211s-0.6 156.4-3 211c-2.4 54.4-11.2 91.8-23.8 124.2-12.6 34-30 62.6-58.6 91-28.4 28.4-57 46-90.6 59-32.6 12.6-69.8 21.4-124.2 23.8-54.8 2.6-72.2 3.2-211.2 3.2v0zM512 711c-145.2 0-263-117.8-263-263s117.8-263 263-263 263 117.8 263 263c0 145.2-117.8 263-263 263zM512 277.4c-94.2 0-170.6 76.4-170.6 170.6s76.4 170.6 170.6 170.6c94.2 0 170.6-76.4 170.6-170.6s-76.4-170.6-170.6-170.6zM846.8 721.4c0-33.91-27.49-61.4-61.4-61.4s-61.4 27.49-61.4 61.4c0 33.91 27.49 61.4 61.4 61.4s61.4-27.49 61.4-61.4z" />
</font>
</defs>
</svg>
