<?xml version="1.0" encoding="utf-8"?>
<!-- Generator: Adobe Illustrator 22.0.0, SVG Export Plug-In . SVG Version: 6.00 Build 0)  -->
<svg version="1.1" id="Layer_1" xmlns="http://www.w3.org/2000/svg" xmlns:xlink="http://www.w3.org/1999/xlink" x="0px" y="0px"
	 viewBox="0 0 1291 621" style="enable-background:new 0 0 1291 621;" xml:space="preserve">
<style type="text/css">
	.st0{fill:#081D56;}
	.st1{fill:#9F0B1E;}
	.st2{fill:#010101;}
	.st3{fill:#AEAEAE;}
	.st4{fill:#BA4F5D;}
	.st5{fill:#C3C3C3;}
	.st6{fill:#CDCDCD;}
	.st7{fill:#BFBFBE;}
	.st8{fill:#1E1E1E;}
	.st9{fill:#BABABA;}
	.st10{fill:#C8C7C7;}
	.st11{fill:#B13948;}
	.st12{fill:#B2B2B2;}
	.st13{fill:#C0C0C0;}
	.st14{fill:#9C9C9C;}
	.st15{fill:#D2D2D2;}
	.st16{fill:#282828;}
	.st17{fill:#3A3A3A;}
	.st18{fill:#494949;}
	.st19{fill:#6E6E6E;}
	.st20{fill:#CBCBCB;}
	.st21{fill:#2A292A;}
	.st22{fill:#E3E3E3;}
	.st23{fill:#CECECF;}
	.st24{fill:#BFBFBF;}
	.st25{fill:#D18A93;}
	.st26{fill:#BD5663;}
	.st27{fill:#BB5360;}
	.st28{fill:#C3C8D5;}
	.st29{fill:#C5C9D6;}
	.st30{fill:#BCC1D1;}
	.st31{fill:#BEC4D2;}
	.st32{fill:#9CA5BB;}
	.st33{fill:#5B698F;}
	.st34{fill:#384A77;}
	.st35{fill:#58678D;}
	.st36{fill:#98A1B9;}
	.st37{fill:#5D6A90;}
	.st38{fill:#54638A;}
	.st39{fill:#3A4A78;}
	.st40{fill:#9AA2BA;}
	.st41{fill:#B9BFCF;}
	.st42{fill:#FEFEFE;}
	.st43{fill:#3F3F3F;}
	.st44{fill:#373737;}
	.st45{fill:#363536;}
	.st46{fill:#484848;}
	.st47{fill:#393939;}
	.st48{fill:#333333;}
	.st49{fill:#5E5E5E;}
	.st50{fill:#787777;}
	.st51{fill:#222222;}
	.st52{fill:#363636;}
	.st53{fill:#767676;}
	.st54{fill:#292929;}
	.st55{fill:#FEFDFD;}
	.st56{fill:#EDD2D6;}
	.st57{fill:#E3B9BD;}
</style>
<g>
	<g>
		<path class="st0" d="M936.1,384.6c10.7-1.8,21.2-4.2,31.8-6.6c43.9-9.9,86.9-22.5,128.8-39c8.4-3.3,16.8-6.8,25-10.7
			c1.9-0.9,2.3-0.6,2.3,1.5c-0.2,10.2-2.9,19.7-7.7,28.7c-7.9,14.8-19.3,26.7-32.3,37c-20.6,16.4-43.7,28.6-67.8,39
			c-28.8,12.5-58.8,21.7-88.9,30.3c-28.3,8.1-56.7,15.8-85.2,23.3c-0.7,0.2-1.4,0.5-2.3,0.3c0.4-0.9,0.8-1.7,1.1-2.6
			c35.1-74.8,26.7-161.8-22-228.5c-1.2-1.7-1.8-3.3-1.7-5.5c0.1-4.4,0.1-8.8-0.1-13.2c-0.1-2,0.5-2.7,2.3-3.1
			c18.8-4.1,37.5-8.5,56.1-13.1c87.5-21.7,173.1-48.8,255.6-85.5c41-18.2,80.6-39.1,117.6-64.5c10.4-7.2,20.6-14.7,29.9-23.4
			c1.7-1.6,2-0.7,2.4,0.8c3.4,11,3.8,22.1,2.3,33.4c-3.3,24.8-15.3,45.3-31.9,63.5c-16.8,18.5-37,32.8-58.5,45.2
			c-22.8,13.1-46.8,23.4-71.4,32.6c-60,22.5-121,41.7-182.2,60.5c-0.6,0.2-1.1,0.4-1.7,0.5c-0.5,0.6-1.3,0.6-1.9,0.8
			c-0.7,0.1-1.4,0.3-2.1,0.4c-0.6,0.4-1.3,0.5-2,0.6c-0.3,0.2,0.3,0.4,0.1,0.1c0.6-0.4,1.5-0.1,2-0.6c0.8-0.1,1.6-0.3,2.5-0.5
			c0.8-0.5,1.7,0.2,2.5-0.3c11.3-2.2,22.7-4.3,34-6.7c50.3-10.6,99.9-23.9,148.5-40.9c26.9-9.4,53.3-19.8,78.4-33.4
			c1.7-0.9,2-0.6,2.1,1.2c0.4,13.2-3.6,25.3-9.7,36.8c-9.2,17.2-22.3,31-37.3,43.2c-22.9,18.7-48.4,33-75.5,44.4
			c-46.7,19.7-93.9,37.8-142.4,52.8c-0.4,0.1-0.8,0.3-1.2,0.4c-0.6,0.7-1.6,0.6-2.4,1C934.1,384.6,935.1,384.7,936.1,384.6z"/>
		<path class="st0" d="M353.9,384.1c-50-15.6-98.8-34.1-146.9-54.7c-26.6-11.4-51.7-25.8-74.1-44.3c-14.3-11.9-26.8-25.2-35.7-41.7
			c-6.2-11.5-10.1-23.6-9.8-36.8c0-1.1-0.4-2.8,1.9-1.6c28.2,15.3,58,26.6,88.3,36.8c52.2,17.6,105.5,31.3,159.6,41.7
			c4.4,0.9,8.8,1.7,13.2,2.5c0.9,0.4,1.9-0.1,2.9,0.2c0.6,0.4,1.3,0.5,2,0.5c0.7,0.2,1.4,0.4,2,0.6c-0.7-0.2-1.3-0.4-2-0.6
			c-0.7,0-1.4-0.1-2-0.5c-0.7,0-1.4-0.2-1.9-0.7c-21.9-6.8-43.8-13.6-65.7-20.5c-36.7-11.7-73.2-23.8-109.3-37
			c-31.8-11.7-63.1-24.7-91.8-43c-20-12.7-38.5-27.3-53.4-45.8C18,122.7,8.6,104.5,5.8,83.2c-1.4-10.9-1-21.8,2.1-32.5
			c0.3-0.9,0.6-1.7,0.8-2.4c0.5-0.3,0.8-0.1,1,0.1C28.9,65.8,50.5,79.8,72.6,93c43.6,26,89.7,47,137,65.5
			c68.5,26.9,138.7,47.9,210.1,65.4c16.6,4.1,33.4,7.8,50.1,11.6c1.9,0.4,2.5,1.1,2.3,3.1c-0.4,4.7-0.4,9.5-0.1,14.2
			c0.1,1.4-0.3,2.5-1.2,3.7c-21.6,29.2-35.5,61.8-41.1,97.7c-7.2,45.7-1.1,89.7,18.6,131.7c0.4,0.8,0.7,1.5,1,2.3
			c-1.1,0.6-2-0.1-2.9-0.3c-42.9-11.5-86-22.7-128.3-36.5c-29.6-9.6-58.3-21.3-85.2-37.1c-17-10-33-21.3-46.2-36.3
			c-9.3-10.6-16.8-22.2-20.1-36.1c-1.1-4.7-1.6-9.5-1.3-14.5c0.6,0.2,1.1,0.4,1.5,0.6c38.5,17.6,78.7,30.6,119.6,41.4
			c21.4,5.7,43,10.5,64.7,14.8c0.6,0.1,1.2,0.1,1.7,0.2c0.3,0.2,0.6,0.2,0.9,0.1s0.6,0.1,0.9,0C354.4,384.6,354.2,384.4,353.9,384.1
			z"/>
		<path class="st1" d="M843.5,389.1c0,109.6-89.1,198.8-198.9,198.8c-110.4-0.1-198.5-89-198.9-197.8
			c-0.4-110.9,88.5-200,198.8-200.1C754.4,190,843.5,279,843.5,389.1z"/>
		<path class="st1" d="M978.5,39.5c-19.7,0.7-39.5,1.5-59.2,2.1c-92,2.8-183.9,3.6-275.9,3.7c-77.4,0-154.8-0.7-232.2-2.5
			C377,42,342.9,41,308.8,39.7c-0.6,0-1.2-0.1-1.7-0.1c-0.7-0.6-1.8,0.2-2.5-0.6c0-0.5,0.4-0.6,0.7-0.6c5.4,0.1,10.8-0.4,16.2-0.5
			c7.6-0.1,15.3-0.5,22.9-0.7c5.1-0.2,10.1,0.1,15.2-0.4c6-0.6,12,0,17.9-0.5c5.9-0.6,11.8,0.1,17.7-0.5c7.7-0.7,15.5,0.1,23.2-0.5
			c7.8-0.6,15.6,0.1,23.4-0.5c10-0.8,20,0.1,29.9-0.5c11.2-0.7,22.5,0.1,33.7-0.5c17.4-0.9,34.8-0.1,52.2-0.5
			c53-1.1,105.9-0.2,158.9-0.5c4.6,0.5,9.3,0.3,13.9,0.4c13.6,0.2,27.2-0.3,40.7,0.2c12.6,0.4,25.1-0.1,37.7,0.5
			c10,0.4,20,0,29.9,0.5c8.9,0.5,17.8,0.1,26.7,0.5c12.6,0.5,25.3,0.6,37.9,1c11.4,0.3,22.8,0.7,34.1,1c9.5,0.3,19.1,0.8,28.6,0.9
			c2.4,0,4.8,0.7,7.2,0.5c2.3,0,4.6,0,6.9,0c0.8,0.3,0.5,0.7,0,0.9C979.6,39.4,979,39.1,978.5,39.5z"/>
		<path d="M680.9,117.3c0-9.1,0.1-18.2,0-27.2c0-2.4,0.6-3.3,3.1-3.2c4.9,0.1,9.8,0.1,14.7,0c2,0,2.8,0.7,2.7,2.8
			c-0.1,6.1,0.1,12.2-0.1,18.2c-0.1,2.5,0.8,3.1,3.2,3.1c4.4-0.2,8.8,0,13.2-0.1c2.1-0.1,3.1,0.6,3,2.8c-0.1,2.1-0.1,4.2,0,6.2
			c0.1,2.1-0.7,3-2.9,2.9c-4.7-0.1-9.3,0-14-0.1c-1.8,0-2.5,0.6-2.5,2.4c0.1,6.7,0,13.3,0.1,20c0,2.1-0.7,2.6-2.6,2.6
			c-5.1-0.1-10.2-0.1-15.2,0c-2,0-2.7-0.6-2.7-2.7C681,135.8,680.9,126.6,680.9,117.3z"/>
		<path d="M790.4,117.4c0,9.2-0.1,18.5,0,27.7c0,2.1-0.7,2.7-2.7,2.7c-5.1-0.1-10.2-0.1-15.2,0c-1.9,0-2.6-0.5-2.6-2.6
			c0.1-18.5,0.1-37,0-55.4c0-2.2,0.7-3,2.9-2.9c5,0.1,10,0.1,15,0c2.1,0,2.7,0.7,2.7,2.8C790.3,98.9,790.4,108.2,790.4,117.4z"/>
		<path d="M643.3,117.8c0,9.2-0.1,18.3,0,27.5c0,2-0.7,2.6-2.6,2.6c-5.2-0.1-10.3-0.1-15.5,0c-1.7,0-2.5-0.5-2.5-2.4
			c0.1-18.6,0.1-37.3,0-55.9c0-1.8,0.7-2.6,2.5-2.5c5.2,0,10.3,0.1,15.5,0c1.9,0,2.6,0.7,2.6,2.7
			C643.3,98.9,643.3,108.4,643.3,117.8z"/>
		<path d="M928.9,117.5c0,9.2-0.1,18.5,0,27.7c0,2-0.7,2.6-2.6,2.6c-5.1-0.1-10.2-0.1-15.2,0c-2,0-2.8-0.5-2.8-2.7
			c0.1-18.5,0.1-37,0-55.4c0-2.1,0.7-2.8,2.7-2.8c5.1,0.1,10.2,0.1,15.2,0c1.9,0,2.6,0.7,2.6,2.6
			C928.8,98.8,928.9,108.2,928.9,117.5z"/>
		<path class="st2" d="M720.4,147.8c-4.5,0-9,0-13.5,0c-1.8,0-2.6-0.5-2.5-2.5c0.1-2.5,0.1-5,0-7.5c0-1.7,0.7-2.4,2.4-2.4
			c2.2,0.1,4.5,0,6.7,0c1.8,0.1,2.5-0.6,2.5-2.5c0-3.6,0.1-3.6,3.8-3.6c4.7,0,9.3,0.1,14,0c1.7,0,2.5,0.4,2.4,2.2
			c-0.1,4.7-0.1,9.5,0,14.2c0,1.6-0.6,2-2.1,2C729.6,147.8,725,147.8,720.4,147.8z"/>
		<path class="st2" d="M420.2,86.9c4.4,0,8.8,0.1,13.2,0c1.6,0,2.5,0.4,2.4,2.2c-0.1,4.4-0.1,8.8,0,13.2c0,1.6-0.5,2.2-2.2,2.2
			c-4.7-0.1-9.5-0.1-14.2,0c-1.9,0-2.7-0.6-2.6-2.6c0-3.4-0.1-3.4-3.6-3.4c-2.1,0-4.2-0.1-6.2,0c-2.3,0.2-3.1-0.8-2.9-3.1
			c0.2-2,0.1-4,0-6s0.8-2.6,2.7-2.6C411.2,86.9,415.7,86.9,420.2,86.9z"/>
		<path class="st3" d="M530.5,148.4c-4.4,0-8.8,0-13.2,0c-3.4,0-3.7-0.4-3.7-3.7c0-2.6,0.1-5.2,0-7.7c-0.1-2.1,0.9-3.2,3-3
			c2.7,0.4,3.2-0.8,3.1-3.2c-0.1-9.2-0.1-18.3,0-27.5c0-2.1-0.4-3-2.7-2.9c-2.8,0.1-3.3-0.6-3.3-3.3c0-2.7,0.1-5.5,0-8.2
			c-0.1-1.9,1-2.8,2.7-2.8c9.7,0,19.5,0,29.2,0c1.6,0,2.1,0.9,2.1,2.2c0,3.3,0,6.7,0,10c0,2.1-1.5,2.5-3.1,2.3c-2.4-0.3-3.1,0.7-3,3
			c0.1,9.3,0.1,18.7,0,28c0,2,0.5,2.6,2.5,2.5c3.5-0.1,3.6,0.1,3.6,3.7c0,2.5-0.2,5,0,7.5c0.2,2.6-1,3.3-3.3,3.3
			C539.7,148.4,535.1,148.4,530.5,148.4z"/>
		<path class="st4" d="M716.4,33.1c-50.7,0-101.5-0.2-152.2,0.1c-17.6,0.1-35.1-0.1-52.7,0.5c-11.7,0.4-23.3,0-35,0.5
			c-9.4,0.4-18.8,0.2-28.2,0.4c-16.3,0.4-32.6,0.7-48.9,1c-11.7,0.3-23.5,0.6-35.2,1c-10.5,0.3-21,0.6-31.4,1
			c-9.2,0.3-18.4,0.7-27.7,1.1c0.5,0.5,1.5,0,1.9,0.8c-2,0.2-4,0.1-6.1-0.2c-0.5-0.2-1.4,0.4-1.4-0.7c11.1-0.5,22.3-1.1,33.4-1.4
			c35.8-1.1,71.6-2.2,107.4-2.8c38.1-0.7,76.3-1.2,114.4-1.5c56.7-0.5,113.4-0.4,170.2-0.1c1.1,0,2.1,0.1,3.2,0.2
			C724.3,33.6,720.3,33.2,716.4,33.1z"/>
		<path class="st5" d="M944.1,85.9c0.9,0,1.8,0,2.7,0c9.6,0,9.6,0,16.2,7.2c0.5,0.5,1.1,1.1,1.7,1.5c5.9,4.3,4.5,10.4,4,16.2
			c-0.2,2.3-2.5,3.5-4.1,4.9c-1.6,1.5-1.6,2.5,0.1,3.7c5.8,3.8,4.3,9.7,4.2,15.2c0,0.8-0.6,1.8-1.3,2.4c-3.4,3.4-6.8,6.8-10.2,10.2
			c-1,1-2.1,1.4-3.6,1.4c-6.4-0.1-12.8,0-19.2,0c-3.1,0-3.5-0.5-3.5-3.7c0-2.5,0.1-5,0-7.5c-0.1-1.7,0.7-2.4,2.4-2.4
			c3.5,0,7-0.1,10.5,0c1.6,0,2.2-0.5,2.2-2.1c-0.1-2.4-0.1-4.8,0-7.2c0.1-1.7-0.6-2.2-2.2-2.1c-3.3,0.1-6.7,0-10,0
			c-2,0-2.9-0.8-2.9-2.8c0.1-2.3,0.1-4.7,0-7c0-1.6,0.7-2.3,2.2-2.3c3.5,0,7-0.1,10.5,0c1.8,0,2.4-0.6,2.3-2.3
			c-0.1-2.4-0.1-4.8,0-7.2c0-1.4-0.5-1.9-1.9-1.9c-3.3,0.1-6.7-0.1-10,0.1c-2.2,0.1-3.1-0.9-3.1-2.9c0-2.8,0-5.7,0-8.5
			c0-1.9,1-2.7,2.8-2.7C937.2,86,940.6,85.9,944.1,85.9z"/>
		<path class="st6" d="M861.5,111.3c0,7.1,0.1,14.2,0,21.2c0,2,0.7,2.7,2.6,2.5c0.5-0.1,1,0,1.5,0c3,0,3.4,0.4,3.5,3.5
			c0,2.4-0.1,4.8,0,7.2c0.1,2-0.9,2.8-2.7,2.8c-4.5,0.1-9,0-13.5,0c-1,0-1.7-0.5-2.3-1.2c-3.3-3.3-6.6-6.6-9.9-9.9
			c-1.3-1.3-1.5-2.9-1.5-4.6c-0.1-11.9-0.1-23.8,0.1-35.7c0-2.5,0-4.9-0.1-7.4c0-3.3,0.9-4.2,4.1-4.2c4.6,0,9.2,0,13.7,0
			c3.7,0,4.6,0.8,4.6,4.5C861.5,97.1,861.5,104.2,861.5,111.3z"/>
		<path class="st7" d="M401.6,135.9c0,3.3-0.1,6.7,0,10c0.1,1.9-0.8,2.6-2.5,2.6c-5.6,0-11.2,0-16.7,0c-1.5,0-2.4-0.5-2.5-2.3
			c-0.2-4.8-0.2-9.6-0.1-14.4c0.1-2.9-0.2-5.8-0.2-8.7c0-6.1,0.5-12.1,0.2-18.2c-0.2-5,0-10-0.2-14.9c-0.2-3.6,0.4-4,4-4
			c5.1,0,10.2,0.1,15.2,0c2.1,0,2.8,0.8,2.8,2.8c-0.1,6.3,0,12.7-0.1,19c0,1.9,0.6,2.4,2.4,2.4c4.5-0.1,9-0.1,13.5,0
			c3.4,0.1,3.6,0.3,3.6,3.7c0,2.2-0.1,4.5,0,6.7c0.2,2.4-0.9,3-3.1,3c-4.6-0.1-9.2,0-13.7-0.1c-2-0.1-2.9,0.5-2.8,2.7
			C401.7,129.4,401.6,132.6,401.6,135.9z"/>
		<path class="st8" d="M829,117.6c0,9.2,0,18.5,0,27.7c0,1.9-0.5,2.7-2.5,2.6c-5.2-0.1-10.3-0.1-15.5,0c-2,0-2.6-0.7-2.6-2.7
			c0.1-6.3-0.1-12.7,0.1-19c0.1-2.6-0.9-3.3-3.3-3.2c-3.2,0.2-6.3,0-9.5,0.1c-1.8,0-2.5-0.7-2.4-2.5c0.1-2.5,0.1-5,0-7.5
			c-0.1-1.9,0.8-2.5,2.5-2.5c3.2,0.1,6.5-0.1,9.7,0.1c2,0.1,2.8-0.5,2.8-2.7c-0.1-5.9,0-11.8,0-17.7c0-3.3,0.1-3.5,3.6-3.5
			c4.6,0,9.2,0,13.7,0c3.4,0,3.4,0,3.4,3.3C829,99.2,829,108.4,829,117.6z"/>
		<path class="st9" d="M505.6,117.5c0,9.3-0.1,18.7,0,28c0,2.2-0.7,3-2.9,3c-5.2-0.1-10.3,0-15.5,0c-3.1,0-3.3-0.3-3.3-3.5
			c0-6.1-0.1-12.2,0.1-18.2c0.1-2.6-0.8-3.3-3.3-3.2c-2.9,0.2-5.8,0-8.7,0.1c-2.2,0.1-3.2-0.6-3.1-3c0.2-2.5,0.2-5,0-7.5
			c-0.2-2.4,1.1-3.1,3.1-3.1c3.1,0,6.2-0.1,9.2,0c1.9,0.1,2.4-0.6,2.4-2.4c-0.1-5.9,0-11.8,0-17.7c0-3.5,0.5-4,3.8-4c5,0,10,0,15,0
			c3.1,0,3.2,0.1,3.2,3.3C505.6,98.7,505.6,108.1,505.6,117.5z"/>
		<path class="st10" d="M577.5,117.4c0,9.2,0,18.5,0,27.7c0,3.1-0.4,3.1-3.5,3.5c-4.2,0.5-7.3-0.9-10-4.1c-2-2.5-4.5-4.7-6.8-6.9
			c-1.2-1.2-1.7-2.5-1.7-4.2c0-10.8,0-21.6,0-32.5c0-1.4,0.4-2.5,1.5-3.5c3.2-3.1,6.3-6.2,9.4-9.3c1.7-1.7,8-2.9,10.1-1.9
			c1.3,0.6,1.1,1.9,1.1,3.1C577.5,98.5,577.5,108,577.5,117.4z"/>
		<path class="st11" d="M716.4,33.1c3.9-0.1,7.8-0.1,11.7-0.2c16.2,0.1,32.3,0.1,48.5,0.3c18.4,0.2,36.8,0.5,55.2,0.8
			c46.7,0.8,93.4,2.1,140.1,3.9c0.5,0,1,0.1,1.5,0.1c0.2,0.1,0.2,0.2,0.2,0.3s-0.1,0.2-0.1,0.2c-12-0.4-23.9-0.9-35.9-1.3
			c-0.3,0-0.7,0-1,0c-9.4-0.2-18.8-0.3-28.2-0.6c-13.5-0.5-26.9-0.7-40.4-1.1c-6.2-0.2-12.3-0.1-18.5-0.4
			c-12.6-0.5-25.1-0.1-37.7-0.6c-11.6-0.4-23.1,0-34.7-0.4c-19.6-0.8-39.1-0.2-58.7-0.5C717.9,33.5,717.1,33.6,716.4,33.1z"/>
		<path class="st12" d="M899.6,111.5c0,7.3,0,14.7,0,22c0,1.6-0.5,2.8-1.6,4c-3.1,3-6.2,6.1-9.2,9.2c-1.2,1.3-2.6,1.9-4.4,1.9
			c-3.7-0.1-7.5-0.1-11.2,0c-2,0-2.9-0.7-2.8-2.8c0.1-2.7,0.1-5.5,0-8.2c0-1.6,0.5-2.4,2.3-2.5c5.2-0.2,5.2-0.2,5.2-5.5
			c0-13.4,0-26.8,0-40.2c0-3.1,0.2-3.3,3.2-3.3c5.1,0,10.2,0.1,15.2,0c2.4,0,3.3,0.9,3.2,3.3C899.5,96.6,899.6,104,899.6,111.5z"/>
		<path class="st13" d="M445.4,117.2c0-9.3,0-18.6,0-28c0-3.1,0.2-3.3,3.2-3.3c5.2,0,10.5,0.1,15.7,0c2.1,0,2.8,0.8,2.8,2.8
			c0,19.1,0,38.1,0,57.2c0,1.8-0.7,2.6-2.5,2.6c-5.6,0-11.2,0-16.7,0c-1.9,0-2.6-0.9-2.6-2.8C445.4,136.2,445.4,126.7,445.4,117.2z"
			/>
		<path class="st14" d="M592.5,86c6.6-2,11.8,2,17,7.5c3.5,3.6,5.1,7,4.8,12c-0.4,7.7,0.6,6.4-6.6,6.5c-3.9,0.1-7.8,0-11.7,0
			c-2.3,0-3.4-1-3.3-3.3c0-2.3,0-4.7,0-7c0-1.5-0.6-2.1-2.1-2.1c-2.7,0.1-5.5-0.1-8.2,0c-2.2,0.1-3.1-0.9-3.2-2.9
			c-0.1-2.6-0.1-5.2,0-7.7c0.1-2,1.1-3,3.2-3C585.2,86.1,588.1,86,592.5,86z"/>
		<path class="st15" d="M347.1,128.9c1.4,1.8,1,4.3,2.4,6.1c1.7,2.9,2.6,6.1,3,9.5c1.3,3.7,1.1,4-3,4c-4.8,0-9.7,0-14.5,0
			c-1.9,0-3-0.5-3.8-2.7c-3-8.7-6.4-17.4-9.5-26.1c-2.7-7.5-5.2-15.1-7.8-22.6c-0.9-2.6-1.9-5.1-3-7.6s-0.2-4.1,2.5-4.1
			c5.2,0,10.5,0.1,15.7,0c2.3,0,3.7,1.2,4.2,3.1c1.6,5.9,4.3,11.4,5.7,17.3c-0.2,0.2-0.4,0.2-0.7,0.2c-0.3-0.2-0.6-0.4-0.8-0.8
			c-0.1-0.2-0.2-0.4-0.3-0.7c-1.5-5.1-3.7-9.9-5.2-15c-0.2-0.8-0.6-1.5-1.3-2.1c-0.2-0.1-0.4-0.2-0.6-0.3c-2-0.2-4-0.1-6,0
			c-3.1,0.8-6.3,0.3-9.5,0.4c-2.7,0.1-2.9,0.2-2,2.7c2.3,6.1,4.4,12.4,6.8,18.5c1.7,4.3,3.1,8.6,4.4,13c1.8,4.5,3.2,9.1,5,13.5
			c0.2,0.6,0.5,1.2,0.7,1.8c1.1,2.6,2.1,5.2,3,7.9c0.5,1.5,1.3,2.4,3.1,2.3c4.5,0,9,0,13.5,0c1.8,0,2.5-0.5,1.9-2.4
			c-0.8-2.5-1.6-4.9-2.5-7.3c-0.7-2.4-1.9-4.7-2.2-7.3C346.4,129.8,346.6,129.3,347.1,128.9z"/>
		<path class="st16" d="M720.7,86.7c4.4,0,8.8,0.1,13.2,0c1.7,0,2.4,0.6,2.4,2.3c-0.1,4.5-0.1,9,0,13.5c0,1.6-0.6,2.2-2.2,2.1
			c-4.9-0.1-9.8-0.1-14.7,0c-1.9,0-2.4-0.8-2.4-2.5c0-3.4-0.1-3.4-3.6-3.4c-2.2,0-4.3-0.1-6.5,0c-1.9,0.1-2.8-0.6-2.7-2.6
			c0.1-1.9,0-3.8,0-5.7c0-3.4,0.2-3.6,3.7-3.6C712.3,86.7,716.5,86.7,720.7,86.7z"/>
		<path class="st17" d="M420,147.9c-4.5,0-9-0.1-13.5,0c-2.1,0-2.8-0.7-2.7-2.8c0.1-2.4,0.1-4.8,0-7.2c-0.1-2,0.8-2.7,2.7-2.6
			c2.2,0.1,4.3,0,6.5,0c1.9,0.1,2.5-0.7,2.5-2.5c0-3.7,0.1-3.7,3.8-3.7c4.7,0,9.5,0.1,14.2,0c1.8,0,2.5,0.6,2.5,2.5
			c-0.1,4.7-0.1,9.5,0,14.2c0,1.7-0.7,2.1-2.3,2.1C429.2,147.9,424.6,147.9,420,147.9z"/>
		<path class="st18" d="M660.4,148c-3.9,0-7.8,0-11.7,0c-1.8,0-2.8-0.5-2.7-2.6c0.1-2.6,0.1-5.2,0-7.7c0-1.7,0.7-2.4,2.4-2.4
			c1.8,0,3.7-0.1,5.5,0c1.6,0.1,2.2-0.5,2.2-2.2c0.2-5.5,0.2-5.5,5.7-5.5c3.6,0,7.2,0,10.7,0c1.9,0,2.6,0.7,2.6,2.7
			c-0.1,4.9-0.1,9.8,0,14.7c0.1,2.2-0.6,3-2.8,2.9C668.4,147.9,664.4,148,660.4,148z"/>
		<path class="st19" d="M591,148.1c-3.1,0-6.2,0-9.2,0c-1.5,0-2.3-0.6-2.3-2.2c0.1-2.7,0.1-5.3,0-8c-0.1-1.9,0.8-2.7,2.7-2.7
			c2.8,0,5.7-0.1,8.5,0c1.7,0.1,2.6-0.4,2.3-2.3c0-0.2,0-0.3,0-0.5c0.1-6.4-1.1-6,6-6c4.2,0,8.3,0.1,12.5,0c2.1-0.1,2.5,0.8,2.7,2.8
			c0.5,4.8-1.4,8-4.6,11.6c-5.1,5.8-10.7,8.7-18.4,7.4C591.1,148.1,591,148.1,591,148.1z"/>
		<path class="st20" d="M375.5,86c1.9,1.1,0.8,2.6,0.4,4c-0.3,0.2-0.5,0.1-0.7-0.2c-0.2-1.7-1.1-2.2-2.9-2.2c-4.5,0.1-9,0.1-13.5,0
			c-1.8,0-2.7,0.6-3.2,2.3c-0.8,2.5-1.7,4.9-2.2,7.4c-1.8,5.5-3.4,11.1-5.1,16.6c-0.4,1.3-0.3,2.9-2.1,3.4c-0.6-0.8-0.4-1.5-0.1-2.3
			c2-6.1,4.1-12.2,5.9-18.4c0.8-2.9,1.8-5.7,2.6-8.6c0.3-1.2,1-1.9,2.2-1.9C363.1,85.6,369.3,85.6,375.5,86z"/>
		<path class="st21" d="M346.3,117.3c2-4,2.7-8.4,4.2-12.6c0.9-2.4,1.2-5,2.4-7.2c0.2-0.2,0.5-0.2,0.7,0c0.7,1.1,0.2,2.1-0.1,3.1
			c-1.5,5.1-3.2,10.1-4.7,15.2c-0.7,2.4-0.6,4.5,0.2,6.8c1.9,5.6,3.9,11.1,5.7,16.7c0.1,0.4,0.2,0.8,0.6,1.1
			c0.8-1.1,0.9-2.7,1.8-3.8c0.2-0.2,0.4-0.3,0.7-0.3c0.6,0.2,0.6,0.7,0.6,1.2c0,0.2-0.1,0.5-0.2,0.7c-0.8,1.8-1,3.9-2.3,5.5
			c-0.2,0.2-0.4,0.3-0.6,0.4c-1.3-0.2-1.2-1.5-1.9-2.1c-1-1.5-1.3-3.2-1.8-4.9c-1.7-5.4-3.5-10.7-5.3-16c-0.4-1.2-1-2.3,0-3.5
			C346.4,117.5,346.4,117.4,346.3,117.3z"/>
		<path class="st22" d="M355.5,144.1c0.1-0.1,0.1-0.3,0.1-0.4c1.5-1.6,1.5-3.8,2.4-5.6l0,0c0.6-2.3,1.4-4.6,2.1-6.9
			c0.3-0.9,0.8-1.8,1-2.7c0.9-2.3,1.6-4.6,2.4-6.9c1-2.2,1.5-4.6,2.5-6.8c0.2-0.3,0.4-0.6,0.8-0.8c0.3-0.1,0.5-0.1,0.7,0.1
			c-2.6,8.3-5.4,16.5-8.7,24.6c-0.7,1.7-1,3.5-1.5,5.2c-0.3,1.2-0.9,2.2-2.3,2.1c-1.5-0.1-1.4-1.4-1.5-2.5c0.2-0.2,0.4-0.2,0.6-0.1
			C354.5,143.8,354.7,144.6,355.5,144.1z"/>
		<path class="st15" d="M354,143.5c-0.1,0-0.3,0-0.4,0c0-0.2,0-0.3,0-0.5c-2.2-2.6-2.4-6-3.5-9c-1.5-4.5-3-9.1-4.6-13.6
			c-0.4-1.2-1.1-2.4,0.9-2.8c0,3.8,1.8,7,2.9,10.5c1.5,4.7,3.2,9.3,4.8,13.9C354.3,142.5,354.4,143,354,143.5z"/>
		<path class="st23" d="M367.5,114c-0.2,0-0.3,0-0.5,0c-0.8-1.5,0.6-2.7,0.5-4.1c2-5.9,4.2-11.6,6.2-17.5c0.3-1,0.5-2.1,1.7-2.5
			c0.2,0,0.4,0,0.6,0C373.2,98,370.3,106,367.5,114z"/>
		<path class="st24" d="M338.5,106c0.2,0,0.3,0,0.5,0c2.1,5.3,3.8,10.8,5.5,16.3c0.7,2.3,1.6,4.5,2.5,6.7c0,0.6-0.1,1.1-0.1,1.7
			c-1.5-0.5-1.6-2-2-3.2c-2-5.7-3.6-11.6-6.2-17.1c-0.1-0.2-0.2-0.5-0.3-0.7c-0.1-0.5-0.2-1-0.2-1.5
			C338.3,107.4,337.9,106.6,338.5,106z"/>
		<path class="st22" d="M350,134c1.6,1.4,1.6,3.6,2.2,5.4c0.4,1.2,1,2.4,1.2,3.7c-1.9-0.6-0.6,1-1,1.5c-1-3.2-2.6-6.1-3-9.5
			C349.9,134.8,350,134.4,350,134z"/>
		<path class="st23" d="M375.5,86c-6.2,0-12.4,0-18.6,0c0.7-0.7,1.6-0.4,2.4-0.4c4.6,0,9.3,0,13.9,0C374,85.5,374.9,85.3,375.5,86z"
			/>
		<path class="st11" d="M978.5,39.5c0.4-0.8,1.4-0.2,1.9-0.9c0.7-0.6,1.5-0.4,2.2-0.2c0.9,0,1.9,0.1,2.8,0.1
			c0.1,0.1,0.2,0.2,0.1,0.4c0,0.1-0.1,0.2-0.1,0.2c-0.5,0.3-1.1,0-1.6,0.4C982.2,39.5,980.3,39.5,978.5,39.5z"/>
		<path class="st25" d="M984,39.5c0.4-0.6,1-0.4,1.5-0.5c0.8-0.5,1.7,0.1,2.5-0.4c1.2,0,2.3,0,4.1,0C989,39.7,986.5,39.5,984,39.5z"
			/>
		<path class="st26" d="M982.7,38.4c-0.7,0.1-1.5,0.1-2.2,0.2c-2.3-0.1-4.6-0.1-6.9-0.2c0-0.1,0-0.3,0-0.4
			C976.6,38,979.6,37.8,982.7,38.4z"/>
		<path class="st27" d="M299.5,38.6c0.5,0.2,1,0.5,1.4,0.7c-1.7,0.3-3.3-0.1-5.2-0.5C297.2,38.4,298.4,38.5,299.5,38.6z"/>
		<path class="st28" d="M936.1,384.6c-1.2,0.7-2.6,0.7-4.3,0.8c1.3-1.1,2.5-1.2,3.7-1.3C935.7,384.2,935.9,384.4,936.1,384.6z"/>
		<path class="st29" d="M353.9,384.1c0.9,0.1,1.7,0.2,2.4,1c-1.2,0-2.4,0.1-3.5-0.6C353.3,384.4,353.6,384.3,353.9,384.1z"/>
		<path class="st30" d="M938.5,286c-0.7,0.6-1.6,0.5-2.4,0.5c-0.6,0.2-0.7-0.1-0.6-0.5c0.7-0.2,1.3-0.3,2-0.5
			C937.9,285.7,938.2,285.9,938.5,286z"/>
		<path class="st31" d="M353.5,286.6c-1-0.1-2.1,0-3-0.6c0.3-0.2,0.7-0.3,1-0.5c0.7,0.2,1.3,0.3,2,0.5c0.1,0.1,0.2,0.3,0.1,0.4
			C353.6,286.6,353.5,286.6,353.5,286.6z"/>
		<path class="st26" d="M987.9,38.6c-0.7,0.7-1.6,0.3-2.5,0.4c0-0.1,0-0.3,0-0.4C986.3,38.6,987.1,38.6,987.9,38.6z"/>
		<path class="st32" d="M935.5,286c0.2,0.2,0.4,0.4,0.6,0.5c-0.8,0.5-1.7,0.5-2.6,0.5c-0.1-0.1-0.2-0.3-0.1-0.4
			c0.1-0.1,0.1-0.2,0.2-0.2C934.2,286.4,934.8,286.2,935.5,286z"/>
		<path class="st33" d="M929,386c-0.7,0.8-1.6,0.5-2.5,0.5c-0.1-0.1-0.2-0.2-0.1-0.3c0.1-0.1,0.1-0.2,0.2-0.2
			c0.8-0.2,1.7-0.3,2.5-0.5c0.2,0.1,0.2,0.2,0.2,0.3C929.1,386,929.1,386,929,386z"/>
		<path class="st34" d="M926.5,386c0,0.2,0,0.3,0,0.5c-0.6,0.7-1.3,0.5-2.3,0.3C925.2,386.5,925.8,386.3,926.5,386z"/>
		<path class="st35" d="M933.5,286.5c0,0.2,0,0.4,0,0.5c-0.6,0.6-1.3,0.5-2.2,0.2C932.2,287,932.8,286.8,933.5,286.5z"/>
		<path class="st36" d="M929,386c0-0.2,0-0.3,0-0.5c0.6-0.1,1.2-0.2,1.9-0.3C930.5,386.4,929.6,385.9,929,386z"/>
		<path class="st37" d="M360,385.5c0.8,0.2,1.7,0.3,2.5,0.5c0.2,0.1,0.2,0.2,0.2,0.3c0,0.1-0.1,0.2-0.1,0.2c-0.9,0-1.8,0.3-2.5-0.5
			c-0.2-0.1-0.2-0.2-0.2-0.3C359.9,385.6,359.9,385.5,360,385.5z"/>
		<path class="st38" d="M355.5,286.5c0.7,0.2,1.4,0.4,2.5,0.7c-1.2,0.4-1.9,0.5-2.5-0.2c-0.2-0.1-0.2-0.2-0.2-0.3
			C355.4,286.6,355.4,286.5,355.5,286.5z"/>
		<path class="st39" d="M362.5,386.5c0-0.2,0-0.3,0-0.5c0.7,0.2,1.3,0.4,2.3,0.8C363.8,387,363.1,387.2,362.5,386.5z"/>
		<path class="st40" d="M360,385.5c0,0.2,0,0.3,0,0.5c-0.6,0-1.3,0.2-1.9-0.4C358.7,384.9,359.4,385.7,360,385.5z"/>
		<path class="st41" d="M355.5,286.5c0.1,0.2,0.1,0.3,0,0.5c-0.7,0-1.4,0.1-2-0.4c0-0.2,0-0.4,0-0.6
			C354.2,286.2,354.8,286.4,355.5,286.5z"/>
		<path class="st42" d="M799.3,389.1c0,85.4-69.5,154.6-154.8,154.6c-86.1,0-155-70.4-154.6-155.4c0.3-84.8,69.7-154.1,154.7-154
			C730.1,234.3,799.3,303.6,799.3,389.1z"/>
		<path d="M530.8,147.6c-4.5,0-9-0.1-13.5,0c-1.8,0-2.6-0.4-2.5-2.4c0.1-2.6,0.1-5.2,0-7.7c-0.1-1.7,0.5-2.4,2.3-2.4
			c3.7,0,3.8-0.2,3.8-3.8c0-9.5,0-19,0-28.5c0-3-0.3-3.5-3.3-3.3c-2.5,0.2-3-0.8-2.9-3c0.2-2.3,0.1-4.7,0-7
			c-0.1-1.7,0.5-2.4,2.3-2.4c9.1,0.1,18.2,0.1,27.2,0c1.8,0,2.6,0.6,2.5,2.5c-0.1,2.5-0.1,5,0,7.5c0.1,1.9-0.7,2.4-2.5,2.4
			c-3.7,0-3.8,0-3.8,3.8c0,9.5,0.1,19,0,28.5c0,2.4,0.6,3.7,3.2,3.3c2.2-0.3,3.2,0.5,3,2.9c-0.2,2.5-0.1,5,0,7.5
			c0.1,1.5-0.5,2.1-2,2C540.1,147.5,535.4,147.6,530.8,147.6z"/>
		<path d="M961.6,117.1c0,0.3,0,0.5,0,0.8c4.7,3.4,6.4,7.9,5.8,13.7c-0.3,2.7-0.8,4.9-2.9,6.7c-2.6,2.3-4.9,4.9-7.4,7.3
			c-0.5,0.5-1,1-1.5,1.4c-0.6,0.2-1.2,0.4-1.9,0.4c-6.7,0-13.4,0.1-20-0.1c-0.3-0.1-0.6-0.3-0.8-0.5c-0.6-3.2-0.2-6.4-0.2-9.6
			c0.1-0.3,0.2-0.6,0.4-0.8c0.9-0.8,2-0.5,3.1-0.6c3.4-0.2,6.7,0.3,10.1-0.3c1.2-0.3,1.4-1.3,1.4-2.3c0-2.7,0-5.5,0-8.2
			c0-2.3-0.8-3.1-3.2-3.2c-3.1-0.1-6.2-0.1-9.2,0c-2,0.1-2.7-0.8-2.6-2.7c0.1-1.7,0-3.5,0-5.2c0-1.4,0.6-1.9,2-1.9
			c3.4,0.1,6.8-0.1,10.2,0.1c2,0.1,2.9-0.7,2.8-2.7c-0.1-2.7-0.1-5.5,0-8.2c0-2-0.9-2.9-2.9-2.8c-3.2,0-6.5,0-9.7,0
			c-1.7,0-2.5-0.6-2.4-2.3c0.1-2.2,0.1-4.3,0-6.5c0-1.9,0.8-2.5,2.6-2.4c6.3,0.1,12.6,0,19,0c0.8-0.1,1.5,0.2,2,0.7
			c3.7,3.8,7.8,7.3,11.1,11.5c0,3.1-0.1,6.1,0,9.2c0.1,2-0.5,3.5-2,4.8C964,114.6,962.8,115.9,961.6,117.1z"/>
		<path class="st43" d="M954.9,87.6c-6.4,0-12.8,0.1-19.2,0c-2.1,0-2.9,0.6-2.7,2.7c0.1,1.9,0.1,3.8,0,5.7c-0.1,1.5,0.4,2.1,2,2
			c3.3-0.1,6.7,0.1,10-0.1c2.2-0.1,3,1,3,3c0,2.9-0.1,5.8,0,8.7c0.1,2.1-0.8,2.9-2.8,2.8c-3.4,0-6.8,0-10.2,0c-1.5,0-2,0.4-2.1,2
			c-0.2,7.1-0.3,7.1,6.7,7.1c1.7,0,3.5,0,5.2,0c2,0,3.1,0.9,3.1,3c0,3.2,0,6.3,0,9.5c0,1.3-0.5,2.1-1.9,2c-3.5,0.4-7.1,0.1-10.7,0.2
			c-0.9,0-1.9-0.3-2.4,0.8l0,0c-0.4,3.3-0.5,6.7,0,10l0,0c0.2,0.2,0.2,0.4,0,0.6c-1.1-0.1-1.1-0.9-1.1-1.6c0-2.7,0-5.5,0-8.2
			c0-1.6,0.8-2.2,2.3-2.2c3.5,0,7,0,10.5,0c1.7,0,2.4-0.6,2.4-2.3c-0.1-2.7-0.1-5.3,0-8c0.1-1.9-0.9-2.6-2.5-2.6
			c-3.2,0-6.5-0.1-9.7,0c-2.2,0.1-3-0.8-2.9-2.9c0.1-1.7,0.1-3.3,0-5c-0.2-2.3,0.8-2.9,2.9-2.8c3.2,0.1,6.5,0,9.7,0.1
			c1.8,0,2.6-0.5,2.5-2.4c-0.1-2.7-0.1-5.3,0-8c0.1-1.8-0.8-2.6-2.5-2.6c-3.2,0-6.5-0.1-9.7,0c-2.1,0.1-3-0.8-2.9-2.9
			c0.1-2.3,0.1-4.7,0-7c0-1.3,0.4-2.2,1.8-2.2c7.2,0,14.3,0,21.5,0.1c0.3,0,0.5,0.3,0.8,0.5C955.6,87.8,955.3,87.7,954.9,87.6z"/>
		<path class="st44" d="M957.1,145.6c2-3.1,4.9-5.4,7.5-7.9c1.7-1.7,2.7-3.5,2.4-6c0-0.1,0-0.2,0-0.2c0.6-5-0.2-9.4-4.8-12.3
			c-0.3-0.2-0.4-0.9-0.6-1.3c3.4,2.6,6.2,5,6.3,10.1c0.1,5.6-1.2,10-5.7,13.3C960.3,142.6,959.3,144.8,957.1,145.6z"/>
		<path class="st44" d="M961.6,117.1c0.5-1.9,2.1-2.8,3.4-4c1.3-1.3,2.1-2.6,2-4.5c-0.1-3.1,0-6.3-0.1-9.4c-0.1-0.2-0.1-0.4,0.1-0.6
			c1.1,1.2,0.5,2.7,0.6,4c0.1,1.4-0.2,2.9,0.1,4.2C968.5,112,965,114.5,961.6,117.1z"/>
		<path class="st45" d="M967,98.5c0,0.2-0.1,0.4-0.1,0.6c-4-3.9-8-7.7-12-11.6c0.4,0,0.7,0,1.1-0.1C959.8,91,963.5,94.6,967,98.5z"
			/>
		<path class="st44" d="M933,147.5c0-0.2,0-0.4,0-0.6c7.5,0,15,0.1,22.6,0.1c-0.1,0.2-0.3,0.3-0.4,0.5
			C947.8,147.8,940.4,147.9,933,147.5L933,147.5z"/>
		<path class="st43" d="M933,147.5c7.4,0,14.8,0,22.2,0c-5.9,0.6-11.9,0.1-17.8,0.3C935.9,147.8,934.4,148.2,933,147.5z"/>
		<path d="M840.1,111.5c0-7.3,0-14.7,0-22c0-1.8,0.4-2.5,2.4-2.5c4.9,0.1,9.8,0.2,14.7,0c2.5-0.1,2.9,0.9,2.9,3.1
			c-0.1,14.1,0,28.1,0,42.2c0,3.3,0.1,3.3,3.4,3.4c0.7,0,1.3,0,2,0c1.5-0.1,2.2,0.5,2.1,2c0,2.7,0,5.5,0,8.2c0,1.3-0.6,1.8-1.8,1.8
			c-4.1,0-8.2,0-12.2,0c-1,0-1.7-0.5-2.4-1.2c-3.3-3.3-6.6-6.6-9.9-9.8c-1.1-1-1.1-2.2-1.1-3.4C840.1,126,840.1,118.7,840.1,111.5z"
			/>
		<path d="M380.8,117.5c0-9.2,0.1-18.3,0-27.5c0-2.4,0.8-3,3-3c4.7,0.1,9.3,0.1,14,0c2.2-0.1,3.1,0.6,3,3c-0.2,6.2,0,12.3-0.1,18.5
			c0,2,0.7,2.7,2.6,2.6c4.7-0.1,9.5,0,14.2-0.1c1.7,0,2.4,0.7,2.4,2.3c0,2.3,0,4.7,0,7c0,1.6-0.7,2.2-2.3,2.2
			c-4.7-0.1-9.3,0.1-14-0.1c-2.4-0.1-3,0.8-3,3.1c0.1,6.5,0,13,0.1,19.5c0,2-0.7,2.6-2.6,2.6c-5-0.1-10-0.1-15,0
			c-2.1,0-2.5-0.8-2.5-2.7C380.9,135.8,380.8,126.7,380.8,117.5z"/>
		<path d="M828,117.5c0,9-0.1,18,0,27c0,1.9-0.5,2.6-2.5,2.6c-4.5-0.1-9-0.1-13.5,0c-1.9,0.1-2.6-0.5-2.6-2.5
			c0.1-6.3-0.1-12.7,0.1-19c0.1-2.7-0.8-3.3-3.3-3.1c-3.2,0.2-6.3,0-9.5,0.1c-1.4,0-1.9-0.5-1.9-1.9c0.1-2.4,0.1-4.8,0-7.2
			c0-1.5,0.6-1.8,2-1.8c3.3,0.1,6.7,0,10,0c1.9,0.1,2.7-0.6,2.6-2.6c-0.1-6.2,0-12.3-0.1-18.5c0-1.8,0.3-2.6,2.3-2.5
			c4.7,0.1,9.3,0.1,14,0c1.8,0,2.3,0.6,2.2,2.3C828,99.3,828,108.4,828,117.5z"/>
		<path d="M504.9,117.5c0,9.2,0,18.5,0,27.7c0,1.9-0.5,2.5-2.4,2.4c-5-0.1-10-0.1-15,0c-2,0.1-2.5-0.7-2.5-2.6c0.1-6.3,0-12.7,0-19
			c0-3.1-0.1-3.2-3.3-3.2c-3.2,0-6.3-0.1-9.5,0c-1.7,0-2.4-0.5-2.4-2.3c0.1-2.5,0.1-5,0-7.5c0-1.6,0.7-2.2,2.3-2.2
			c3.3,0.1,6.7,0,10,0c2,0,2.8-0.7,2.8-2.8c-0.1-6.2,0-12.3-0.1-18.5c0-2,0.6-2.7,2.6-2.6c4.9,0.1,9.8,0.1,14.7,0
			c2-0.1,2.7,0.6,2.7,2.7C504.8,99,504.9,108.2,504.9,117.5z"/>
		<path d="M576.6,117.5c0,9.2,0,18.5,0,27.7c0,1.8-0.4,2.4-2.3,2.5c-3.7,0.3-6.7-0.5-9.2-3.6c-2-2.5-4.5-4.7-6.9-6.9
			c-1.2-1.1-1.6-2.3-1.6-3.7c0-10.8,0-21.6,0-32.5c0-1.3,0.3-2.4,1.3-3.3c3.2-3.1,6.2-6.2,9.4-9.3c1.1-1.1,7.4-1.9,8.5-1.1
			c0.9,0.6,0.6,1.7,0.6,2.5C576.6,99,576.6,108.3,576.6,117.5z"/>
		<path d="M898.5,111.5c0,7.2,0,14.3,0,21.5c0,1.8-0.5,3.2-1.8,4.4c-2.9,2.8-5.8,5.7-8.7,8.6c-1.1,1.1-2.2,1.6-3.7,1.5
			c-3.7-0.1-7.3-0.1-11,0c-1.6,0-2.3-0.4-2.2-2.1c0.1-2.5,0.1-5,0-7.5c0-1.5,0.5-2.2,2.1-2.3c5.4-0.2,5.4-0.3,5.4-5.7
			c0-13.3,0-26.7,0-40c0-2.2,0.6-3,2.8-2.9c4.8,0.1,9.7,0.1,14.5,0c2,0,2.6,0.7,2.6,2.6C898.5,97,898.5,104.3,898.5,111.5z"/>
		<path d="M466.3,117.5c0,9.2-0.1,18.3,0,27.5c0,2-0.6,2.6-2.6,2.6c-5-0.1-10-0.1-15,0c-1.8,0-2.5-0.4-2.5-2.4
			c0.1-18.6,0.1-37.2,0-55.7c0-1.9,0.8-2.5,2.5-2.4c4.8,0.1,9.7,0.1,14.5,0c2.2-0.1,3.1,0.6,3,3C466.2,99.2,466.3,108.4,466.3,117.5
			z"/>
		<path d="M603.9,110.8c-2.6,0-5.2,0-7.7,0c-1.6,0-2.3-0.6-2.2-2.2c0.1-2.5,0-5,0-7.5c0-1.8-0.8-2.6-2.6-2.6c-2.9,0-5.8-0.1-8.7,0
			c-1.6,0-2.3-0.6-2.2-2.2c0.1-2.4,0.1-4.8,0-7.2c0-1.3,0.5-1.8,1.8-1.8c6,0,12,0,18,0c1.2,0,2,0.6,2.8,1.4c3,3.1,6.1,6.1,9.2,9.2
			c0.8,0.8,1.4,1.6,1.3,2.8c-0.1,2.7-0.1,5.5,0,8.2c0,1.4-0.5,2-1.9,1.9C609,110.8,606.5,110.8,603.9,110.8z"/>
		<path class="st46" d="M323.4,122.1c-3.9-11-7.7-22-11.7-32.9c-0.7-2,0-2.3,1.7-2.3c3.6,0,7.1,0,10.7,0c2.3-0.1,4.6-0.3,6.9,0.1
			l0,0c0.2,0.3,0.1,0.5-0.1,0.7c-1.5,0.8-3.1,0.5-4.6,0.5c-3.6,0.1-7.1,0-10.7,0c-2.1,0-2.5,0.5-1.7,2.4c2.2,5.7,4.1,11.4,6.2,17.1
			c1.5,4,2.9,8.1,4.4,12.2c0.3,0.8,0.6,1.6,0.3,2.4C324.2,123,323.8,122.3,323.4,122.1z"/>
		<path class="st47" d="M349,137.4c1.3,2.7,2,5.6,3,8.4c0.5,1.5,0.2,2-1.3,2.1c-5.5,0-10.9,0-16.4,0c-1.1,0-1.7-0.7-2-1.6
			c-1.1-3.1-2.2-6.2-3.3-9.3c0.2-0.4,0-1.2,0.9-1c1.7,2.3,2.1,5.2,3.2,7.7c0.8,1.9,1.9,2.7,3.9,2.6c3.6-0.1,7.3,0,10.9,0
			c2.4,0,2.4-0.1,1.8-2.4c-0.5-1.7-1.3-3.2-1.4-5C348.4,138.3,348.5,137.8,349,137.4z"/>
		<path class="st48" d="M349,137.4c0,0.6-0.1,1.1-0.1,1.7c-1.3-0.3-1.4-1.6-1.7-2.5c-2.6-8-5.5-15.8-8.2-23.8
			c-0.3-0.9-0.9-1.9,0-2.8c1.9,1.5,1.8,4,2.6,6c1.9,4.8,3.2,9.9,5.3,14.7C347.7,132.8,348.4,135.1,349,137.4z"/>
		<path class="st49" d="M331,87.5c0-0.2,0-0.4,0-0.6c0.8,0,0.9,0.5,1.2,1.1c2.1,5.6,4.2,11.2,5.8,17c-0.2,0.2-0.5,0.2-0.7,0
			c-2-2.1-2.1-4.9-3.1-7.4C332.9,94.3,331.5,91.1,331,87.5z"/>
		<path class="st50" d="M323.4,122.1c0.4,0.2,0.7,0.3,1.1,0.5c1.2,0.8,1.5,2.2,1.8,3.4c0.8,2.8,2.2,5.3,2.8,8.2
			c0,0.6-0.1,1.1-0.7,1.4C326.8,131.1,325.1,126.6,323.4,122.1z"/>
		<path class="st49" d="M331,87c-2.3,0-4.6,0.2-6.9-0.1C326.4,86.5,328.7,86.3,331,87z"/>
		<path class="st46" d="M328.4,135.6c0-0.5,0.1-1.1,0.1-1.6c1.2,0.2,1.5,0.9,1,2c-0.2,0.3-0.3,0.7-0.5,1
			C328.7,136.6,328.4,136.2,328.4,135.6z"/>
		<path class="st49" d="M338.5,106c0.1,0.7,0.3,1.3,0.4,2c-0.4,0.1-0.7,0-1-0.3c-0.2-0.2-0.3-0.4-0.4-0.7c-0.1-0.6-0.1-1.3,0.5-1.7
			C338.2,105.6,338.4,105.8,338.5,106z"/>
		<path class="st48" d="M338.1,105.4c0,0.7,0,1.4,0,2.1c-1.6-0.5-1.1-1.5-0.6-2.4c0.2,0,0.3,0,0.5,0
			C338.1,105.1,338.1,105.3,338.1,105.4z"/>
		<path d="M720.5,88c4.2,0,8.5,0.1,12.7,0c1.6,0,2.4,0.4,2.3,2.2c-0.1,3.7-0.1,7.5,0,11.2c0,1.6-0.4,2.2-2.1,2.2
			c-4.3-0.1-8.7-0.1-13,0c-1.9,0-2.5-0.7-2.4-2.5c0-3.3-0.3-3.5-3.6-3.5c-2.2,0-4.3-0.1-6.5,0c-1.8,0.1-2.6-0.4-2.5-2.3
			c0.2-1.6,0.1-3.3,0-5s0.5-2.3,2.2-2.3C712,88.1,716.2,88,720.5,88z"/>
		<path d="M415.5,136c0.8-1.1,1.1-2.4,1-3.8c-0.1-1.3,0.5-1.8,1.8-1.7c5,0,10,0.1,15,0c1.5,0,1.8,0.6,1.8,2c-0.1,4.2-0.1,8.5,0,12.7
			c0,1.6-0.7,1.9-2.1,1.9c-9.2-0.1-18.3,0-27.5-0.1c-0.3-3.5-0.4-7,0-10.5l0,0c2.3-0.6,4.7-0.1,7.1-0.3
			C413.6,136.2,414.6,136.5,415.5,136z"/>
		<path class="st51" d="M405.5,136.5c0,3.5,0,7,0,10.5C404.7,143.5,404.6,140,405.5,136.5z"/>
		<path class="st51" d="M415.5,136c-2.3,1.1-4.8,0.3-7.3,0.5c-0.9,0.1-1.8,0-2.7,0c2.4-1,4.8-0.2,7.3-0.5
			C413.7,135.9,414.6,136,415.5,136z"/>
		<path class="st2" d="M660.5,147.4c-3.6,0-7.2-0.1-10.7,0c-1.7,0-2.4-0.5-2.4-2.3c0.1-2.2,0.1-4.5,0-6.7c-0.1-1.7,0.7-2.4,2.4-2.3
			c1.7,0.1,3.3,0,5,0c1.9,0,2.6-0.9,2.7-2.8c0.1-4.8,0.2-4.8,5.1-4.8c3.1,0,6.2,0.1,9.2,0c1.6,0,2.2,0.4,2.2,2.1
			c-0.1,4.8-0.1,9.7,0,14.5c0,1.7-0.5,2.4-2.3,2.3C668,147.3,664.3,147.4,660.5,147.4z"/>
		<path class="st2" d="M591.1,147.4c-2.8,0-5.7-0.1-8.5,0c-1.5,0-2.1-0.5-2-2c0.1-2.5,0-5,0-7.5c0-1.4,0.6-1.9,2-1.9
			c2.8,0.1,5.7,0,8.5,0c2.1,0,3.2-0.6,3.1-3c-0.1-5.9,0-5.9,5.8-5.9c3.7,0,7.3,0.1,11,0c2.1-0.1,2.7,0.7,2.5,2.6c-0.1,1.3,0,2.7,0,4
			c0,1.2-0.4,2-1.3,2.8c-3.3,3.1-6.6,6.3-9.8,9.6c-0.9,1-1.8,1.4-3,1.3C596.6,147.4,593.8,147.4,591.1,147.4z"/>
		<path class="st52" d="M375.4,90c-2.1,5.9-4.3,11.8-6.4,17.7c-0.3,0.8-0.6,1.5-1,2.3c-0.3,0.2-0.5,0.1-0.7-0.1
			c-0.7-1.9,0.5-3.6,1.1-5.2c1.7-4.8,3.4-9.5,5.1-14.3c0.6-1.6,0-2.1-1.5-2.1c-4.2,0-8.5,0-12.7,0c-1.6,0-2.3,0.8-2.8,2.2
			c-0.9,2.4-1.1,5-2.9,7.1c-0.2,0-0.4,0-0.5,0c0.3-3.4,1.9-6.3,2.7-9.6c0.2-1,1.3-1,2.1-1c5.4,0,10.8,0,16.2,0
			C376.8,86.9,375.4,88.7,375.4,90z"/>
		<path d="M353.5,97.5c0.5-3,2.2-5.7,2.6-8.8c0.2-1.1,1.3-1.1,2.2-1.1c4.9,0,9.8,0,14.7,0c1.7,0,2,0.7,1.4,2.2
			c-2.3,6.2-4.6,12.4-6.9,18.7c-0.2,0.5-0.1,1-0.2,1.5c0,0.6,0.1,1.2-0.1,1.7c-0.8,0.9-0.8,2.1-1.3,3.2c-0.5,1.4-0.9,2.8-1.5,4.2
			c-0.4,0.6-0.6,1.4-0.6,2.1c-0.1,0.2-0.2,0.4-0.3,0.6c-0.3,0.6-0.6,1.1-0.7,1.7c-0.1,0.2-0.2,0.4-0.3,0.6c-0.7,2.2-1.6,4.4-2.2,6.7
			c-0.1,0.2-0.2,0.4-0.3,0.6c-0.9,1.7-0.9,3.9-2.6,5.2c-0.6,1.9-1.3,3.8-2.1,6.1c-1.6-2.7-2.1-5.4-3-7.9c-1.6-4.4-3.1-8.8-4.6-13.2
			c-0.5-1.5-0.6-3.1-0.1-4.6c1.8-6,3.8-11.9,5.7-17.8C353.5,98.5,353.5,98,353.5,97.5z"/>
		<path class="st53" d="M360.6,131.1c-0.5,2.4-1.1,4.8-2.6,6.9c0-0.5,0-1,0-1.5c0.5-1.9,1.1-3.7,1.9-5.5l0,0
			c0.1-0.2,0.3-0.2,0.5-0.1C360.6,130.9,360.6,131,360.6,131.1z"/>
		<path class="st54" d="M360,131c-0.4,1.9-0.9,3.8-1.9,5.5c-0.2,0-0.4,0-0.5,0C358.5,134.7,358.5,132.5,360,131z"/>
		<path class="st53" d="M358,138c-0.2,2.1-0.4,4.2-2.4,5.6C356.6,141.8,356.8,139.7,358,138z"/>
		<path class="st53" d="M354,143.5c0-0.5,0-1,0.1-1.5c0.7,0.6,0.5,1.7,1.5,2.1c0.1,0.4,0,1-0.4,1C354.3,145,354.2,144.2,354,143.5z"
			/>
		<path class="st53" d="M364,119c0.5-1.5,1-3,1.6-4.5c0.2-0.2,0.5-0.3,0.7-0.3c0.2,0.1,0.3,0.2,0.3,0.4c-0.8,2.3-1.7,4.7-2.5,7
			c-0.3-0.1-0.4-0.3-0.4-0.5C363.8,120.4,363.6,119.7,364,119z"/>
		<path class="st53" d="M364.1,121.6c-0.8,2.3-1.7,4.7-2.5,7c-0.2-0.1-0.4-0.3-0.4-0.6c-0.1-1.7,1-3,1.3-4.5l0,0
			c0.3-0.7,0.5-1.4,0.9-2l0,0c0.1-0.2,0.2-0.2,0.4-0.1C363.9,121.4,364,121.5,364.1,121.6z"/>
		<path class="st53" d="M367,111.5c0.1-0.6-0.1-1.2,0.5-1.6c0.2,0,0.4,0.1,0.6,0.1c0.3,1.5-0.8,2.6-1,4c-0.1,0.2-0.3,0.4-0.4,0.6
			c-0.1-0.1-0.2-0.2-0.3-0.2C366,113.3,366.4,112.4,367,111.5z"/>
		<path class="st53" d="M361.7,128.6c0,1-0.5,1.7-1,2.5c-0.1-0.1-0.2-0.2-0.3-0.3c-0.2-1,0-1.9,1-2.5
			C361.5,128.5,361.6,128.5,361.7,128.6z"/>
		<path d="M337.5,105c0.1,0.8-0.2,1.8,0.6,2.4l0,0c0.4,0.6,0.7,1.3,0.9,2c0.1,0.1,0.1,0.3,0.1,0.4c0.5,3.2,1.9,6.1,2.9,9.2
			c1.7,5.3,3.8,10.5,5.5,15.9c0.5,1.4,1.1,2.7,1.5,4.1c0.7,2.1,1.4,4.2,2.1,6.3c0.4,1.1,0.2,1.7-1.1,1.7c-4.9,0-9.8,0-14.7,0
			c-0.9,0-1.5-0.3-1.9-1.2c-1.2-3.3-2.5-6.6-3.8-9.9c-0.2-0.8-0.4-1.4-1-2c-1.3-3.8-2.7-7.6-4-11.5c-1.8-6.2-4.3-12.1-6.4-18.2
			c-1.7-4.9-3.6-9.7-5.3-14.6c-0.6-1.7,0.1-2.2,1.8-2.2c5.5,0.1,11,0,16.5,0c2.3,4.8,3.6,10,5.5,15
			C336.8,103.4,337.1,104.2,337.5,105z"/>
		<path class="st48" d="M338.9,109.5c-0.5-0.6-0.9-1.2-0.9-2c0.3,0.2,0.6,0.4,0.9,0.5C338.9,108.5,338.9,109,338.9,109.5z"/>
		<path class="st1" d="M792.7,388.9c0,81.9-66.3,148.2-148.2,148.1c-82,0-148-66.4-147.9-148.8c0-81.1,66.5-147.2,148-147.3
			C726.2,240.8,792.7,307.2,792.7,388.9z"/>
		<path class="st44" d="M933,137c0.2-1.2,1.1-1,1.9-1c3.7,0,7.4,0,11.2,0c-3.2,1-6.5,0.2-9.7,0.4C935.2,136.6,934,136.3,933,137z"/>
		<path class="st44" d="M933,147c-0.9-3.3-0.8-6.7,0-10C933,140.3,933,143.7,933,147z"/>
		<path class="st54" d="M361.4,128.4c-0.5,0.8-0.9,1.5-1,2.5c-0.1,0.1-0.2,0.1-0.4,0.1c0.3-2.7,1.1-5.2,2.6-7.5
			C362.8,125.3,361.3,126.6,361.4,128.4z"/>
		<path class="st52" d="M367,111.5c-0.2,1-0.4,1.9-0.6,2.9c-0.3,0.1-0.6,0.1-0.8,0.2C366.2,113.6,365.6,112.1,367,111.5z"/>
		<path class="st54" d="M363.5,121.5c0,0.8-0.4,1.5-0.9,2C362.4,122.6,362.6,121.9,363.5,121.5z"/>
		<path class="st54" d="M363.8,121.4c-0.1,0.1-0.2,0.1-0.4,0.1c0.1-0.8-0.3-1.8,0.5-2.5C363.9,119.8,363.9,120.6,363.8,121.4z"/>
		<path class="st42" d="M612.4,346.9c-1.1-0.1-1.6-0.9-2.3-1.4c-16-11.5-28.9-26.1-41.1-41.3c-1.7-2.1-3.4-4.3-5.2-6.4
			c-0.9-1.1-1.1-1.8,0.1-2.8c3.5-2.9,7.1-5.7,10.9-8.4c0.8-0.5,1.4-0.8,2.1,0.2c13.9,18.6,27.2,37.4,35.4,59.4
			C612.4,346.3,612.3,346.6,612.4,346.9z"/>
		<path class="st42" d="M612.1,430.9c-1.3,5-3.3,9.5-5.4,13.9c-7.9,16.6-18.7,31.4-29.6,46.2c-0.8,1.1-1.4,1.1-2.4,0.4
			c-3.7-2.7-7.4-5.4-10.9-8.4c-0.9-0.8-1.1-1.4-0.3-2.4c13.9-17.6,28-34.8,46.4-48C610.7,432,611.4,431.4,612.1,430.9z"/>
		<path class="st42" d="M676.6,430.5c1.7,1.3,2.9,2.2,4.1,3.1c16.3,12,29.3,27.3,41.8,43c1.3,1.7,3.8,3.3,3.6,5.1
			c-0.3,1.9-3,3.1-4.8,4.5c-2.3,1.8-4.7,3.5-7,5.2c-0.8,0.6-1.4,0.6-2-0.3c-13.8-18.4-27-37.2-35.2-58.9
			C676.9,431.9,676.9,431.6,676.6,430.5z"/>
		<path class="st42" d="M694.7,404.8c18.2,0,35.3,3.2,52.2,8c5.4,1.5,10.7,3.1,16.1,4.6c1.6,0.4,2,1,1.5,2.6
			c-1.2,4.3-2.5,8.5-4,12.6c-0.4,1.1-0.7,1.7-2.1,1.3c-21.5-7.2-42.9-14.7-61.8-27.6C696.1,405.9,695.6,405.5,694.7,404.8z"/>
		<path class="st42" d="M594.4,404.9c-4.5,3.2-8.9,5.8-13.4,8.4c-15.9,9-33.1,14.8-50.3,20.6c-1.1,0.4-1.6,0.1-2-1
			c-1.6-4.4-3-8.8-4.2-13.3c-0.3-1-0.2-1.7,1.1-2c22.3-6.7,44.7-12.7,68.2-12.8C593.8,404.7,593.9,404.7,594.4,404.9z"/>
		<path class="st42" d="M644,334.5c-3.4-10.8-5.4-22-6.4-33.2c-1-11.1-1.2-22.3-1.6-33.4c-0.1-2,0.6-2.6,2.5-2.6
			c4.2-0.2,8.5-0.2,12.7,0.1c1.3,0.1,2,0.4,1.9,1.9c-0.3,22.5-1.1,44.9-7.7,66.7c-0.1,0.4-0.3,0.8-0.4,1.1
			C644.4,335.3,644.3,334.8,644,334.5z"/>
		<path class="st42" d="M694.8,373c11.3-7.8,23-13.9,35.2-18.7c9.1-3.6,18.4-6.8,27.7-9.9c1.6-0.5,2.3-0.3,2.9,1.4
			c1.4,4.2,2.8,8.4,3.9,12.6c0.3,1,0.3,1.7-0.9,2.1c-22,6.6-44.1,12.7-67.4,12.8C696,373.2,695.7,373.1,694.8,373z"/>
		<path class="st42" d="M645,443c2.1,6.3,3.5,12.8,4.7,19.3c2.9,16.1,3.1,32.5,3.5,48.8c0,1.3-0.5,1.5-1.6,1.6
			c-4.7,0.4-9.3,0.3-14,0c-1.2-0.1-1.6-0.4-1.5-1.6c0.4-22.9,1.2-45.8,8-67.9C644.4,442.7,644.7,442.7,645,443z"/>
		<path class="st42" d="M677.1,347c1.1-4.8,3.1-9.1,5.1-13.3c7.9-16.8,18.8-31.7,29.8-46.6c0.7-1,1.3-1.2,2.4-0.4
			c3.7,2.7,7.4,5.4,10.9,8.4c0.9,0.8,1.2,1.3,0.4,2.4c-14,17.8-28.5,35.2-47.1,48.6C678,346.3,677.6,346.6,677.1,347z"/>
		<path class="st42" d="M593.9,372.7c-10.1,0.4-19.9-0.5-29.7-2.3c-12.9-2.4-25.5-6.1-38.2-9.8c-1.4-0.4-1.8-1-1.4-2.5
			c1.2-4.3,2.5-8.6,4.1-12.8c0.4-1.1,0.9-1.6,2.2-1.2c21.1,7,42,14.4,60.7,26.9C592.3,371.6,593.1,372.1,593.9,372.7z"/>
		<path class="st42" d="M720.7,388.8c15-4.8,30.1-8.6,45.6-10.5c1.3-0.2,1.8,0.1,1.9,1.4c0.5,6.2,0.5,12.3,0,18.5
			c-0.1,2.2-1.5,1.5-2.6,1.4c-12.9-1.6-25.6-4.5-38-8.2c-2.1-0.7-4.3-1.3-6.4-2C721,389.3,720.9,389.1,720.7,388.8z"/>
		<path class="st42" d="M569,389c-7.8,2.5-15,4.4-22.2,6.3c-7.7,2-15.6,3.1-23.5,4.3c-1.8,0.3-2.2-0.2-2.3-2
			c-0.4-5.9-0.4-11.8,0-17.7c0.1-1.3,0.2-1.9,1.9-1.7c15.2,1.9,30,5.6,44.6,10.2C567.8,388.5,568.1,388.6,569,389z"/>
		<path class="st42" d="M706.9,432.4c9,2.9,17.7,5.7,26.1,9.3c5.8,2.5,11.4,5.5,17.1,8.1c1.5,0.7,1.6,1.4,0.8,2.8
			c-3.1,5.1-6.6,10-10.3,14.7c-0.7,0.9-1.2,1.4-2.3,0.4c-11.5-10.4-21.7-22.1-31.1-34.4C707.1,433.2,707.1,433,706.9,432.4z"/>
		<path class="st42" d="M618.8,317.8c-0.6-0.5-0.9-0.7-1.1-1c-9.3-12.1-17.8-24.7-24.8-38.3c-0.7-1.4-0.5-2,0.9-2.6
			c5.6-2.5,11.3-4.4,17.1-6.1c1.6-0.5,1.8,0.3,2,1.5c3,13,4.6,26.2,5.4,39.5C618.6,312.9,618.7,315.1,618.8,317.8z"/>
		<path class="st42" d="M582.6,432.6c-5.8,7.5-11.5,14.6-17.7,21.3c-4.4,4.7-9.1,9-13.7,13.5c-1.1,1.1-1.7,1.1-2.7-0.1
			c-3.7-4.7-7.2-9.6-10.3-14.7c-0.7-1.2-0.9-1.8,0.6-2.6c13.6-7.2,28-12.7,42.7-17.3C581.7,432.5,581.9,432.6,582.6,432.6z"/>
		<path class="st42" d="M618.8,460.3c-0.6,15.7-2.1,31-5.6,46c-0.4,1.8-0.8,2.3-2.7,1.7c-5.6-1.8-11.2-3.6-16.6-6
			c-1.2-0.5-1.7-0.9-1-2.4c7-13.8,15.6-26.5,25-38.7C618.1,460.7,618.3,460.6,618.8,460.3z"/>
		<path class="st42" d="M670.3,317.2c0.4-5.9,0.8-11.9,1.3-17.8c0.7-9.3,2.5-18.5,4.3-27.6c0.4-1.8,0.8-2.5,2.9-1.8
			c5.5,1.8,11.1,3.6,16.4,6c1.1,0.5,1.8,0.8,1.1,2.3C689.2,292.1,680.5,305.1,670.3,317.2z"/>
		<path class="st42" d="M706.6,345.4c1.2-1.6,2.3-2.9,3.3-4.3c8.3-10.6,17.2-20.8,27.3-29.8c2.3-2,2.2-2.1,4.2,0.4
			c3.5,4.4,6.6,9,9.6,13.7c0.8,1.3,0.6,1.9-0.8,2.6c-13.6,7.2-27.9,12.6-42.5,17.3C707.4,345.4,707.2,345.3,706.6,345.4z"/>
		<path class="st42" d="M670.4,460.6c6.1,7.3,11.7,14.7,16.6,22.6c3.2,5.2,5.9,10.6,9,15.8c1.1,1.8,0.5,2.4-1.2,3.2
			c-5.4,2.3-10.9,4.1-16.4,5.9c-1.6,0.5-2,0-2.3-1.4c-2.7-12.2-4.5-24.6-5.2-37.1C670.8,466.6,670.6,463.6,670.4,460.6z"/>
		<path class="st42" d="M582.8,345.7c-9.5-3.1-18.3-5.9-26.7-9.6c-5.8-2.5-11.4-5.4-17.1-8.1c-1.2-0.6-1.7-1-0.8-2.4
			c3.2-5.3,6.7-10.3,10.6-15.1c0.6-0.8,1.1-1.3,2.1-0.4C562.5,320.7,572.8,332.6,582.8,345.7z"/>
		<path class="st55" d="M665.7,403.5c-4.2,0-7.7-3.4-7.7-7.6c0-4.1,3.5-7.7,7.6-7.7s7.7,3.5,7.7,7.6
			C673.4,399.9,669.9,403.4,665.7,403.5z"/>
		<path class="st55" d="M644.3,418.7c-4.3-0.2-7.5-3.7-7.3-7.9c0.2-4.1,3.9-7.5,8-7.2c4.2,0.2,7.5,3.9,7.3,7.9
			C652.1,415.7,648.5,418.9,644.3,418.7z"/>
		<path class="st55" d="M657.7,363.5c4.2,0,7.6,3.5,7.6,7.6s-3.6,7.5-7.7,7.5c-4.2,0-7.6-3.5-7.6-7.6
			C650,366.8,653.4,363.4,657.7,363.5z"/>
		<path class="st55" d="M615.9,395.8c0-4.2,3.4-7.6,7.6-7.6c4.2,0,7.6,3.5,7.6,7.6c0,4.2-3.4,7.6-7.6,7.6
			C619.3,403.4,615.9,400,615.9,395.8z"/>
		<path class="st55" d="M631.7,363.5c4.2,0.1,7.6,3.5,7.5,7.7s-3.5,7.5-7.8,7.5c-4.3-0.1-7.6-3.5-7.5-7.7
			C624,366.7,627.4,363.4,631.7,363.5z"/>
		<path class="st56" d="M644,334.5c0.3,0.2,0.7,0.3,1,0.5c0,0.4,0.1,1.2-0.4,1.1C644,336,643.9,335.2,644,334.5z"/>
		<path class="st57" d="M645,443c-0.3,0-0.6,0-1,0c-0.1-0.6,0.1-1.2,0.7-1.2C645.1,441.8,645.2,442.5,645,443z"/>
	</g>
</g>
</svg>
